{
.appVersion = "3221";
.formatVersion = 3;
DisplayStrings = (
ALTERNATIVELY
);
axes = (
{
name = Slant;
tag = slnt;
},
{
name = Weight;
tag = wght;
}
);
classes = (
{
automatic = 1;

glyphs = (
{
glyphname = A;
kernLeft = A;
kernRight = A;
lastChange = "2022-02-09 18:02:24 +0000";
layers = (
{
anchors = (
{
name = bottom;
pos = (577,0);
},
{
name = ogonek;
pos = (1041,0);
},
{
name = top;
pos = (579,1475);
}
);
layerId = "A1A0948C-E637-4A65-8CCC-05505AD98C44";
shapes = (
{
closed = 1;
nodes = (
(149,0,l),
(580,1449,l),
(578,1449,l),
(1007,0,l),
(1041,0,l),
(600,1482,l),
(559,1482,l),
(115,0,l)
);
},
{
closed = 1;
nodes = (
(888,451,l),
(888,479,l),
(271,479,l),
(271,451,l)
);
}
);
width = 1156;
},
{
anchors = (
{
name = bottom;
pos = (702,0);
},
{
name = ogonek;
pos = (1365,0);
},
{
name = top;
pos = (704,1475);
}
);
layerId = "584F9D0D-8480-40C6-ABEA-8DD6EE64252D";
shapes = (
{
closed = 1;
nodes = (
(453,0,l),
(705,1234,l),
(703,1234,l),
(952,0,l),
(1365,0,l),
(1024,1475,l),
(383,1475,l),
(40,0,l)
);
},
{
closed = 1;
nodes = (
(1068,310,l),
(1068,613,l),
(340,613,l),
(340,310,l)
);
}
);
width = 1405;
},
{
anchors = (
{
name = bottom;
pos = (615,0);
},
{
name = ogonek;
pos = (1153,0);
},
{
name = top;
pos = (617,1475);
}
);
layerId = "F6BDCC95-B00C-46EE-8A70-124DE74BF6E5";
shapes = (
{
closed = 1;
nodes = (
(254,0,l),
(618,1368,l),
(616,1368,l),
(977,0,l),
(1153,0,l),
(750,1479,l),
(484,1479,l),
(78,0,l)
);
},
{
closed = 1;
nodes = (
(946,391,l),
(946,541,l),
(288,541,l),
(288,391,l)
);
}
);
width = 1231;
},
{
anchors = (
{
name = bottom;
pos = (469,0);
},
{
name = ogonek;
pos = (928,0);
},
{
name = top;
pos = (782,1475);
}
);
layerId = "2503C51C-5A6C-4B2C-A968-78FEA18C2585";
shapes = (
{
closed = 1;
nodes = (
(38,0,l),
(777,1449,l),
(775,1449,l),
(896,0,l),
(928,0,l),
(803,1482,l),
(762,1482,l),
(2,0,l)
);
},
{
closed = 1;
nodes = (
(873,451,l),
(879,479,l),
(262,479,l),
(256,451,l)
);
}
);
width = 1156;
},
{
anchors = (
{
name = bottom;
pos = (505,0);
},
{
name = ogonek;
pos = (1041,0);
},
{
name = top;
pos = (818,1475);
}
);
layerId = "BEF1FBB1-ACEC-4AC1-9895-C09886024D55";
shapes = (
{
closed = 1;
nodes = (
(149,0,l),
(804,1368,l),
(802,1368,l),
(872,0,l),
(1041,0,l),
(952,1479,l),
(686,1479,l),
(-35,0,l)
);
},
{
closed = 1;
nodes = (
(920,391,l),
(948,541,l),
(289,541,l),
(261,391,l)
);
}
);
width = 1231;
},
{
anchors = (
{
name = bottom;
pos = (590,0);
},
{
name = ogonek;
pos = (1253,0);
},
{
name = top;
pos = (904,1475);
}
);
layerId = "3FDD6C00-F7FD-4E85-84B0-0136AF7D7529";
shapes = (
{
closed = 1;
nodes = (
(359,0,l),
(874,1234,l),
(872,1234,l),
(858,0,l),
(1253,0,l),
(1226,1475,l),
(585,1475,l),
(-72,0,l)
);
},
{
closed = 1;
nodes = (
(1022,310,l),
(1087,613,l),
(359,613,l),
(294,310,l)
);
}
);
width = 1405;
}
);
note = A;
unicode = 65;
},
{
glyphname = AE;
kernLeft = AE;
kernRight = E;
lastChange = "2022-02-09 18:02:24 +0000";
layers = (
{
anchors = (
{
name = bottom;
pos = (891,0);
},
{
name = top;
pos = (967,1472);
}
);
layerId = "A1A0948C-E637-4A65-8CCC-05505AD98C44";
shapes = (
{
closed = 1;
nodes = (
(51,0,l),
(897,1428,l),
(890,1430,l),
(890,0,l),
(1606,0,l),
(1606,28,l),
(907,28,l),
(921,14,l),
(921,736,l),
(907,726,l),
(1495,726,l),
(1495,754,l),
(907,754,l),
(921,744,l),
(921,1461,l),
(907,1447,l),
(1606,1447,l),
(1606,1475,l),
(887,1475,l),
(15,0,l)
);
},
{
closed = 1;
nodes = (
(907,386,l),
(907,414,l),
(279,414,l),
(269,386,l)
);
}
);
width = 1781;
},
{
anchors = (
{
name = bottom;
pos = (989,0);
},
{
name = top;
pos = (1297,1475);
}
);
layerId = "584F9D0D-8480-40C6-ABEA-8DD6EE64252D";
shapes = (
{
closed = 1;
nodes = (
(437,0,l),
(1029,1127,l),
(999,1151,l),
(999,0,l),
(1957,0,l),
(1957,300,l),
(1272,300,l),
(1386,186,l),
(1386,694,l),
(1282,590,l),
(1846,590,l),
(1846,890,l),
(1272,890,l),
(1386,776,l),
(1386,1306,l),
(1255,1175,l),
(1957,1175,l),
(1957,1475,l),
(837,1475,l),
(0,0,l)
);
},
{
closed = 1;
nodes = (
(1182,260,l),
(1182,544,l),
(537,544,l),
(458,260,l)
);
}
);
width = 2067;
},
{
anchors = (
{
name = bottom;
pos = (918,0);
},
{
name = top;
pos = (1055,1475);
}
);
layerId = "F6BDCC95-B00C-46EE-8A70-124DE74BF6E5";
shapes = (
{
closed = 1;
nodes = (
(186,0,l),
(937,1315,l),
(922,1325,l),
(922,0,l),
(1728,0,l),
(1728,150,l),
(1035,150,l),
(1086,99,l),
(1086,720,l),
(1038,665,l),
(1617,665,l),
(1617,815,l),
(1035,815,l),
(1086,756,l),
(1086,1383,l),
(1028,1325,l),
(1728,1325,l),
(1728,1475,l),
(859,1475,l),
(0,0,l)
);
},
{
closed = 1;
nodes = (
(1001,326,l),
(1001,476,l),
(366,476,l),
(331,326,l)
);
}
);
width = 1869;
},
{
anchors = (
{
name = bottom;
pos = (766,0);
},
{
name = top;
pos = (1135,1475);
}
);
layerId = "2503C51C-5A6C-4B2C-A968-78FEA18C2585";
shapes = (
{
closed = 1;
nodes = (
(-62,0,l),
(1065,1428,l),
(1058,1430,l),
(754,0,l),
(1470,0,l),
(1476,28,l),
(777,28,l),
(788,14,l),
(943,740,l),
(926,726,l),
(1514,726,l),
(1520,754,l),
(932,754,l),
(943,740,l),
(1096,1461,l),
(1079,1447,l),
(1778,1447,l),
(1784,1475,l),
(1062,1475,l),
(-98,0,l)
);
},
{
closed = 1;
nodes = (
(853,386,l),
(859,414,l),
(237,414,l),
(221,386,l)
);
}
);
width = 1758;
},
{
anchors = (
{
name = bottom;
pos = (800,0);
},
{
name = top;
pos = (1375,1475);
}
);
layerId = "BEF1FBB1-ACEC-4AC1-9895-C09886024D55";
shapes = (
{
closed = 1;
nodes = (
(99,0,l),
(1080,1315,l),
(1067,1325,l),
(785,0,l),
(1591,0,l),
(1623,150,l),
(930,150,l),
(970,99,l),
(1102,720,l),
(1043,665,l),
(1622,665,l),
(1653,815,l),
(1071,815,l),
(1110,756,l),
(1243,1383,l),
(1173,1325,l),
(1873,1325,l),
(1905,1475,l),
(1016,1475,l),
(-97,0,l)
);
},
{
closed = 1;
nodes = (
(934,326,l),
(965,476,l),
(330,476,l),
(264,326,l)
);
}
);
width = 1845;
},
{
anchors = (
{
name = bottom;
pos = (881,0);
},
{
name = top;
pos = (1473,1475);
}
);
layerId = "3FDD6C00-F7FD-4E85-84B0-0136AF7D7529";
shapes = (
{
closed = 1;
nodes = (
(325,0,l),
(1125,1127,l),
(1100,1151,l),
(855,0,l),
(1813,0,l),
(1877,300,l),
(1192,300,l),
(1282,186,l),
(1390,694,l),
(1264,590,l),
(1828,590,l),
(1891,890,l),
(1317,890,l),
(1407,776,l),
(1520,1306,l),
(1361,1175,l),
(2063,1175,l),
(2127,1475,l),
(977,1475,l),
(-112,0,l)
);
},
{
closed = 1;
nodes = (
(1094,260,l),
(1154,544,l),
(509,544,l),
(370,260,l)
);
}
);
width = 2036;
}
);
metricRight = E;
unicode = 198;
},
{
glyphname = B;
kernLeft = H;
kernRight = O;
lastChange = "2022-02-09 18:02:24 +0000";
layers = (
{
anchors = (
{
name = bottom;
pos = (555,0);
},
{
name = top;
pos = (555,1475);
}
);
layerId = "A1A0948C-E637-4A65-8CCC-05505AD98C44";
shapes = (
{
closed = 1;
nodes = (
(175,1475,l),
(175,0,l),
(558,0,ls),
(833,0,o),
(1007,122,o),
(1007,398,cs),
(1007,670,o),
(832,775,o),
(634,779,c),
(810,784,o),
(979,893,o),
(979,1130,cs),
(979,1390,o),
(809,1475,o),
(572,1475,cs)
);
},
{
closed = 1;
nodes = (
(208,1461,l),
(194,1447,l),
(569,1447,ls),
(785,1447,o),
(947,1379,o),
(947,1130,cs),
(947,892,o),
(776,791,o),
(506,791,cs),
(194,791,l),
(208,779,l)
);
},
{
closed = 1;
nodes = (
(194,28,l),
(208,14,l),
(208,774,l),
(194,763,l),
(505,763,ls),
(738,763,o),
(975,710,o),
(975,398,cs),
(975,131,o),
(806,28,o),
(553,28,cs)
);
}
);
width = 1172;
},
{
anchors = (
{
name = bottom;
pos = (689,0);
},
{
name = top;
pos = (689,1475);
}
);
layerId = "584F9D0D-8480-40C6-ABEA-8DD6EE64252D";
shapes = (
{
closed = 1;
nodes = (
(110,1475,l),
(110,0,l),
(755,0,ls),
(1139,0,o),
(1258,195,o),
(1258,424,cs),
(1258,674,o),
(1076,761,o),
(952,765,c),
(1076,776,o),
(1219,904,o),
(1219,1115,cs),
(1219,1321,o),
(1086,1475,o),
(755,1475,cs)
);
},
{
closed = 1;
nodes = (
(494,1357,l),
(312,1175,l),
(650,1175,ls),
(770,1175,o),
(817,1127,o),
(817,1045,cs),
(817,966,o),
(770,903,o),
(650,903,cs),
(362,903,l),
(494,797,l)
);
},
{
closed = 1;
nodes = (
(312,301,l),
(494,119,l),
(494,711,l),
(362,605,l),
(676,605,ls),
(796,605,o),
(847,529,o),
(847,449,cs),
(847,367,o),
(796,301,o),
(676,301,cs)
);
}
);
width = 1328;
},
{
anchors = (
{
name = bottom;
pos = (596,0);
},
{
name = top;
pos = (596,1475);
}
);
layerId = "F6BDCC95-B00C-46EE-8A70-124DE74BF6E5";
shapes = (
{
closed = 1;
nodes = (
(141,1475,l),
(141,0,l),
(623,0,ls),
(938,0,o),
(1092,149,o),
(1092,408,cs),
(1092,672,o),
(914,770,o),
(744,774,c),
(900,781,o),
(1060,897,o),
(1060,1124,cs),
(1060,1364,o),
(904,1475,o),
(631,1475,cs)
);
},
{
closed = 1;
nodes = (
(306,1422,l),
(229,1325,l),
(590,1325,ls),
(770,1325,o),
(889,1265,o),
(889,1098,cs),
(889,930,o),
(764,843,o),
(551,843,cs),
(248,843,l),
(306,785,l)
);
},
{
closed = 1;
nodes = (
(229,150,l),
(306,53,l),
(306,752,l),
(248,694,l),
(560,694,ls),
(750,694,o),
(918,632,o),
(918,417,cs),
(918,240,o),
(793,150,o),
(590,150,cs)
);
}
);
width = 1214;
},
{
anchors = (
{
name = bottom;
pos = (427,0);
},
{
name = top;
pos = (741,1475);
}
);
layerId = "2503C51C-5A6C-4B2C-A968-78FEA18C2585";
shapes = (
{
closed = 1;
nodes = (
(376,1475,l),
(62,0,l),
(445,0,ls),
(765,0,o),
(983,155,o),
(983,462,cs),
(983,686,o),
(858,773,o),
(687,778,c),
(937,785,o),
(1111,960,o),
(1111,1218,cs),
(1111,1399,o),
(980,1475,o),
(768,1475,cs)
);
},
{
closed = 1;
nodes = (
(406,1461,l),
(389,1447,l),
(764,1447,ls),
(956,1447,o),
(1080,1386,o),
(1080,1219,cs),
(1080,931,o),
(871,791,o),
(561,791,cs),
(249,791,l),
(260,777,l)
);
},
{
closed = 1;
nodes = (
(87,28,l),
(98,14,l),
(260,777,l),
(243,763,l),
(564,763,ls),
(779,763,o),
(952,709,o),
(952,465,cs),
(952,177,o),
(750,28,o),
(446,28,cs)
);
}
);
width = 1180;
},
{
anchors = (
{
name = bottom;
pos = (457,0);
},
{
name = top;
pos = (771,1475);
}
);
layerId = "BEF1FBB1-ACEC-4AC1-9895-C09886024D55";
shapes = (
{
closed = 1;
nodes = (
(342,1475,l),
(28,0,l),
(510,0,ls),
(854,0,o),
(1072,184,o),
(1072,479,cs),
(1072,672,o),
(949,769,o),
(796,773,c),
(999,782,o),
(1193,948,o),
(1193,1212,cs),
(1193,1374,o),
(1086,1475,o),
(829,1475,cs)
);
},
{
closed = 1;
nodes = (
(496,1421,l),
(402,1345,l),
(763,1345,ls),
(928,1345,o),
(1015,1294,o),
(1015,1166,cs),
(1015,948,o),
(853,833,o),
(614,833,cs),
(292,833,l),
(359,783,l)
);
},
{
closed = 1;
nodes = (
(144,130,l),
(205,55,l),
(352,749,l),
(266,704,l),
(603,704,ls),
(782,704,o),
(898,649,o),
(898,474,cs),
(898,251,o),
(740,130,o),
(505,130,cs)
);
}
);
width = 1219;
},
{
anchors = (
{
name = bottom;
pos = (533,0);
},
{
name = top;
pos = (847,1475);
}
);
layerId = "3FDD6C00-F7FD-4E85-84B0-0136AF7D7529";
shapes = (
{
closed = 1;
nodes = (
(311,1475,l),
(-3,0,l),
(642,0,ls),
(1026,0,o),
(1246,233,o),
(1246,507,cs),
(1246,648,o),
(1125,761,o),
(1002,765,c),
(1128,776,o),
(1354,927,o),
(1354,1202,cs),
(1354,1333,o),
(1287,1475,o),
(956,1475,cs)
);
},
{
closed = 1;
nodes = (
(670,1353,l),
(449,1175,l),
(787,1175,ls),
(907,1175,o),
(931,1140,o),
(931,1078,cs),
(931,977,o),
(847,903,o),
(727,903,cs),
(389,903,l),
(548,794,l)
);
},
{
closed = 1;
nodes = (
(263,301,l),
(407,123,l),
(529,703,l),
(328,605,l),
(692,605,ls),
(812,605,o),
(834,548,o),
(834,488,cs),
(834,374,o),
(747,301,o),
(627,301,cs)
);
}
);
width = 1332;
}
);
metricLeft = H;
metricRight = R;
note = B;
unicode = 66;
},
{
glyphname = C;
kernLeft = O;
kernRight = O;
lastChange = "2022-02-09 18:02:24 +0000";
layers = (
{
anchors = (
{
name = bottom;
pos = (644,0);
},
{
name = top;
pos = (644,1475);
}
);
layerId = "A1A0948C-E637-4A65-8CCC-05505AD98C44";
shapes = (
{
closed = 1;
nodes = (
(1089,474,l),
(1089,269,o),
(934,11,o),
(644,11,cs),
(341,11,o),
(147,298,o),
(147,737,cs),
(147,1176,o),
(341,1460,o),
(644,1460,cs),
(904,1460,o),
(1055,1256,o),
(1084,1066,cs),
(1087,1043,o),
(1089,1021,o),
(1089,1000,c),
(1120,1000,l),
(1120,1023,o),
(1118,1047,o),
(1114,1071,cs),
(1084,1271,o),
(926,1488,o),
(644,1488,cs),
(314,1488,o),
(115,1192,o),
(115,737,cs),
(115,282,o),
(314,-17,o),
(644,-17,cs),
(960,-17,o),
(1120,256,o),
(1120,474,c)
);
}
);
width = 1235;
},
{
anchors = (
{
name = bottom;
pos = (756,0);
},
{
name = top;
pos = (749,1475);
}
);
layerId = "584F9D0D-8480-40C6-ABEA-8DD6EE64252D";
shapes = (
{
closed = 1;
nodes = (
(994,557,l),
(994,403,o),
(907,285,o),
(759,285,cs),
(603,285,o),
(480,419,o),
(480,738,cs),
(480,1057,o),
(603,1188,o),
(759,1188,cs),
(889,1188,o),
(972,1104,o),
(990,974,cs),
(993,956,o),
(994,937,o),
(994,918,c),
(1399,918,l),
(1399,967,o),
(1392,1017,o),
(1379,1067,cs),
(1319,1293,o),
(1119,1500,o),
(759,1500,cs),
(324,1500,o),
(70,1188,o),
(70,738,cs),
(70,288,o),
(324,-26,o),
(759,-26,cs),
(1198,-26,o),
(1399,288,o),
(1399,557,c)
);
}
);
width = 1469;
},
{
anchors = (
{
name = bottom;
pos = (685,0);
},
{
name = top;
pos = (683,1475);
}
);
layerId = "F6BDCC95-B00C-46EE-8A70-124DE74BF6E5";
shapes = (
{
closed = 1;
nodes = (
(1053,513,l),
(1053,327,o),
(923,134,o),
(687,134,cs),
(439,134,o),
(275,343,o),
(275,737,cs),
(275,1131,o),
(439,1338,o),
(687,1338,cs),
(898,1338,o),
(1023,1192,o),
(1048,1024,cs),
(1051,1003,o),
(1053,982,o),
(1053,962,c),
(1224,962,l),
(1224,995,o),
(1220,1028,o),
(1213,1062,cs),
(1172,1272,o),
(998,1493,o),
(687,1493,cs),
(313,1493,o),
(101,1179,o),
(101,737,cs),
(101,296,o),
(313,-20,o),
(687,-20,cs),
(1049,-20,o),
(1224,276,o),
(1224,513,c)
);
}
);
width = 1325;
},
{
anchors = (
{
name = bottom;
pos = (530,0);
},
{
name = top;
pos = (839,1475);
}
);
layerId = "2503C51C-5A6C-4B2C-A968-78FEA18C2585";
shapes = (
{
closed = 1;
nodes = (
(1074,474,l),
(1031,271,o),
(821,11,o),
(531,11,cs),
(283,11,o),
(172,204,o),
(172,493,cs),
(172,961,o),
(417,1460,o),
(839,1460,cs),
(1087,1460,o),
(1196,1275,o),
(1196,1092,cs),
(1196,1059,o),
(1190,1019,o),
(1186,1000,c),
(1217,1000,l),
(1221,1015,o),
(1226,1056,o),
(1226,1089,cs),
(1226,1289,o),
(1116,1488,o),
(839,1488,cs),
(393,1488,o),
(139,980,o),
(139,489,cs),
(139,186,o),
(261,-17,o),
(533,-17,cs),
(849,-17,o),
(1059,256,o),
(1105,474,c)
);
}
);
width = 1234;
},
{
anchors = (
{
name = bottom;
pos = (552,0);
},
{
name = top;
pos = (854,1475);
}
);
layerId = "BEF1FBB1-ACEC-4AC1-9895-C09886024D55";
shapes = (
{
closed = 1;
nodes = (
(1022,513,l),
(982,328,o),
(810,134,o),
(573,134,cs),
(372,134,o),
(276,266,o),
(276,512,cs),
(276,910,o),
(472,1338,o),
(833,1338,cs),
(1034,1338,o),
(1127,1209,o),
(1127,1050,cs),
(1127,1021,o),
(1121,982,o),
(1117,962,c),
(1288,962,l),
(1294,986,o),
(1299,1017,o),
(1299,1053,cs),
(1299,1266,o),
(1176,1493,o),
(852,1493,cs),
(389,1493,o),
(103,1011,o),
(103,513,cs),
(103,204,o),
(241,-20,o),
(556,-20,cs),
(918,-20,o),
(1143,276,o),
(1193,513,c)
);
}
);
width = 1281;
},
{
anchors = (
{
name = bottom;
pos = (660,0);
},
{
name = top;
pos = (944,1475);
}
);
layerId = "3FDD6C00-F7FD-4E85-84B0-0136AF7D7529";
shapes = (
{
closed = 1;
nodes = (
(1009,557,l),
(976,403,o),
(860,285,o),
(712,285,cs),
(589,285,o),
(515,388,o),
(515,564,cs),
(515,845,o),
(644,1188,o),
(904,1188,cs),
(1025,1188,o),
(1076,1118,o),
(1076,1001,cs),
(1076,978,o),
(1072,941,o),
(1067,918,c),
(1472,918,l),
(1481,958,o),
(1485,998,o),
(1485,1039,cs),
(1485,1274,o),
(1323,1500,o),
(948,1500,cs),
(457,1500,o),
(107,1123,o),
(107,584,cs),
(107,234,o),
(283,-26,o),
(668,-26,cs),
(1107,-26,o),
(1357,288,o),
(1414,557,c)
);
}
);
width = 1478;
}
);
metricLeft = O;
metricRight = O;
note = C;
unicode = 67;
},
{
glyphname = Ccedilla;
kernLeft = O;
kernRight = O;
lastChange = "2022-02-09 18:02:24 +0000";
layers = (
{
anchors = (
{
name = bottom;
pos = (662,-434);
},
{
name = top;
pos = (644,1475);
}
);
layerId = "A1A0948C-E637-4A65-8CCC-05505AD98C44";
shapes = (
{
closed = 1;
nodes = (
(1089,474,l),
(1089,269,o),
(934,11,o),
(644,11,cs),
(341,11,o),
(147,298,o),
(147,737,cs),
(147,1176,o),
(341,1460,o),
(644,1460,cs),
(904,1460,o),
(1055,1256,o),
(1084,1066,cs),
(1087,1043,o),
(1089,1021,o),
(1089,1000,c),
(1120,1000,l),
(1120,1023,o),
(1118,1047,o),
(1114,1071,cs),
(1084,1271,o),
(926,1488,o),
(644,1488,cs),
(314,1488,o),
(115,1192,o),
(115,737,cs),
(115,282,o),
(314,-17,o),
(644,-17,cs),
(960,-17,o),
(1120,256,o),
(1120,474,c)
);
},
{
closed = 1;
nodes = (
(652,-143,o),
(604,-160,o),
(593,-185,c),
(594,-195,l),
(658,0,l),
(628,0,l),
(562,-199,l),
(591,-212,l),
(612,-188,o),
(657,-171,o),
(693,-171,cs),
(750,-171,o),
(787,-201,o),
(787,-273,cs),
(787,-357,o),
(717,-406,o),
(632,-406,cs),
(567,-406,o),
(531,-387,o),
(520,-379,c),
(506,-407,l),
(516,-415,o),
(562,-434,o),
(628,-434,cs),
(730,-434,o),
(817,-378,o),
(817,-273,cs),
(817,-178,o),
(763,-143,o),
(698,-143,cs)
);
}
);
width = 1235;
},
{
anchors = (
{
name = bottom;
pos = (769,-410);
},
{
name = top;
pos = (749,1475);
}
);
layerId = "584F9D0D-8480-40C6-ABEA-8DD6EE64252D";
shapes = (
{
closed = 1;
nodes = (
(994,557,l),
(994,403,o),
(907,285,o),
(759,285,cs),
(603,285,o),
(480,419,o),
(480,738,cs),
(480,1057,o),
(603,1188,o),
(759,1188,cs),
(889,1188,o),
(972,1104,o),
(990,974,cs),
(993,956,o),
(994,937,o),
(994,918,c),
(1399,918,l),
(1399,967,o),
(1392,1017,o),
(1379,1067,cs),
(1319,1293,o),
(1119,1500,o),
(759,1500,cs),
(314,1500,o),
(70,1158,o),
(70,738,cs),
(70,318,o),
(314,-26,o),
(759,-26,cs),
(1198,-26,o),
(1399,288,o),
(1399,557,c)
);
},
{
closed = 1;
nodes = (
(816,-56,o),
(778,-75,o),
(765,-107,c),
(775,-107,l),
(833,0,l),
(667,0,l),
(593,-143,l),
(739,-182,l),
(753,-160,o),
(787,-150,o),
(818,-150,cs),
(849,-150,o),
(875,-165,o),
(875,-199,cs),
(875,-243,o),
(823,-265,o),
(752,-265,cs),
(681,-265,o),
(598,-230,o),
(568,-212,c),
(492,-353,l),
(535,-382,o),
(650,-410,o),
(739,-410,cs),
(891,-410,o),
(1046,-350,o),
(1046,-207,cs),
(1046,-95,o),
(953,-56,o),
(881,-56,cs)
);
}
);
width = 1469;
},
{
anchors = (
{
name = bottom;
pos = (701,-425);
},
{
name = top;
pos = (683,1475);
}
);
layerId = "F6BDCC95-B00C-46EE-8A70-124DE74BF6E5";
shapes = (
{
closed = 1;
nodes = (
(1053,513,l),
(1053,327,o),
(923,134,o),
(687,134,cs),
(439,134,o),
(275,343,o),
(275,737,cs),
(275,1131,o),
(439,1338,o),
(687,1338,cs),
(898,1338,o),
(1023,1192,o),
(1048,1024,cs),
(1051,1003,o),
(1053,982,o),
(1053,962,c),
(1224,962,l),
(1224,995,o),
(1220,1028,o),
(1213,1062,cs),
(1172,1272,o),
(998,1493,o),
(687,1493,cs),
(313,1493,o),
(101,1179,o),
(101,737,cs),
(101,296,o),
(313,-20,o),
(687,-20,cs),
(1049,-20,o),
(1224,276,o),
(1224,513,c)
);
},
{
closed = 1;
nodes = (
(713,-100,o),
(659,-128,o),
(647,-156,c),
(661,-162,l),
(723,0,l),
(642,0,l),
(573,-178,l),
(646,-201,l),
(664,-178,o),
(705,-163,o),
(739,-163,cs),
(786,-163,o),
(819,-188,o),
(819,-245,cs),
(819,-314,o),
(756,-353,o),
(676,-353,cs),
(609,-353,o),
(555,-328,o),
(537,-316,c),
(500,-387,l),
(522,-403,o),
(594,-425,o),
(669,-425,cs),
(790,-425,o),
(902,-368,o),
(902,-248,cs),
(902,-147,o),
(834,-100,o),
(766,-100,cs)
);
}
);
width = 1325;
},
{
anchors = (
{
name = bottom;
pos = (458,-446);
},
{
name = top;
pos = (839,1475);
}
);
layerId = "2503C51C-5A6C-4B2C-A968-78FEA18C2585";
shapes = (
{
closed = 1;
nodes = (
(1074,474,l),
(1031,271,o),
(821,11,o),
(531,11,cs),
(283,11,o),
(172,204,o),
(172,493,cs),
(172,961,o),
(417,1460,o),
(839,1460,cs),
(1087,1460,o),
(1196,1275,o),
(1196,1092,cs),
(1196,1059,o),
(1190,1019,o),
(1186,1000,c),
(1217,1000,l),
(1221,1015,o),
(1226,1056,o),
(1226,1089,cs),
(1226,1289,o),
(1116,1488,o),
(839,1488,cs),
(393,1488,o),
(139,980,o),
(139,489,cs),
(139,186,o),
(261,-17,o),
(533,-17,cs),
(849,-17,o),
(1059,256,o),
(1105,474,c)
);
},
{
closed = 1;
nodes = (
(515,-155,o),
(469,-172,o),
(454,-197,c),
(454,-207,l),
(545,-12,l),
(515,-12,l),
(422,-211,l),
(449,-224,l),
(473,-200,o),
(520,-183,o),
(556,-183,cs),
(606,-183,o),
(638,-206,o),
(638,-261,cs),
(638,-360,o),
(555,-418,o),
(462,-418,cs),
(397,-418,o),
(364,-399,o),
(354,-391,c),
(336,-419,l),
(345,-427,o),
(392,-446,o),
(458,-446,cs),
(568,-446,o),
(668,-380,o),
(668,-258,cs),
(668,-183,o),
(619,-155,o),
(561,-155,cs)
);
}
);
width = 1234;
},
{
anchors = (
{
name = bottom;
pos = (489,-439);
},
{
name = top;
pos = (858,1475);
}
);
layerId = "BEF1FBB1-ACEC-4AC1-9895-C09886024D55";
shapes = (
{
closed = 1;
nodes = (
(1022,513,l),
(982,328,o),
(810,134,o),
(573,134,cs),
(372,134,o),
(276,266,o),
(276,512,cs),
(276,910,o),
(472,1338,o),
(833,1338,cs),
(1034,1338,o),
(1127,1209,o),
(1127,1050,cs),
(1127,1021,o),
(1121,982,o),
(1117,962,c),
(1288,962,l),
(1294,986,o),
(1299,1017,o),
(1299,1053,cs),
(1299,1266,o),
(1176,1493,o),
(852,1493,cs),
(389,1493,o),
(103,1011,o),
(103,513,cs),
(103,204,o),
(241,-20,o),
(556,-20,cs),
(918,-20,o),
(1143,276,o),
(1193,513,c)
);
},
{
closed = 1;
nodes = (
(564,-114,o),
(510,-142,o),
(494,-170,c),
(508,-176,l),
(592,-14,l),
(511,-14,l),
(418,-192,l),
(487,-215,l),
(508,-192,o),
(551,-177,o),
(585,-177,cs),
(627,-177,o),
(656,-196,o),
(656,-241,cs),
(656,-322,o),
(582,-367,o),
(496,-367,cs),
(429,-367,o),
(378,-342,o),
(362,-330,c),
(315,-401,l),
(335,-417,o),
(410,-439,o),
(484,-439,cs),
(615,-439,o),
(739,-370,o),
(739,-236,cs),
(739,-154,o),
(678,-114,o),
(617,-114,cs)
);
}
);
width = 1281;
},
{
anchors = (
{
name = bottom;
pos = (609,-410);
},
{
name = top;
pos = (944,1475);
}
);
layerId = "3FDD6C00-F7FD-4E85-84B0-0136AF7D7529";
shapes = (
{
closed = 1;
nodes = (
(1009,557,l),
(976,403,o),
(860,285,o),
(712,285,cs),
(589,285,o),
(515,388,o),
(515,564,cs),
(515,845,o),
(644,1188,o),
(904,1188,cs),
(1025,1188,o),
(1076,1118,o),
(1076,1001,cs),
(1076,978,o),
(1072,941,o),
(1067,918,c),
(1472,918,l),
(1481,958,o),
(1485,998,o),
(1485,1039,cs),
(1485,1274,o),
(1323,1500,o),
(948,1500,cs),
(457,1500,o),
(107,1123,o),
(107,584,cs),
(107,234,o),
(283,-26,o),
(668,-26,cs),
(1107,-26,o),
(1357,288,o),
(1414,557,c)
);
},
{
closed = 1;
nodes = (
(714,-56,o),
(673,-75,o),
(656,-107,c),
(666,-107,l),
(739,0,l),
(573,0,l),
(479,-143,l),
(619,-182,l),
(636,-160,o),
(672,-150,o),
(703,-150,cs),
(731,-150,o),
(754,-162,o),
(754,-190,cs),
(754,-240,o),
(696,-265,o),
(621,-265,cs),
(550,-265,o),
(471,-230,o),
(444,-212,c),
(348,-353,l),
(387,-382,o),
(508,-410,o),
(597,-410,cs),
(763,-410,o),
(925,-336,o),
(925,-182,cs),
(925,-89,o),
(845,-56,o),
(779,-56,cs)
);
}
);
width = 1478;
}
);
unicode = 199;
},
{
glyphname = D;
kernLeft = H;
kernRight = O;
lastChange = "2022-02-09 18:02:24 +0000";
layers = (
{
anchors = (
{
name = bottom;
pos = (582,0);
},
{
name = center;
pos = (341,738);
},
{
name = top;
pos = (582,1475);
}
);
layerId = "A1A0948C-E637-4A65-8CCC-05505AD98C44";
shapes = (
{
closed = 1;
nodes = (
(437,0,ls),
(820,0,o),
(1066,259,o),
(1066,736,cs),
(1066,1213,o),
(820,1475,o),
(437,1475,cs),
(175,1475,l),
(175,0,l)
);
},
{
closed = 1;
nodes = (
(208,1461,l),
(194,1447,l),
(438,1447,ls),
(802,1447,o),
(1034,1185,o),
(1034,736,cs),
(1034,287,o),
(802,28,o),
(438,28,cs),
(194,28,l),
(208,14,l)
);
}
);
width = 1181;
},
{
anchors = (
{
name = bottom;
pos = (659,0);
},
{
name = center;
pos = (391,735);
},
{
name = top;
pos = (659,1475);
}
);
layerId = "584F9D0D-8480-40C6-ABEA-8DD6EE64252D";
shapes = (
{
closed = 1;
nodes = (
(658,0,ls),
(1056,0,o),
(1333,320,o),
(1333,741,cs),
(1333,1162,o),
(1056,1475,o),
(658,1475,cs),
(110,1475,l),
(110,0,l)
);
},
{
closed = 1;
nodes = (
(514,1357,l),
(332,1175,l),
(604,1175,ls),
(775,1175,o),
(923,1014,o),
(923,741,cs),
(923,468,o),
(775,300,o),
(604,300,cs),
(332,300,l),
(514,118,l)
);
}
);
width = 1403;
},
{
anchors = (
{
name = bottom;
pos = (602,0);
},
{
name = center;
pos = (350,737);
},
{
name = top;
pos = (602,1475);
}
);
layerId = "F6BDCC95-B00C-46EE-8A70-124DE74BF6E5";
shapes = (
{
closed = 1;
nodes = (
(511,0,ls),
(899,0,o),
(1149,282,o),
(1149,738,cs),
(1149,1194,o),
(899,1475,o),
(511,1475,cs),
(141,1475,l),
(141,0,l)
);
},
{
closed = 1;
nodes = (
(313,1422,l),
(236,1325,l),
(491,1325,ls),
(775,1325,o),
(976,1101,o),
(976,738,cs),
(976,375,o),
(775,150,o),
(491,150,cs),
(236,150,l),
(313,53,l)
);
}
);
width = 1250;
},
{
anchors = (
{
name = bottom;
pos = (467,0);
},
{
name = center;
pos = (382,738);
},
{
name = top;
pos = (781,1475);
}
);
layerId = "2503C51C-5A6C-4B2C-A968-78FEA18C2585";
shapes = (
{
closed = 1;
nodes = (
(334,0,ls),
(717,0,o),
(1141,355,o),
(1141,971,cs),
(1141,1250,o),
(1021,1475,o),
(638,1475,cs),
(376,1475,l),
(62,0,l)
);
},
{
closed = 1;
nodes = (
(406,1461,l),
(389,1447,l),
(638,1447,ls),
(1002,1447,o),
(1109,1231,o),
(1109,971,cs),
(1109,370,o),
(695,28,o),
(331,28,cs),
(87,28,l),
(98,14,l)
);
}
);
width = 1193;
},
{
anchors = (
{
name = bottom;
pos = (484,0);
},
{
name = center;
pos = (390,737);
},
{
name = top;
pos = (798,1475);
}
);
layerId = "BEF1FBB1-ACEC-4AC1-9895-C09886024D55";
shapes = (
{
closed = 1;
nodes = (
(404,0,ls),
(820,0,o),
(1217,374,o),
(1217,947,cs),
(1217,1242,o),
(1077,1475,o),
(708,1475,cs),
(342,1475,l),
(28,0,l)
);
},
{
closed = 1;
nodes = (
(503,1421,l),
(410,1345,l),
(667,1345,ls),
(942,1345,o),
(1043,1164,o),
(1043,935,cs),
(1043,462,o),
(721,130,o),
(406,130,cs),
(151,130,l),
(212,55,l)
);
}
);
width = 1239;
},
{
anchors = (
{
name = bottom;
pos = (536,0);
},
{
name = center;
pos = (429,735);
},
{
name = top;
pos = (850,1475);
}
);
layerId = "3FDD6C00-F7FD-4E85-84B0-0136AF7D7529";
shapes = (
{
closed = 1;
nodes = (
(545,0,ls),
(1016,0,o),
(1388,406,o),
(1388,906,cs),
(1388,1228,o),
(1194,1475,o),
(849,1475,cs),
(311,1475,l),
(-3,0,l)
);
},
{
closed = 1;
nodes = (
(689,1353,l),
(469,1155,l),
(741,1155,ls),
(886,1155,o),
(978,1052,o),
(978,874,cs),
(978,615,o),
(808,320,o),
(555,320,cs),
(283,320,l),
(427,122,l)
);
}
);
width = 1400;
}
);
metricLeft = H;
metricRight = O;
note = D;
unicode = 68;
},
{
glyphname = Eth;
kernLeft = H;
kernRight = O;
lastChange = "2022-02-09 18:02:24 +0000";
layers = (
{
layerId = "A1A0948C-E637-4A65-8CCC-05505AD98C44";
shapes = (
{
closed = 1;
nodes = (
(673,725,l),
(673,751,l),
(9,751,l),
(9,725,l)
);
},
{
ref = D;
}
);
width = 1181;
},
{
layerId = "584F9D0D-8480-40C6-ABEA-8DD6EE64252D";
shapes = (
{
closed = 1;
nodes = (
(766,645,l),
(766,824,l),
(16,824,l),
(16,645,l)
);
},
{
ref = D;
}
);
width = 1403;
},
{
layerId = "F6BDCC95-B00C-46EE-8A70-124DE74BF6E5";
shapes = (
{
closed = 1;
nodes = (
(698,696,l),
(698,779,l),
(2,779,l),
(2,696,l)
);
},
{
ref = D;
}
);
width = 1250;
},
{
layerId = "2503C51C-5A6C-4B2C-A968-78FEA18C2585";
shapes = (
{
closed = 1;
nodes = (
(711,725,l),
(716,751,l),
(54,751,l),
(47,725,l)
);
},
{
ref = D;
}
);
width = 1193;
},
{
layerId = "BEF1FBB1-ACEC-4AC1-9895-C09886024D55";
shapes = (
{
closed = 1;
nodes = (
(729,696,l),
(746,779,l),
(51,779,l),
(32,696,l)
);
},
{
ref = D;
}
);
width = 1239;
},
{
layerId = "3FDD6C00-F7FD-4E85-84B0-0136AF7D7529";
shapes = (
{
closed = 1;
nodes = (
(785,645,l),
(823,824,l),
(73,824,l),
(35,645,l)
);
},
{
ref = D;
}
);
width = 1400;
}
);
unicode = 208;
},
{
glyphname = E;
kernLeft = H;
kernRight = E;
lastChange = "2022-02-09 18:02:24 +0000";
layers = (
{
anchors = (
{
name = bottom;
pos = (572,0);
},
{
name = ogonek;
pos = (890,0);
},
{
name = top;
pos = (542,1475);
},
{
name = topleft;
pos = (74,1475);
}
);
layerId = "A1A0948C-E637-4A65-8CCC-05505AD98C44";
shapes = (
{
closed = 1;
nodes = (
(890,1447,l),
(890,1475,l),
(175,1475,l),
(175,0,l),
(890,0,l),
(890,28,l),
(191,28,l),
(205,14,l),
(205,740,l),
(191,726,l),
(839,726,l),
(839,754,l),
(191,754,l),
(205,740,l),
(205,1461,l),
(191,1447,l)
);
}
);
width = 1065;
},
{
anchors = (
{
name = bottom;
pos = (603,0);
},
{
name = ogonek;
pos = (1067,0);
},
{
name = top;
pos = (603,1475);
},
{
name = topleft;
pos = (43,1475);
}
);
layerId = "584F9D0D-8480-40C6-ABEA-8DD6EE64252D";
shapes = (
{
closed = 1;
nodes = (
(1067,1175,l),
(1067,1475,l),
(110,1475,l),
(110,0,l),
(1067,0,l),
(1067,300,l),
(334,300,l),
(516,118,l),
(516,697,l),
(426,590,l),
(956,590,l),
(956,890,l),
(426,890,l),
(516,782,l),
(516,1357,l),
(334,1175,l)
);
}
);
width = 1177;
},
{
anchors = (
{
name = bottom;
pos = (574,0);
},
{
name = ogonek;
pos = (947,0);
},
{
name = top;
pos = (556,1475);
},
{
name = topleft;
pos = (53,1475);
}
);
layerId = "F6BDCC95-B00C-46EE-8A70-124DE74BF6E5";
shapes = (
{
closed = 1;
nodes = (
(947,1325,l),
(947,1475,l),
(141,1475,l),
(141,0,l),
(947,0,l),
(947,150,l),
(235,150,l),
(312,53,l),
(312,724,l),
(270,665,l),
(836,665,l),
(836,815,l),
(270,815,l),
(312,756,l),
(312,1422,l),
(235,1325,l)
);
}
);
width = 1088;
},
{
anchors = (
{
name = bottom;
pos = (453,0);
},
{
name = ogonek;
pos = (777,0);
},
{
name = top;
pos = (767,1475);
},
{
name = topleft;
pos = (279,1475);
}
);
layerId = "2503C51C-5A6C-4B2C-A968-78FEA18C2585";
shapes = (
{
closed = 1;
nodes = (
(1085,1447,l),
(1091,1475,l),
(376,1475,l),
(62,0,l),
(777,0,l),
(783,28,l),
(85,28,l),
(96,14,l),
(251,740,l),
(234,726,l),
(881,726,l),
(887,754,l),
(240,754,l),
(251,740,l),
(404,1461,l),
(387,1447,l)
);
}
);
width = 1065;
},
{
anchors = (
{
name = bottom;
pos = (459,0);
},
{
name = ogonek;
pos = (834,0);
},
{
name = top;
pos = (766,1475);
},
{
name = topleft;
pos = (258,1475);
}
);
layerId = "BEF1FBB1-ACEC-4AC1-9895-C09886024D55";
shapes = (
{
closed = 1;
nodes = (
(1116,1325,l),
(1148,1475,l),
(342,1475,l),
(28,0,l),
(834,0,l),
(866,150,l),
(154,150,l),
(211,53,l),
(353,724,l),
(299,665,l),
(865,665,l),
(896,815,l),
(330,815,l),
(360,756,l),
(501,1422,l),
(404,1325,l)
);
}
);
width = 1088;
},
{
anchors = (
{
name = bottom;
pos = (494,0);
},
{
name = ogonek;
pos = (954,0);
},
{
name = top;
pos = (788,1475);
},
{
name = topleft;
pos = (248,1475);
}
);
layerId = "3FDD6C00-F7FD-4E85-84B0-0136AF7D7529";
shapes = (
{
closed = 1;
nodes = (
(1204,1175,l),
(1268,1475,l),
(311,1475,l),
(-3,0,l),
(954,0,l),
(1018,300,l),
(285,300,l),
(428,118,l),
(551,697,l),
(439,590,l),
(969,590,l),
(1032,890,l),
(502,890,l),
(569,782,l),
(692,1357,l),
(471,1175,l)
);
}
);
width = 1177;
}
);
metricLeft = H;
metricRight = H;
note = E;
unicode = 69;
},
{
glyphname = Schwa;
kernLeft = O;
kernRight = O;
lastChange = "2022-02-09 18:02:24 +0000";
layers = (
{
anchors = (
{
name = bottom;
pos = (572,0);
},
{
name = top;
pos = (572,1475);
}
);
layerId = "A1A0948C-E637-4A65-8CCC-05505AD98C44";
shapes = (
{
closed = 1;
nodes = (
(913,-11,o),
(1048,368,o),
(1048,739,cs),
(1048,1161,o),
(902,1484,o),
(572,1484,cs),
(253,1484,o),
(120,1169,o),
(120,1021,c),
(151,1021,l),
(151,1145,o),
(265,1456,o),
(572,1456,cs),
(883,1456,o),
(1015,1134,o),
(1015,739,cs),
(1015,394,o),
(899,17,o),
(570,17,cs),
(266,17,o),
(147,369,o),
(147,661,cs),
(147,669,o),
(147,686,o),
(147,697,c),
(135,690,l),
(1022,690,l),
(1022,718,l),
(115,718,l),
(115,706,o),
(115,687,o),
(115,675,cs),
(115,339,o),
(246,-11,o),
(570,-11,cs)
);
}
);
width = 1163;
},
{
anchors = (
{
name = bottom;
pos = (684,0);
},
{
name = top;
pos = (684,1475);
}
);
layerId = "584F9D0D-8480-40C6-ABEA-8DD6EE64252D";
shapes = (
{
closed = 1;
nodes = (
(1018,-11,o),
(1307,208,o),
(1307,739,cs),
(1307,1311,o),
(1007,1484,o),
(687,1484,cs),
(358,1484,o),
(95,1299,o),
(85,1001,c),
(472,1001,l),
(482,1115,o),
(566,1192,o),
(687,1192,cs),
(800,1192,o),
(901,1124,o),
(901,739,cs),
(901,381,o),
(806,280,o),
(675,280,cs),
(557,280,o),
(468,359,o),
(468,641,cs),
(468,649,o),
(468,666,o),
(468,677,c),
(456,589,l),
(908,589,l),
(908,868,l),
(73,868,l),
(71,856,o),
(70,815,o),
(70,735,cs),
(70,189,o),
(332,-11,o),
(675,-11,cs)
);
}
);
width = 1377;
},
{
anchors = (
{
name = bottom;
pos = (617,0);
},
{
name = top;
pos = (617,1475);
}
);
layerId = "F6BDCC95-B00C-46EE-8A70-124DE74BF6E5";
shapes = (
{
closed = 1;
nodes = (
(956,-11,o),
(1148,308,o),
(1148,739,cs),
(1148,1217,o),
(945,1484,o),
(618,1484,cs),
(296,1484,o),
(114,1218,o),
(110,1014,c),
(275,1014,l),
(277,1134,o),
(381,1329,o),
(618,1329,cs),
(855,1329,o),
(975,1130,o),
(975,739,cs),
(975,389,o),
(867,144,o),
(613,144,cs),
(378,144,o),
(271,365,o),
(271,654,cs),
(271,662,o),
(271,679,o),
(271,690,c),
(259,632,l),
(1012,632,l),
(1012,784,l),
(102,784,l),
(101,770,o),
(101,735,o),
(101,698,cs),
(101,283,o),
(281,-11,o),
(613,-11,cs)
);
}
);
width = 1249;
},
{
anchors = (
{
name = bottom;
pos = (469,0);
},
{
name = top;
pos = (773,1475);
}
);
layerId = "2503C51C-5A6C-4B2C-A968-78FEA18C2585";
shapes = (
{
closed = 1;
nodes = (
(882,-11,o),
(1118,512,o),
(1118,1009,cs),
(1118,1287,o),
(1024,1484,o),
(770,1484,cs),
(451,1484,o),
(249,1189,o),
(225,1021,c),
(256,1021,l),
(275,1165,o),
(463,1456,o),
(770,1456,cs),
(1004,1456,o),
(1085,1268,o),
(1085,1011,cs),
(1085,528,o),
(862,17,o),
(462,17,cs),
(228,17,o),
(160,231,o),
(160,458,cs),
(160,524,o),
(169,640,o),
(184,697,c),
(170,690,l),
(1057,690,l),
(1063,718,l),
(156,718,l),
(137,623,o),
(129,565,o),
(129,456,cs),
(129,206,o),
(210,-11,o),
(462,-11,cs)
);
}
);
width = 1169;
},
{
anchors = (
{
name = bottom;
pos = (485,0);
},
{
name = top;
pos = (793,1475);
}
);
layerId = "BEF1FBB1-ACEC-4AC1-9895-C09886024D55";
shapes = (
{
closed = 1;
nodes = (
(928,-11,o),
(1194,498,o),
(1194,990,cs),
(1194,1309,o),
(1052,1484,o),
(788,1484,cs),
(466,1484,o),
(237,1218,o),
(190,1014,c),
(355,1014,l),
(382,1134,o),
(528,1329,o),
(765,1329,cs),
(942,1329,o),
(1025,1218,o),
(1025,998,cs),
(1025,600,o),
(848,144,o),
(508,144,cs),
(329,144,o),
(252,272,o),
(252,460,cs),
(252,553,o),
(260,599,o),
(282,690,c),
(258,632,l),
(1001,632,l),
(1033,784,l),
(133,784,l),
(110,702,o),
(91,563,o),
(91,467,cs),
(91,178,o),
(219,-11,o),
(485,-11,cs)
);
}
);
width = 1212;
},
{
anchors = (
{
name = bottom;
pos = (567,0);
},
{
name = top;
pos = (881,1475);
}
);
layerId = "3FDD6C00-F7FD-4E85-84B0-0136AF7D7529";
shapes = (
{
closed = 1;
nodes = (
(1084,-11,o),
(1379,454,o),
(1379,978,cs),
(1379,1361,o),
(1144,1484,o),
(874,1484,cs),
(545,1484,o),
(261,1299,o),
(187,1001,c),
(574,1001,l),
(608,1115,o),
(709,1192,o),
(830,1192,cs),
(912,1192,o),
(980,1156,o),
(980,989,cs),
(980,718,o),
(864,280,o),
(624,280,cs),
(535,280,o),
(472,325,o),
(472,467,cs),
(472,541,o),
(480,587,o),
(501,677,c),
(471,589,l),
(923,589,l),
(982,868,l),
(147,868,l),
(118,799,o),
(93,590,o),
(93,499,cs),
(93,130,o),
(294,-11,o),
(582,-11,cs)
);
}
);
width = 1384;
}
);
metricLeft = O;
metricRight = O;
unicode = 399;
},
{
glyphname = Ezh;
lastChange = "2022-02-09 18:02:24 +0000";
layers = (
{
anchors = (
{
name = bottom;
pos = (534,0);
},
{
name = top;
pos = (534,1475);
}
);
layerId = "A1A0948C-E637-4A65-8CCC-05505AD98C44";
shapes = (
{
closed = 1;
nodes = (
(757,-17,o),
(872,154,o),
(872,425,cs),
(872,644,o),
(781,789,o),
(511,789,c),
(900,1451,l),
(900,1475,l),
(178,1475,l),
(178,1447,l),
(867,1447,l),
(462,761,l),
(517,761,l),
(746,761,o),
(840,644,o),
(840,425,cs),
(840,165,o),
(727,11,o),
(534,11,cs),
(327,11,o),
(210,127,o),
(210,424,cs),
(210,426,o),
(210,427,o),
(210,429,c),
(178,429,l),
(178,427,o),
(178,426,o),
(178,424,cs),
(178,110,o),
(300,-17,o),
(534,-17,cs)
);
}
);
width = 1067;
},
{
anchors = (
{
name = bottom;
pos = (660,0);
},
{
name = top;
pos = (660,1475);
}
);
layerId = "584F9D0D-8480-40C6-ABEA-8DD6EE64252D";
shapes = (
{
closed = 1;
nodes = (
(1041,-26,o),
(1208,196,o),
(1208,475,cs),
(1208,697,o),
(1078,836,o),
(901,836,c),
(1143,1198,l),
(1143,1475,l),
(146,1475,l),
(146,1175,l),
(749,1175,l),
(401,630,l),
(528,630,l),
(749,630,o),
(804,570,o),
(804,436,cs),
(804,308,o),
(738,275,o),
(652,275,cs),
(548,275,o),
(480,320,o),
(480,490,c),
(480,491,o),
(480,493,o),
(480,494,c),
(77,494,l),
(77,493,o),
(77,491,o),
(77,490,c),
(77,235,o),
(191,-26,o),
(647,-26,cs)
);
}
);
width = 1319;
},
{
anchors = (
{
name = bottom;
pos = (572,0);
},
{
name = top;
pos = (572,1475);
}
);
layerId = "F6BDCC95-B00C-46EE-8A70-124DE74BF6E5";
shapes = (
{
closed = 1;
nodes = (
(854,-20,o),
(989,160,o),
(989,434,cs),
(989,654,o),
(903,818,o),
(668,818,c),
(982,1336,l),
(982,1475,l),
(157,1475,l),
(157,1325,l),
(783,1325,l),
(410,672,l),
(492,672,l),
(718,672,o),
(817,626,o),
(817,429,cs),
(817,219,o),
(722,130,o),
(569,130,cs),
(401,130,o),
(302,209,o),
(302,449,c),
(302,450,o),
(302,452,o),
(302,453,c),
(131,453,l),
(131,452,o),
(131,450,o),
(131,449,c),
(131,167,o),
(250,-20,o),
(567,-20,cs)
);
}
);
width = 1143;
},
{
anchors = (
{
name = bottom;
pos = (421,0);
},
{
name = top;
pos = (735,1475);
}
);
layerId = "2503C51C-5A6C-4B2C-A968-78FEA18C2585";
shapes = (
{
closed = 1;
nodes = (
(696,-17,o),
(870,258,o),
(870,542,cs),
(870,694,o),
(789,789,o),
(574,789,c),
(1093,1451,l),
(1099,1475,l),
(377,1475,l),
(371,1447,l),
(1054,1447,l),
(513,761,l),
(574,761,l),
(758,761,o),
(839,685,o),
(839,542,cs),
(839,284,o),
(677,11,o),
(431,11,cs),
(267,11,o),
(175,84,o),
(175,261,cs),
(175,330,o),
(192,414,o),
(196,429,c),
(164,429,l),
(161,415,o),
(143,331,o),
(143,255,cs),
(143,64,o),
(245,-17,o),
(431,-17,cs)
);
}
);
width = 1067;
},
{
anchors = (
{
name = bottom;
pos = (459,0);
},
{
name = top;
pos = (773,1475);
}
);
layerId = "BEF1FBB1-ACEC-4AC1-9895-C09886024D55";
shapes = (
{
closed = 1;
nodes = (
(780,-20,o),
(977,187,o),
(977,515,cs),
(977,714,o),
(879,818,o),
(737,818,c),
(1151,1336,l),
(1181,1475,l),
(356,1475,l),
(324,1325,l),
(940,1325,l),
(428,672,l),
(520,672,l),
(719,672,o),
(798,629,o),
(798,491,cs),
(798,286,o),
(690,130,o),
(482,130,cs),
(347,130,o),
(268,181,o),
(268,324,cs),
(268,377,o),
(276,426,o),
(284,453,c),
(113,453,l),
(105,425,o),
(94,374,o),
(94,298,cs),
(94,102,o),
(202,-20,o),
(458,-20,cs)
);
}
);
width = 1143;
},
{
anchors = (
{
name = bottom;
pos = (547,0);
},
{
name = top;
pos = (861,1475);
}
);
layerId = "3FDD6C00-F7FD-4E85-84B0-0136AF7D7529";
shapes = (
{
closed = 1;
nodes = (
(940,-26,o),
(1197,183,o),
(1197,536,cs),
(1197,732,o),
(1097,836,o),
(965,836,c),
(1284,1198,l),
(1343,1475,l),
(346,1475,l),
(282,1175,l),
(885,1175,l),
(421,630,l),
(548,630,l),
(730,630,o),
(791,589,o),
(791,500,cs),
(791,372,o),
(729,275,o),
(596,275,cs),
(513,275,o),
(459,304,o),
(459,402,cs),
(459,445,o),
(468,482,o),
(471,494,c),
(68,494,l),
(65,483,o),
(52,431,o),
(52,356,cs),
(52,151,o),
(171,-26,o),
(546,-26,cs)
);
}
);
width = 1319;
}
);
unicode = 439;
},
{
glyphname = F;
kernLeft = H;
kernRight = F;
lastChange = "2022-02-09 18:02:24 +0000";
layers = (
{
anchors = (
{
name = bottom;
pos = (577,0);
},
{
name = top;
pos = (577,1475);
}
);
layerId = "A1A0948C-E637-4A65-8CCC-05505AD98C44";
shapes = (
{
closed = 1;
nodes = (
(870,1447,l),
(870,1475,l),
(175,1475,l),
(175,0,l),
(205,0,l),
(205,734,l),
(191,720,l),
(781,720,l),
(781,748,l),
(191,748,l),
(205,734,l),
(205,1461,l),
(191,1447,l)
);
}
);
width = 985;
},
{
anchors = (
{
name = bottom;
pos = (600,0);
},
{
name = top;
pos = (600,1475);
}
);
layerId = "584F9D0D-8480-40C6-ABEA-8DD6EE64252D";
shapes = (
{
closed = 1;
nodes = (
(1086,1175,l),
(1086,1475,l),
(110,1475,l),
(110,0,l),
(512,0,l),
(512,668,l),
(389,565,l),
(997,565,l),
(997,866,l),
(389,866,l),
(512,771,l),
(512,1357,l),
(330,1175,l)
);
}
);
width = 1176;
},
{
anchors = (
{
name = bottom;
pos = (576,0);
},
{
name = top;
pos = (539,1475);
}
);
layerId = "F6BDCC95-B00C-46EE-8A70-124DE74BF6E5";
shapes = (
{
closed = 1;
nodes = (
(942,1325,l),
(942,1475,l),
(141,1475,l),
(141,0,l),
(311,0,l),
(311,709,l),
(256,652,l),
(853,652,l),
(853,802,l),
(256,802,l),
(311,748,l),
(311,1422,l),
(234,1325,l)
);
}
);
width = 1038;
},
{
anchors = (
{
name = bottom;
pos = (416,0);
},
{
name = top;
pos = (730,1475);
}
);
layerId = "2503C51C-5A6C-4B2C-A968-78FEA18C2585";
shapes = (
{
closed = 1;
nodes = (
(1065,1447,l),
(1071,1475,l),
(376,1475,l),
(62,0,l),
(92,0,l),
(248,734,l),
(231,720,l),
(821,720,l),
(827,748,l),
(237,748,l),
(248,734,l),
(403,1461,l),
(386,1447,l)
);
}
);
width = 984;
},
{
anchors = (
{
name = bottom;
pos = (435,0);
},
{
name = top;
pos = (749,1475);
}
);
layerId = "BEF1FBB1-ACEC-4AC1-9895-C09886024D55";
shapes = (
{
closed = 1;
nodes = (
(1111,1325,l),
(1143,1475,l),
(342,1475,l),
(28,0,l),
(198,0,l),
(349,709,l),
(282,652,l),
(879,652,l),
(911,802,l),
(314,802,l),
(357,748,l),
(500,1422,l),
(403,1325,l)
);
}
);
width = 1037;
},
{
anchors = (
{
name = bottom;
pos = (491,0);
},
{
name = top;
pos = (805,1475);
}
);
layerId = "3FDD6C00-F7FD-4E85-84B0-0136AF7D7529";
shapes = (
{
closed = 1;
nodes = (
(1223,1175,l),
(1287,1475,l),
(311,1475,l),
(-3,0,l),
(399,0,l),
(541,668,l),
(396,565,l),
(1004,565,l),
(1068,866,l),
(460,866,l),
(563,771,l),
(688,1357,l),
(467,1175,l)
);
}
);
width = 1176;
}
);
metricLeft = H;
note = F;
unicode = 70;
},
{
glyphname = G;
kernLeft = O;
kernRight = O;
lastChange = "2022-02-09 18:02:24 +0000";
layers = (
{
anchors = (
{
name = bottom;
pos = (661,0);
},
{
name = top;
pos = (660,1475);
}
);
layerId = "A1A0948C-E637-4A65-8CCC-05505AD98C44";
shapes = (
{
closed = 1;
nodes = (
(913,-17,o),
(1055,120,o),
(1079,197,c),
(1079,0,l),
(1111,0,l),
(1111,653,l),
(650,653,l),
(650,625,l),
(1080,625,l),
(1080,256,l),
(1050,162,o),
(931,11,o),
(653,11,cs),
(351,11,o),
(146,308,o),
(146,738,cs),
(146,1168,o),
(361,1459,o),
(669,1459,cs),
(975,1459,o),
(1084,1201,o),
(1084,1005,cs),
(1084,1001,o),
(1084,997,o),
(1084,993,c),
(1114,993,l),
(1114,997,o),
(1114,1001,o),
(1114,1005,cs),
(1114,1209,o),
(1001,1488,o),
(669,1488,cs),
(345,1488,o),
(115,1198,o),
(115,738,cs),
(115,278,o),
(335,-17,o),
(654,-17,cs)
);
}
);
width = 1289;
},
{
anchors = (
{
name = bottom;
pos = (747,0);
},
{
name = top;
pos = (757,1475);
}
);
layerId = "584F9D0D-8480-40C6-ABEA-8DD6EE64252D";
shapes = (
{
closed = 1;
nodes = (
(1002,-26,o),
(1118,103,o),
(1137,163,c),
(1178,0,l),
(1366,0,l),
(1366,769,l),
(763,769,l),
(763,490,l),
(1009,490,l),
(1009,434,l),
(992,367,o),
(908,285,o),
(765,285,cs),
(632,285,o),
(480,369,o),
(480,732,cs),
(480,1093,o),
(637,1188,o),
(770,1188,cs),
(899,1188,o),
(980,1095,o),
(980,993,cs),
(980,989,o),
(980,985,o),
(980,981,c),
(1372,981,l),
(1372,985,o),
(1372,989,o),
(1372,993,cs),
(1372,1184,o),
(1209,1500,o),
(770,1500,cs),
(380,1500,o),
(70,1232,o),
(70,732,cs),
(70,232,o),
(360,-26,o),
(725,-26,cs)
);
}
);
width = 1482;
},
{
anchors = (
{
name = bottom;
pos = (708,0);
},
{
name = top;
pos = (711,1475);
}
);
layerId = "F6BDCC95-B00C-46EE-8A70-124DE74BF6E5";
shapes = (
{
closed = 1;
nodes = (
(961,-20,o),
(1065,124,o),
(1086,164,c),
(1095,0,l),
(1222,0,l),
(1222,697,l),
(707,697,l),
(707,554,l),
(1068,554,l),
(1068,399,l),
(1043,279,o),
(937,134,o),
(700,134,cs),
(461,134,o),
(273,323,o),
(273,736,cs),
(273,1140,o),
(470,1337,o),
(712,1337,cs),
(952,1337,o),
(1060,1158,o),
(1060,997,cs),
(1060,993,o),
(1060,989,o),
(1060,985,c),
(1226,985,l),
(1226,989,o),
(1226,993,o),
(1226,997,cs),
(1226,1196,o),
(1084,1493,o),
(712,1493,cs),
(367,1493,o),
(101,1211,o),
(101,736,cs),
(101,261,o),
(366,-20,o),
(696,-20,cs)
);
}
);
width = 1367;
},
{
anchors = (
{
name = bottom;
pos = (556,0);
},
{
name = top;
pos = (849,1475);
}
);
layerId = "2503C51C-5A6C-4B2C-A968-78FEA18C2585";
shapes = (
{
closed = 1;
nodes = (
(806,-17,o),
(972,120,o),
(1013,197,c),
(971,0,l),
(1003,0,l),
(1141,653,l),
(680,653,l),
(675,625,l),
(1105,625,l),
(1028,263,l),
(978,169,o),
(825,11,o),
(547,11,cs),
(309,11,o),
(169,216,o),
(169,504,cs),
(169,969,o),
(450,1459,o),
(871,1459,cs),
(1119,1459,o),
(1201,1290,o),
(1201,1121,cs),
(1201,1082,o),
(1195,1024,o),
(1187,993,c),
(1217,993,l),
(1224,1023,o),
(1232,1081,o),
(1232,1123,cs),
(1232,1302,o),
(1142,1488,o),
(871,1488,cs),
(426,1488,o),
(138,990,o),
(138,502,cs),
(138,191,o),
(292,-17,o),
(547,-17,cs)
);
}
);
width = 1294;
},
{
anchors = (
{
name = bottom;
pos = (587,0);
},
{
name = top;
pos = (876,1475);
}
);
layerId = "BEF1FBB1-ACEC-4AC1-9895-C09886024D55";
shapes = (
{
closed = 1;
nodes = (
(837,-20,o),
(961,124,o),
(990,164,c),
(964,0,l),
(1091,0,l),
(1240,697,l),
(725,697,l),
(694,554,l),
(1055,554,l),
(1030,431,l),
(980,311,o),
(835,134,o),
(598,134,cs),
(409,134,o),
(275,273,o),
(275,528,cs),
(275,923,o),
(494,1337,o),
(866,1337,cs),
(1068,1337,o),
(1149,1210,o),
(1149,1074,cs),
(1149,1051,o),
(1144,1006,o),
(1139,985,c),
(1305,985,l),
(1311,1007,o),
(1316,1055,o),
(1316,1087,cs),
(1316,1274,o),
(1199,1493,o),
(888,1493,cs),
(421,1493,o),
(104,1028,o),
(104,529,cs),
(104,193,o),
(299,-20,o),
(572,-20,cs)
);
}
);
width = 1350;
},
{
anchors = (
{
name = bottom;
pos = (664,0);
},
{
name = top;
pos = (942,1475);
}
);
layerId = "3FDD6C00-F7FD-4E85-84B0-0136AF7D7529";
shapes = (
{
closed = 1;
nodes = (
(898,-26,o),
(1031,103,o),
(1063,163,c),
(1069,0,l),
(1257,0,l),
(1421,769,l),
(818,769,l),
(758,490,l),
(1004,490,l),
(997,454,l),
(965,387,o),
(860,285,o),
(717,285,cs),
(610,285,o),
(508,340,o),
(508,551,cs),
(508,826,o),
(634,1188,o),
(914,1188,cs),
(1026,1188,o),
(1086,1118,o),
(1086,1033,cs),
(1086,1013,o),
(1082,990,o),
(1080,981,c),
(1472,981,l),
(1476,997,o),
(1481,1039,o),
(1481,1064,cs),
(1481,1254,o),
(1338,1500,o),
(950,1500,cs),
(429,1500,o),
(100,1074,o),
(100,539,cs),
(100,172,o),
(307,-26,o),
(621,-26,cs)
);
}
);
width = 1486;
}
);
metricLeft = O;
metricRight = H;
note = G;
unicode = 71;
},
{
glyphname = Gstroke;
kernLeft = O;
lastChange = "2022-02-09 18:02:24 +0000";
layers = (
{
layerId = "A1A0948C-E637-4A65-8CCC-05505AD98C44";
shapes = (
{
closed = 1;
nodes = (
(1221,354,l),
(1221,380,l),
(629,380,l),
(629,354,l)
);
},
{
closed = 1;
nodes = (
(893,-17,o),
(1035,120,o),
(1059,197,c),
(1059,0,l),
(1091,0,l),
(1091,653,l),
(630,653,l),
(630,625,l),
(1060,625,l),
(1060,256,l),
(1030,162,o),
(911,11,o),
(633,11,cs),
(331,11,o),
(146,308,o),
(146,738,cs),
(146,1168,o),
(341,1459,o),
(649,1459,cs),
(955,1459,o),
(1064,1201,o),
(1064,1005,c),
(1064,1001,o),
(1064,997,o),
(1064,993,c),
(1094,993,l),
(1094,997,o),
(1094,1001,o),
(1094,1005,c),
(1094,1209,o),
(981,1488,o),
(649,1488,cs),
(325,1488,o),
(115,1198,o),
(115,738,cs),
(115,278,o),
(315,-17,o),
(634,-17,cs)
);
}
);
width = 1264;
},
{
layerId = "584F9D0D-8480-40C6-ABEA-8DD6EE64252D";
shapes = (
{
closed = 1;
nodes = (
(1457,338,l),
(1457,547,l),
(748,547,l),
(748,338,l)
);
},
{
closed = 1;
nodes = (
(987,-26,o),
(1103,103,o),
(1122,163,c),
(1163,0,l),
(1351,0,l),
(1351,829,l),
(748,829,l),
(748,590,l),
(994,590,l),
(994,424,l),
(977,367,o),
(893,285,o),
(750,285,cs),
(617,285,o),
(475,349,o),
(475,732,cs),
(475,1093,o),
(622,1188,o),
(755,1188,cs),
(884,1188,o),
(965,1085,o),
(965,983,cs),
(965,979,o),
(965,975,o),
(965,971,c),
(1357,971,l),
(1357,975,o),
(1357,979,o),
(1357,983,cs),
(1357,1174,o),
(1194,1500,o),
(755,1500,cs),
(375,1500,o),
(70,1232,o),
(70,732,cs),
(70,232,o),
(335,-26,o),
(710,-26,cs)
);
}
);
width = 1449;
},
{
layerId = "F6BDCC95-B00C-46EE-8A70-124DE74BF6E5";
shapes = (
{
closed = 1;
nodes = (
(1324,326,l),
(1324,436,l),
(685,436,l),
(685,326,l)
);
},
{
closed = 1;
nodes = (
(941,-20,o),
(1045,124,o),
(1066,164,c),
(1075,0,l),
(1202,0,l),
(1202,697,l),
(687,697,l),
(687,554,l),
(1048,554,l),
(1048,399,l),
(1023,279,o),
(917,134,o),
(680,134,cs),
(441,134,o),
(273,323,o),
(273,736,cs),
(273,1140,o),
(450,1337,o),
(692,1337,cs),
(932,1337,o),
(1040,1158,o),
(1040,997,cs),
(1040,993,o),
(1040,989,o),
(1040,985,c),
(1206,985,l),
(1206,989,o),
(1206,993,o),
(1206,997,cs),
(1206,1196,o),
(1064,1493,o),
(692,1493,cs),
(347,1493,o),
(101,1211,o),
(101,736,cs),
(101,261,o),
(346,-20,o),
(676,-20,cs)
);
}
);
width = 1339;
},
{
layerId = "2503C51C-5A6C-4B2C-A968-78FEA18C2585";
shapes = (
{
closed = 1;
nodes = (
(1186,354,l),
(1191,380,l),
(599,380,l),
(594,354,l)
);
},
{
closed = 1;
nodes = (
(807,-17,o),
(950,120,o),
(991,197,c),
(949,0,l),
(981,0,l),
(1119,653,l),
(658,653,l),
(653,625,l),
(1083,625,l),
(1005,262,l),
(955,168,o),
(823,11,o),
(535,11,cs),
(292,11,o),
(172,203,o),
(172,503,cs),
(172,970,o),
(427,1459,o),
(849,1459,cs),
(1097,1459,o),
(1179,1290,o),
(1179,1121,cs),
(1179,1082,o),
(1173,1024,o),
(1165,993,c),
(1195,993,l),
(1203,1023,o),
(1210,1082,o),
(1210,1125,cs),
(1210,1303,o),
(1121,1488,o),
(851,1488,cs),
(408,1488,o),
(140,990,o),
(140,497,cs),
(140,178,o),
(276,-17,o),
(535,-17,cs)
);
}
);
width = 1228;
},
{
layerId = "BEF1FBB1-ACEC-4AC1-9895-C09886024D55";
shapes = (
{
closed = 1;
nodes = (
(1260,326,l),
(1283,436,l),
(644,436,l),
(621,326,l)
);
},
{
closed = 1;
nodes = (
(813,-20,o),
(938,124,o),
(967,164,c),
(941,0,l),
(1068,0,l),
(1217,697,l),
(702,697,l),
(671,554,l),
(1032,554,l),
(1003,409,l),
(953,289,o),
(812,134,o),
(575,134,cs),
(383,134,o),
(276,256,o),
(276,517,cs),
(276,922,o),
(468,1337,o),
(843,1337,cs),
(1045,1337,o),
(1126,1210,o),
(1126,1074,cs),
(1126,1051,o),
(1121,1006,o),
(1116,985,c),
(1282,985,l),
(1288,1009,o),
(1294,1058,o),
(1294,1092,cs),
(1294,1278,o),
(1182,1493,o),
(866,1493,cs),
(401,1493,o),
(104,1021,o),
(104,519,cs),
(104,177,o),
(272,-20,o),
(548,-20,cs)
);
}
);
width = 1286;
},
{
layerId = "3FDD6C00-F7FD-4E85-84B0-0136AF7D7529";
shapes = (
{
closed = 1;
nodes = (
(1418,338,l),
(1463,547,l),
(754,547,l),
(709,338,l)
);
},
{
closed = 1;
nodes = (
(881,-26,o),
(1014,103,o),
(1046,163,c),
(1052,0,l),
(1240,0,l),
(1417,829,l),
(814,829,l),
(763,590,l),
(1009,590,l),
(973,424,l),
(944,367,o),
(843,285,o),
(700,285,cs),
(595,285,o),
(499,325,o),
(499,532,cs),
(499,811,o),
(618,1188,o),
(897,1188,cs),
(1008,1188,o),
(1068,1111,o),
(1068,1025,cs),
(1068,1004,o),
(1063,980,o),
(1061,971,c),
(1453,971,l),
(1458,990,o),
(1463,1033,o),
(1463,1063,cs),
(1463,1253,o),
(1335,1500,o),
(953,1500,cs),
(439,1500,o),
(95,1057,o),
(95,517,cs),
(95,158,o),
(287,-26,o),
(604,-26,cs)
);
}
);
width = 1466;
}
);
metricLeft = O;
unicode = 484;
},
{
glyphname = H;
kernLeft = H;
kernRight = H;
lastChange = "2022-02-09 18:02:24 +0000";
layers = (
{
anchors = (
{
name = bottom;
pos = (596,0);
},
{
name = center;
pos = (596,738);
},
{
name = top;
pos = (596,1475);
},
{
name = topleft;
pos = (152,1475);
}
);
layerId = "A1A0948C-E637-4A65-8CCC-05505AD98C44";
shapes = (
{
closed = 1;
nodes = (
(990,1475,l),
(990,734,l),
(1004,748,l),
(191,748,l),
(205,734,l),
(205,1475,l),
(175,1475,l),
(175,0,l),
(205,0,l),
(205,733,l),
(191,719,l),
(1004,719,l),
(990,733,l),
(990,0,l),
(1020,0,l),
(1020,1475,l)
);
}
);
width = 1195;
},
{
anchors = (
{
name = bottom;
pos = (741,0);
},
{
name = center;
pos = (741,738);
},
{
name = top;
pos = (741,1475);
},
{
name = topleft;
pos = (43,1475);
}
);
layerId = "584F9D0D-8480-40C6-ABEA-8DD6EE64252D";
shapes = (
{
closed = 1;
nodes = (
(965,1475,l),
(965,790,l),
(1147,884,l),
(332,884,l),
(514,789,l),
(514,1475,l),
(110,1475,l),
(110,0,l),
(514,0,l),
(514,676,l),
(332,583,l),
(1147,583,l),
(965,682,l),
(965,0,l),
(1369,0,l),
(1369,1475,l)
);
}
);
width = 1479;
},
{
anchors = (
{
name = bottom;
pos = (641,0);
},
{
name = center;
pos = (641,738);
},
{
name = top;
pos = (641,1475);
},
{
name = topleft;
pos = (102,1475);
}
);
layerId = "F6BDCC95-B00C-46EE-8A70-124DE74BF6E5";
shapes = (
{
closed = 1;
nodes = (
(971,1475,l),
(971,721,l),
(1048,811,l),
(235,811,l),
(312,721,l),
(312,1475,l),
(141,1475,l),
(141,0,l),
(312,0,l),
(312,746,l),
(235,661,l),
(1048,661,l),
(971,746,l),
(971,0,l),
(1142,0,l),
(1142,1475,l)
);
}
);
width = 1283;
},
{
anchors = (
{
name = bottom;
pos = (482,0);
},
{
name = center;
pos = (639,738);
},
{
name = top;
pos = (796,1475);
},
{
name = topleft;
pos = (332,1475);
}
);
layerId = "2503C51C-5A6C-4B2C-A968-78FEA18C2585";
shapes = (
{
closed = 1;
nodes = (
(1191,1475,l),
(1033,734,l),
(1050,748,l),
(237,748,l),
(248,734,l),
(406,1475,l),
(376,1475,l),
(62,0,l),
(92,0,l),
(248,733,l),
(231,719,l),
(1044,719,l),
(1033,733,l),
(877,0,l),
(907,0,l),
(1221,1475,l)
);
}
);
width = 1195;
},
{
anchors = (
{
name = bottom;
pos = (528,0);
},
{
name = center;
pos = (685,738);
},
{
name = top;
pos = (842,1475);
},
{
name = topleft;
pos = (293,1475);
}
);
layerId = "BEF1FBB1-ACEC-4AC1-9895-C09886024D55";
shapes = (
{
closed = 1;
nodes = (
(1172,1475,l),
(1012,723,l),
(1105,811,l),
(291,811,l),
(352,723,l),
(513,1475,l),
(342,1475,l),
(28,0,l),
(199,0,l),
(357,745,l),
(264,661,l),
(1077,661,l),
(1017,745,l),
(858,0,l),
(1029,0,l),
(1343,1475,l)
);
}
);
width = 1283;
},
{
anchors = (
{
name = bottom;
pos = (630,0);
},
{
name = center;
pos = (787,738);
},
{
name = top;
pos = (944,1475);
},
{
name = topleft;
pos = (254,1475);
}
);
layerId = "3FDD6C00-F7FD-4E85-84B0-0136AF7D7529";
shapes = (
{
closed = 1;
nodes = (
(1166,1475,l),
(1002,706,l),
(1222,884,l),
(407,884,l),
(551,706,l),
(715,1475,l),
(311,1475,l),
(-3,0,l),
(401,0,l),
(563,761,l),
(343,583,l),
(1158,583,l),
(1014,761,l),
(852,0,l),
(1256,0,l),
(1570,1475,l)
);
}
);
width = 1479;
}
);
note = H;
unicode = 72;
},
{
glyphname = Hbar;
kernLeft = H;
kernRight = H;
lastChange = "2022-02-09 18:02:24 +0000";
layers = (
{
layerId = "A1A0948C-E637-4A65-8CCC-05505AD98C44";
shapes = (
{
closed = 1;
nodes = (
(1125,1143,l),
(1125,1169,l),
(69,1169,l),
(69,1143,l)
);
},
{
ref = H;
}
);
width = 1195;
},
{
layerId = "584F9D0D-8480-40C6-ABEA-8DD6EE64252D";
shapes = (
{
closed = 1;
nodes = (
(1445,1083,l),
(1445,1262,l),
(32,1262,l),
(32,1083,l)
);
},
{
ref = H;
}
);
width = 1479;
},
{
layerId = "F6BDCC95-B00C-46EE-8A70-124DE74BF6E5";
shapes = (
{
closed = 1;
nodes = (
(1236,1083,l),
(1236,1213,l),
(46,1213,l),
(46,1083,l)
);
},
{
alignment = -1;
ref = H;
}
);
width = 1283;
},
{
layerId = "2503C51C-5A6C-4B2C-A968-78FEA18C2585";
shapes = (
{
closed = 1;
nodes = (
(1257,1143,l),
(1263,1169,l),
(207,1169,l),
(201,1143,l)
);
},
{
ref = H;
}
);
width = 1195;
},
{
layerId = "BEF1FBB1-ACEC-4AC1-9895-C09886024D55";
shapes = (
{
closed = 1;
nodes = (
(1352,1083,l),
(1380,1213,l),
(190,1213,l),
(162,1083,l)
);
},
{
alignment = -1;
ref = H;
}
);
width = 1283;
},
{
layerId = "3FDD6C00-F7FD-4E85-84B0-0136AF7D7529";
shapes = (
{
closed = 1;
nodes = (
(1563,1083,l),
(1601,1262,l),
(188,1262,l),
(150,1083,l)
);
},
{
ref = H;
}
);
width = 1479;
}
);
unicode = 294;
},
{
glyphname = I;
kernLeft = H;
kernRight = H;
lastChange = "2022-02-09 18:02:24 +0000";
layers = (
{
anchors = (
{
name = bottom;
pos = (219,0);
},
{
name = ogonek;
pos = (235,0);
},
{
name = top;
pos = (220,1475);
},
{
name = topleft;
pos = (58,1475);
}
);
layerId = "A1A0948C-E637-4A65-8CCC-05505AD98C44";
shapes = (
{
closed = 1;
nodes = (
(235,0,l),
(235,1475,l),
(205,1475,l),
(205,0,l)
);
}
);
width = 440;
},
{
anchors = (
{
name = bottom;
pos = (305,0);
},
{
name = ogonek;
pos = (503,0);
},
{
name = top;
pos = (305,1475);
},
{
name = topleft;
pos = (-7,1475);
}
);
layerId = "584F9D0D-8480-40C6-ABEA-8DD6EE64252D";
shapes = (
{
closed = 1;
nodes = (
(503,0,l),
(503,1475,l),
(105,1475,l),
(105,0,l)
);
}
);
width = 608;
},
{
anchors = (
{
name = bottom;
pos = (232,0);
},
{
name = ogonek;
pos = (316,0);
},
{
name = top;
pos = (233,1475);
},
{
name = topleft;
pos = (14,1475);
}
);
layerId = "F6BDCC95-B00C-46EE-8A70-124DE74BF6E5";
shapes = (
{
closed = 1;
nodes = (
(316,0,l),
(316,1475,l),
(148,1475,l),
(148,0,l)
);
}
);
width = 464;
},
{
anchors = (
{
name = bottom;
pos = (103,0);
},
{
name = ogonek;
pos = (119,0);
},
{
name = top;
pos = (418,1475);
},
{
name = topleft;
pos = (256,1475);
}
);
layerId = "2503C51C-5A6C-4B2C-A968-78FEA18C2585";
shapes = (
{
closed = 1;
nodes = (
(119,0,l),
(432,1475,l),
(401,1475,l),
(88,0,l)
);
}
);
width = 440;
},
{
anchors = (
{
name = bottom;
pos = (116,0);
},
{
name = ogonek;
pos = (202,0);
},
{
name = top;
pos = (431,1475);
},
{
name = topleft;
pos = (214,1475);
}
);
layerId = "BEF1FBB1-ACEC-4AC1-9895-C09886024D55";
shapes = (
{
closed = 1;
nodes = (
(202,0,l),
(514,1475,l),
(345,1475,l),
(32,0,l)
);
}
);
width = 464;
},
{
anchors = (
{
name = bottom;
pos = (192,0);
},
{
name = ogonek;
pos = (394,0);
},
{
name = top;
pos = (506,1475);
},
{
name = topleft;
pos = (198,1475);
}
);
layerId = "3FDD6C00-F7FD-4E85-84B0-0136AF7D7529";
shapes = (
{
closed = 1;
nodes = (
(394,0,l),
(708,1475,l),
(304,1475,l),
(-10,0,l)
);
}
);
width = 614;
}
);
note = I;
unicode = 73;
},
{
color = 3;
glyphname = I.ss01;
kernLeft = H;
kernRight = H;
lastChange = "2022-02-09 18:02:24 +0000";
layers = (
{
anchors = (
{
name = bottom;
pos = (502,0);
},
{
name = ogonek;
pos = (848,0);
},
{
name = top;
pos = (502,1475);
},
{
name = topleft;
pos = (155,1475);
}
);
layerId = "A1A0948C-E637-4A65-8CCC-05505AD98C44";
shapes = (
{
closed = 1;
nodes = (
(848,0,l),
(848,28,l),
(503,28,l),
(517,14,l),
(517,1461,l),
(503,1447,l),
(848,1447,l),
(848,1475,l),
(155,1475,l),
(155,1447,l),
(500,1447,l),
(486,1461,l),
(486,14,l),
(500,28,l),
(155,28,l),
(155,0,l)
);
}
);
width = 1003;
},
{
anchors = (
{
name = bottom;
pos = (577,0);
},
{
name = ogonek;
pos = (1074,0);
},
{
name = top;
pos = (577,1475);
},
{
name = topleft;
pos = (80,1475);
}
);
layerId = "584F9D0D-8480-40C6-ABEA-8DD6EE64252D";
shapes = (
{
closed = 1;
nodes = (
(1074,0,l),
(1074,300,l),
(596,300,l),
(778,118,l),
(778,1357,l),
(596,1175,l),
(1074,1175,l),
(1074,1475,l),
(80,1475,l),
(80,1175,l),
(557,1175,l),
(375,1357,l),
(375,118,l),
(557,300,l),
(80,300,l),
(80,0,l)
);
}
);
width = 1154;
},
{
anchors = (
{
name = bottom;
pos = (521,0);
},
{
name = ogonek;
pos = (923,0);
},
{
name = top;
pos = (521,1475);
},
{
name = topleft;
pos = (118,1475);
}
);
layerId = "F6BDCC95-B00C-46EE-8A70-124DE74BF6E5";
shapes = (
{
closed = 1;
nodes = (
(923,0,l),
(923,150,l),
(529,150,l),
(606,73,l),
(606,1402,l),
(529,1325,l),
(923,1325,l),
(923,1475,l),
(118,1475,l),
(118,1325,l),
(512,1325,l),
(435,1402,l),
(435,73,l),
(512,150,l),
(118,150,l),
(118,0,l)
);
}
);
width = 1041;
},
{
anchors = (
{
name = bottom;
pos = (389,0);
},
{
name = ogonek;
pos = (734,0);
},
{
name = top;
pos = (703,1475);
},
{
name = topleft;
pos = (355,1475);
}
);
layerId = "2503C51C-5A6C-4B2C-A968-78FEA18C2585";
shapes = (
{
closed = 1;
nodes = (
(735,0,l),
(741,28,l),
(396,28,l),
(407,14,l),
(715,1461,l),
(698,1447,l),
(1043,1447,l),
(1049,1475,l),
(356,1475,l),
(350,1447,l),
(695,1447,l),
(684,1461,l),
(376,14,l),
(393,28,l),
(48,28,l),
(42,0,l)
);
}
);
width = 1003;
},
{
anchors = (
{
name = bottom;
pos = (408,0);
},
{
name = ogonek;
pos = (809,0);
},
{
name = top;
pos = (722,1475);
},
{
name = topleft;
pos = (318,1475);
}
);
layerId = "BEF1FBB1-ACEC-4AC1-9895-C09886024D55";
shapes = (
{
closed = 1;
nodes = (
(806,0,l),
(838,150,l),
(444,150,l),
(505,73,l),
(787,1402,l),
(694,1325,l),
(1088,1325,l),
(1120,1475,l),
(315,1475,l),
(283,1325,l),
(677,1325,l),
(616,1402,l),
(334,73,l),
(427,150,l),
(33,150,l),
(1,0,l)
);
}
);
width = 1041;
},
{
anchors = (
{
name = bottom;
pos = (464,0);
},
{
name = ogonek;
pos = (960,0);
},
{
name = top;
pos = (778,1475);
},
{
name = topleft;
pos = (280,1475);
}
);
layerId = "3FDD6C00-F7FD-4E85-84B0-0136AF7D7529";
shapes = (
{
closed = 1;
nodes = (
(959,0,l),
(1023,300,l),
(545,300,l),
(688,118,l),
(952,1357,l),
(731,1175,l),
(1209,1175,l),
(1273,1475,l),
(279,1475,l),
(215,1175,l),
(692,1175,l),
(549,1357,l),
(285,118,l),
(506,300,l),
(29,300,l),
(-35,0,l)
);
}
);
width = 1154;
}
);
},
{
glyphname = J;
kernLeft = J;
kernRight = H;
lastChange = "2022-02-09 18:02:24 +0000";
layers = (
{
anchors = (
{
name = bottom;
pos = (490,-16);
},
{
name = top;
pos = (840,1475);
}
);
layerId = "A1A0948C-E637-4A65-8CCC-05505AD98C44";
shapes = (
{
closed = 1;
nodes = (
(736,-17,o),
(855,171,o),
(855,463,cs),
(855,1475,l),
(825,1475,l),
(825,463,ls),
(825,186,o),
(713,11,o),
(487,11,cs),
(257,11,o),
(151,189,o),
(151,452,cs),
(151,466,o),
(151,480,o),
(151,494,c),
(122,494,l),
(122,478,o),
(122,462,o),
(122,446,cs),
(122,166,o),
(241,-17,o),
(487,-17,cs)
);
}
);
width = 1030;
},
{
anchors = (
{
name = bottom;
pos = (579,-26);
},
{
name = top;
pos = (907,1475);
}
);
layerId = "584F9D0D-8480-40C6-ABEA-8DD6EE64252D";
shapes = (
{
closed = 1;
nodes = (
(1006,-26,o),
(1112,219,o),
(1112,493,cs),
(1112,1475,l),
(709,1475,l),
(709,551,ls),
(709,418,o),
(704,285,o),
(579,285,cs),
(456,285,o),
(441,418,o),
(441,527,cs),
(441,540,o),
(441,557,o),
(441,567,c),
(40,567,l),
(40,542,o),
(40,517,o),
(40,492,cs),
(40,185,o),
(179,-26,o),
(579,-26,cs)
);
}
);
width = 1222;
},
{
anchors = (
{
name = bottom;
pos = (514,-20);
},
{
name = top;
pos = (856,1475);
}
);
layerId = "F6BDCC95-B00C-46EE-8A70-124DE74BF6E5";
shapes = (
{
closed = 1;
nodes = (
(828,-20,o),
(942,189,o),
(942,474,cs),
(942,1475,l),
(772,1475,l),
(772,496,ls),
(772,273,o),
(700,134,o),
(512,134,cs),
(322,134,o),
(250,275,o),
(250,480,cs),
(250,494,o),
(250,509,o),
(250,521,c),
(82,521,l),
(82,502,o),
(82,483,o),
(82,463,cs),
(82,173,o),
(208,-20,o),
(512,-20,cs)
);
}
);
width = 1083;
},
{
anchors = (
{
name = bottom;
pos = (385,0);
},
{
name = top;
pos = (1041,1475);
}
);
layerId = "2503C51C-5A6C-4B2C-A968-78FEA18C2585";
shapes = (
{
closed = 1;
nodes = (
(627,-17,o),
(779,171,o),
(841,463,cs),
(1056,1475,l),
(1026,1475,l),
(811,463,ls),
(752,186,o),
(606,11,o),
(380,11,cs),
(200,11,o),
(117,121,o),
(117,294,cs),
(117,356,o),
(127,417,o),
(144,494,c),
(115,494,l),
(101,436,o),
(87,352,o),
(87,290,cs),
(87,101,o),
(181,-17,o),
(378,-17,cs)
);
}
);
width = 1030;
},
{
anchors = (
{
name = bottom;
pos = (418,0);
},
{
name = top;
pos = (1062,1475);
}
);
layerId = "BEF1FBB1-ACEC-4AC1-9895-C09886024D55";
shapes = (
{
closed = 1;
nodes = (
(728,-20,o),
(872,189,o),
(932,474,cs),
(1143,1475,l),
(973,1475,l),
(765,496,ls),
(715,262,o),
(614,133,o),
(430,133,cs),
(285,133,o),
(223,200,o),
(223,335,cs),
(223,397,o),
(235,459,o),
(249,521,c),
(81,521,l),
(65,458,o),
(49,376,o),
(49,307,cs),
(49,108,o),
(167,-20,o),
(412,-20,cs)
);
}
);
width = 1085;
},
{
anchors = (
{
name = bottom;
pos = (504,0);
},
{
name = top;
pos = (1123,1475);
}
);
layerId = "3FDD6C00-F7FD-4E85-84B0-0136AF7D7529";
shapes = (
{
closed = 1;
nodes = (
(921,-26,o),
(1047,219,o),
(1105,493,cs),
(1313,1475,l),
(910,1475,l),
(714,551,ls),
(680,389,o),
(652,285,o),
(539,285,cs),
(451,285,o),
(424,332,o),
(424,402,cs),
(424,464,o),
(440,530,o),
(449,567,c),
(48,567,l),
(30,495,o),
(11,417,o),
(11,334,cs),
(11,119,o),
(168,-26,o),
(494,-26,cs)
);
}
);
width = 1223;
}
);
metricRight = H;
note = J;
unicode = 74;
},
{
glyphname = K;
kernLeft = H;
kernRight = K;
lastChange = "2022-02-09 18:02:24 +0000";
layers = (
{
anchors = (
{
name = bottom;
pos = (556,0);
},
{
name = top;
pos = (510,1475);
}
);
layerId = "A1A0948C-E637-4A65-8CCC-05505AD98C44";
shapes = (
{
closed = 1;
nodes = (
(899,1475,l),
(862,1475,l),
(198,621,l),
(206,619,l),
(206,1475,l),
(175,1475,l),
(175,0,l),
(206,0,l),
(206,601,l),
(196,575,l),
(356,774,l),
(339,776,l),
(912,0,l),
(949,0,l),
(359,804,l),
(360,778,l)
);
}
);
width = 1054;
},
{
anchors = (
{
name = bottom;
pos = (707,0);
},
{
name = top;
pos = (707,1475);
}
);
layerId = "584F9D0D-8480-40C6-ABEA-8DD6EE64252D";
shapes = (
{
closed = 1;
nodes = (
(1359,1475,l),
(936,1475,l),
(439,769,l),
(513,739,l),
(513,1475,l),
(110,1475,l),
(110,0,l),
(513,0,l),
(513,555,l),
(481,304,l),
(750,671,l),
(577,695,l),
(947,0,l),
(1385,0,l),
(795,1003,l),
(783,695,l)
);
}
);
width = 1420;
},
{
anchors = (
{
name = bottom;
pos = (603,0);
},
{
name = top;
pos = (616,1475);
}
);
layerId = "F6BDCC95-B00C-46EE-8A70-124DE74BF6E5";
shapes = (
{
closed = 1;
nodes = (
(1067,1475,l),
(880,1475,l),
(278,700,l),
(312,664,l),
(312,1475,l),
(141,1475,l),
(141,0,l),
(312,0,l),
(312,584,l),
(294,473,l),
(494,735,l),
(406,746,l),
(910,0,l),
(1103,0,l),
(513,879,l),
(509,747,l)
);
}
);
width = 1173;
},
{
anchors = (
{
name = bottom;
pos = (418,0);
},
{
name = top;
pos = (772,1475);
}
);
layerId = "2503C51C-5A6C-4B2C-A968-78FEA18C2585";
shapes = (
{
closed = 1;
nodes = (
(1084,1475,l),
(1047,1475,l),
(211,621,l),
(226,619,l),
(408,1475,l),
(376,1475,l),
(64,0,l),
(95,0,l),
(222,601,l),
(209,575,l),
(405,774,l),
(391,776,l),
(782,0,l),
(818,0,l),
(414,804,l),
(412,778,l)
);
}
);
width = 1036;
},
{
anchors = (
{
name = bottom;
pos = (485,0);
},
{
name = top;
pos = (832,1475);
}
);
layerId = "BEF1FBB1-ACEC-4AC1-9895-C09886024D55";
shapes = (
{
closed = 1;
nodes = (
(1268,1475,l),
(1068,1475,l),
(301,700,l),
(340,664,l),
(513,1475,l),
(342,1475,l),
(28,0,l),
(199,0,l),
(323,584,l),
(282,473,l),
(537,735,l),
(462,746,l),
(807,0,l),
(990,0,l),
(587,879,l),
(555,747,l)
);
}
);
width = 1162;
},
{
anchors = (
{
name = bottom;
pos = (619,0);
},
{
name = top;
pos = (953,1475);
}
);
layerId = "3FDD6C00-F7FD-4E85-84B0-0136AF7D7529";
shapes = (
{
closed = 1;
nodes = (
(1549,1475,l),
(1117,1475,l),
(463,769,l),
(557,739,l),
(715,1475,l),
(311,1475,l),
(-1,0,l),
(402,0,l),
(519,555,l),
(443,304,l),
(784,671,l),
(637,695,l),
(832,0,l),
(1253,0,l),
(886,1003,l),
(821,695,l)
);
}
);
width = 1420;
}
);
metricLeft = H;
note = K;
unicode = 75;
},
{
glyphname = L;
kernLeft = H;
kernRight = L;
lastChange = "2022-02-09 18:02:24 +0000";
layers = (
{
anchors = (
{
name = bottom;
pos = (526,0);
},
{
name = center;
pos = (192,738);
},
{
name = top;
pos = (190,1475);
},
{
name = topright;
pos = (631,974);
}
);
layerId = "A1A0948C-E637-4A65-8CCC-05505AD98C44";
shapes = (
{
closed = 1;
nodes = (
(821,0,l),
(821,28,l),
(191,28,l),
(205,14,l),
(205,1475,l),
(175,1475,l),
(175,0,l)
);
}
);
width = 936;
},
{
anchors = (
{
name = bottom;
pos = (588,0);
},
{
name = center;
pos = (332,738);
},
{
name = top;
pos = (309,1475);
},
{
name = topright;
pos = (715,974);
}
);
layerId = "584F9D0D-8480-40C6-ABEA-8DD6EE64252D";
shapes = (
{
closed = 1;
nodes = (
(1040,0,l),
(1040,321,l),
(332,321,l),
(514,119,l),
(514,1475,l),
(110,1475,l),
(110,0,l)
);
}
);
width = 1105;
},
{
anchors = (
{
name = bottom;
pos = (540,0);
},
{
name = center;
pos = (235,738);
},
{
name = top;
pos = (225,1475);
},
{
name = topright;
pos = (656,974);
}
);
layerId = "F6BDCC95-B00C-46EE-8A70-124DE74BF6E5";
shapes = (
{
closed = 1;
nodes = (
(894,0,l),
(894,150,l),
(235,150,l),
(312,53,l),
(312,1475,l),
(141,1475,l),
(141,0,l)
);
}
);
width = 981;
},
{
anchors = (
{
name = bottom;
pos = (417,0);
},
{
name = center;
pos = (240,738);
},
{
name = top;
pos = (406,1475);
},
{
name = topright;
pos = (671,974);
}
);
layerId = "2503C51C-5A6C-4B2C-A968-78FEA18C2585";
shapes = (
{
closed = 1;
nodes = (
(709,0,l),
(716,28,l),
(84,28,l),
(95,14,l),
(406,1475,l),
(376,1475,l),
(63,0,l)
);
}
);
width = 936;
},
{
anchors = (
{
name = bottom;
pos = (430,0);
},
{
name = center;
pos = (271,738);
},
{
name = top;
pos = (433,1475);
},
{
name = topright;
pos = (725,974);
}
);
layerId = "BEF1FBB1-ACEC-4AC1-9895-C09886024D55";
shapes = (
{
closed = 1;
nodes = (
(781,0,l),
(813,150,l),
(154,150,l),
(211,53,l),
(513,1475,l),
(342,1475,l),
(28,0,l)
);
}
);
width = 980;
},
{
anchors = (
{
name = bottom;
pos = (479,0);
},
{
name = center;
pos = (350,738);
},
{
name = top;
pos = (505,1475);
},
{
name = topright;
pos = (796,974);
}
);
layerId = "3FDD6C00-F7FD-4E85-84B0-0136AF7D7529";
shapes = (
{
closed = 1;
nodes = (
(927,0,l),
(995,321,l),
(287,321,l),
(427,119,l),
(715,1475,l),
(311,1475,l),
(-3,0,l)
);
}
);
width = 1105;
}
);
metricLeft = H;
note = L;
unicode = 76;
},
{
glyphname = Lslash;
kernLeft = H;
kernRight = L;
lastChange = "2022-02-09 18:02:24 +0000";
layers = (
{
layerId = "A1A0948C-E637-4A65-8CCC-05505AD98C44";
shapes = (
{
closed = 1;
nodes = (
(441,911,l),
(15,437,l),
(38,417,l),
(464,892,l)
);
},
{
ref = L;
}
);
width = 936;
},
{
layerId = "584F9D0D-8480-40C6-ABEA-8DD6EE64252D";
shapes = (
{
closed = 1;
nodes = (
(874,1045,l),
(-22,643,l),
(108,365,l),
(1004,767,l)
);
},
{
pos = (147,0);
ref = L;
}
);
width = 1252;
},
{
layerId = "F6BDCC95-B00C-46EE-8A70-124DE74BF6E5";
shapes = (
{
closed = 1;
nodes = (
(594,961,l),
(-8,514,l),
(55,398,l),
(657,845,l)
);
},
{
alignment = -1;
pos = (55,0);
ref = L;
}
);
width = 1036;
},
{
layerId = "2503C51C-5A6C-4B2C-A968-78FEA18C2585";
shapes = (
{
closed = 1;
nodes = (
(544,911,l),
(-5,437,l),
(13,417,l),
(562,892,l)
);
},
{
ref = L;
}
);
width = 936;
},
{
layerId = "BEF1FBB1-ACEC-4AC1-9895-C09886024D55";
shapes = (
{
closed = 1;
nodes = (
(693,961,l),
(-13,514,l),
(30,398,l),
(734,845,l)
);
},
{
alignment = -1;
pos = (63,0);
ref = L;
}
);
width = 1043;
},
{
layerId = "3FDD6C00-F7FD-4E85-84B0-0136AF7D7529";
shapes = (
{
closed = 1;
nodes = (
(965,1045,l),
(0,643,l),
(83,365,l),
(1045,767,l)
);
},
{
pos = (169,0);
ref = L;
}
);
width = 1274;
}
);
metricRight = L;
unicode = 321;
},
{
glyphname = M;
kernLeft = H;
kernRight = H;
lastChange = "2022-02-09 18:02:24 +0000";
layers = (
{
anchors = (
{
name = bottom;
pos = (717,0);
},
{
name = top;
pos = (718,1475);
}
);
layerId = "A1A0948C-E637-4A65-8CCC-05505AD98C44";
shapes = (
{
closed = 1;
nodes = (
(721,12,l),
(729,12,l),
(243,1475,l),
(195,1475,l),
(195,0,l),
(225,0,l),
(225,1450,l),
(221,1449,l),
(698,0,l),
(751,0,l),
(1230,1449,l),
(1226,1450,l),
(1226,0,l),
(1256,0,l),
(1256,1475,l),
(1208,1475,l)
);
}
);
width = 1451;
},
{
anchors = (
{
name = bottom;
pos = (991,0);
},
{
name = top;
pos = (991,1475);
}
);
layerId = "584F9D0D-8480-40C6-ABEA-8DD6EE64252D";
shapes = (
{
closed = 1;
nodes = (
(964,154,l),
(1005,154,l),
(799,1475,l),
(120,1475,l),
(120,0,l),
(504,0,l),
(504,1263,l),
(497,1259,l),
(733,0,l),
(1247,0,l),
(1476,1256,l),
(1469,1260,l),
(1469,0,l),
(1852,0,l),
(1852,1475,l),
(1173,1475,l)
);
}
);
width = 1972;
},
{
anchors = (
{
name = bottom;
pos = (810,0);
},
{
name = top;
pos = (810,1475);
}
);
layerId = "F6BDCC95-B00C-46EE-8A70-124DE74BF6E5";
shapes = (
{
closed = 1;
nodes = (
(812,137,l),
(814,137,l),
(452,1475,l),
(158,1475,l),
(158,0,l),
(320,0,l),
(320,1340,l),
(315,1338,l),
(693,0,l),
(937,0,l),
(1313,1337,l),
(1308,1339,l),
(1308,0,l),
(1470,0,l),
(1470,1475,l),
(1176,1475,l)
);
}
);
width = 1628;
},
{
anchors = (
{
name = bottom;
pos = (650,0);
},
{
name = top;
pos = (901,1475);
}
);
layerId = "2503C51C-5A6C-4B2C-A968-78FEA18C2585";
shapes = (
{
closed = 1;
nodes = (
(607,11,l),
(615,11,l),
(450,1475,l),
(403,1475,l),
(89,0,l),
(120,0,l),
(425,1433,l),
(421,1433,l),
(585,0,l),
(637,0,l),
(1412,1431,l),
(1408,1433,l),
(1103,0,l),
(1134,0,l),
(1448,1475,l),
(1399,1475,l)
);
}
);
width = 1451;
},
{
anchors = (
{
name = bottom;
pos = (736,0);
},
{
name = top;
pos = (1008,1475);
}
);
layerId = "BEF1FBB1-ACEC-4AC1-9895-C09886024D55";
shapes = (
{
closed = 1;
nodes = (
(722,137,l),
(724,137,l),
(647,1475,l),
(358,1475,l),
(44,0,l),
(206,0,l),
(491,1340,l),
(486,1338,l),
(579,0,l),
(823,0,l),
(1483,1337,l),
(1479,1339,l),
(1194,0,l),
(1356,0,l),
(1670,1475,l),
(1371,1475,l)
);
}
);
width = 1628;
},
{
anchors = (
{
name = bottom;
pos = (903,0);
},
{
name = top;
pos = (1190,1475);
}
);
layerId = "3FDD6C00-F7FD-4E85-84B0-0136AF7D7529";
shapes = (
{
closed = 1;
nodes = (
(882,154,l),
(923,154,l),
(992,1475,l),
(321,1475,l),
(7,0,l),
(391,0,l),
(660,1263,l),
(652,1259,l),
(620,0,l),
(1134,0,l),
(1630,1256,l),
(1624,1260,l),
(1356,0,l),
(1739,0,l),
(2053,1475,l),
(1366,1475,l)
);
}
);
width = 1972;
}
);
note = M;
unicode = 77;
},
{
glyphname = N;
kernLeft = H;
kernRight = H;
lastChange = "2022-02-09 18:02:24 +0000";
layers = (
{
anchors = (
{
name = bottom;
pos = (620,0);
},
{
name = top;
pos = (620,1475);
}
);
layerId = "A1A0948C-E637-4A65-8CCC-05505AD98C44";
shapes = (
{
closed = 1;
nodes = (
(205,1456,l),
(200,1454,l),
(1014,0,l),
(1064,0,l),
(1064,1475,l),
(1034,1475,l),
(1034,17,l),
(1040,20,l),
(223,1475,l),
(175,1475,l),
(175,0,l),
(205,0,l)
);
}
);
width = 1239;
},
{
anchors = (
{
name = bottom;
pos = (802,0);
},
{
name = top;
pos = (802,1475);
}
);
layerId = "584F9D0D-8480-40C6-ABEA-8DD6EE64252D";
shapes = (
{
closed = 1;
nodes = (
(503,1365,l),
(420,1349,l),
(827,0,l),
(1448,0,l),
(1448,1475,l),
(1055,1475,l),
(1055,105,l),
(1133,121,l),
(726,1475,l),
(110,1475,l),
(110,0,l),
(503,0,l)
);
}
);
width = 1558;
},
{
anchors = (
{
name = bottom;
pos = (679,0);
},
{
name = top;
pos = (679,1475);
}
);
layerId = "F6BDCC95-B00C-46EE-8A70-124DE74BF6E5";
shapes = (
{
closed = 1;
nodes = (
(307,1382,l),
(292,1375,l),
(916,0,l),
(1199,0,l),
(1199,1475,l),
(1033,1475,l),
(1033,90,l),
(1046,98,l),
(420,1475,l),
(141,1475,l),
(141,0,l),
(307,0,l)
);
}
);
width = 1340;
},
{
anchors = (
{
name = bottom;
pos = (519,0);
},
{
name = top;
pos = (833,1475);
}
);
layerId = "2503C51C-5A6C-4B2C-A968-78FEA18C2585";
shapes = (
{
closed = 1;
nodes = (
(402,1456,l),
(400,1454,l),
(901,0,l),
(951,0,l),
(1265,1475,l),
(1235,1475,l),
(925,17,l),
(927,20,l),
(424,1475,l),
(376,1475,l),
(62,0,l),
(92,0,l)
);
}
);
width = 1239;
},
{
anchors = (
{
name = bottom;
pos = (576,0);
},
{
name = top;
pos = (890,1475);
}
);
layerId = "BEF1FBB1-ACEC-4AC1-9895-C09886024D55";
shapes = (
{
closed = 1;
nodes = (
(488,1382,l),
(472,1375,l),
(803,0,l),
(1086,0,l),
(1400,1475,l),
(1234,1475,l),
(939,90,l),
(954,98,l),
(621,1475,l),
(342,1475,l),
(28,0,l),
(194,0,l)
);
}
);
width = 1340;
},
{
anchors = (
{
name = bottom;
pos = (696,0);
},
{
name = top;
pos = (1010,1475);
}
);
layerId = "3FDD6C00-F7FD-4E85-84B0-0136AF7D7529";
shapes = (
{
closed = 1;
nodes = (
(680,1365,l),
(647,1349,l),
(674,0,l),
(1335,0,l),
(1649,1475,l),
(1256,1475,l),
(965,105,l),
(993,121,l),
(967,1475,l),
(311,1475,l),
(-3,0,l),
(390,0,l)
);
}
);
width = 1558;
}
);
metricLeft = H;
metricRight = H;
note = N;
unicode = 78;
},
{
glyphname = Nhookleft;
kernLeft = H;
kernRight = H;
lastChange = "2022-02-09 18:02:24 +0000";
layers = (
{
anchors = (
{
name = bottom;
pos = (620,0);
},
{
name = top;
pos = (620,1475);
}
);
layerId = "A1A0948C-E637-4A65-8CCC-05505AD98C44";
shapes = (
{
closed = 1;
nodes = (
(170,-465,o),
(205,-255,o),
(205,-96,cs),
(205,1459,l),
(198,1457,l),
(1014,0,l),
(1064,0,l),
(1064,1475,l),
(1034,1475,l),
(1034,17,l),
(1041,19,l),
(223,1475,l),
(175,1475,l),
(175,-96,ls),
(175,-224,o),
(152,-437,o),
(-80,-437,c),
(-80,-465,l)
);
}
);
width = 1239;
},
{
anchors = (
{
name = bottom;
pos = (802,0);
},
{
name = top;
pos = (802,1475);
}
);
layerId = "584F9D0D-8480-40C6-ABEA-8DD6EE64252D";
shapes = (
{
closed = 1;
nodes = (
(459,-453,o),
(503,-234,o),
(503,-15,cs),
(503,1270,l),
(454,1263,l),
(807,0,l),
(1448,0,l),
(1448,1475,l),
(1055,1475,l),
(1055,183,l),
(1104,190,l),
(746,1475,l),
(110,1475,l),
(110,-15,ls),
(110,-142,o),
(35,-173,o),
(-60,-179,c),
(-60,-465,l)
);
}
);
width = 1558;
},
{
anchors = (
{
name = bottom;
pos = (679,0);
},
{
name = top;
pos = (679,1475);
}
);
layerId = "F6BDCC95-B00C-46EE-8A70-124DE74BF6E5";
shapes = (
{
closed = 1;
nodes = (
(269,-461,o),
(307,-247,o),
(307,-66,cs),
(307,1368,l),
(295,1364,l),
(917,0,l),
(1199,0,l),
(1199,1475,l),
(1033,1475,l),
(1033,99,l),
(1045,103,l),
(420,1475,l),
(141,1475,l),
(141,-66,ls),
(141,-193,o),
(99,-338,o),
(-82,-340,c),
(-82,-465,l)
);
}
);
width = 1340;
},
{
anchors = (
{
name = bottom;
pos = (519,0);
},
{
name = top;
pos = (833,1475);
}
);
layerId = "2503C51C-5A6C-4B2C-A968-78FEA18C2585";
shapes = (
{
closed = 1;
nodes = (
(-44,-437,o),
(35,-268,o),
(71,-98,cs),
(404,1465,l),
(396,1464,l),
(901,0,l),
(951,0,l),
(1265,1475,l),
(1235,1475,l),
(923,8,l),
(931,9,l),
(424,1475,l),
(376,1475,l),
(41,-96,ls),
(13,-225,o),
(-56,-409,o),
(-281,-409,c),
(-285,-437,l)
);
}
);
width = 1239;
},
{
anchors = (
{
name = bottom;
pos = (576,0);
},
{
name = top;
pos = (890,1475);
}
);
layerId = "BEF1FBB1-ACEC-4AC1-9895-C09886024D55";
shapes = (
{
closed = 1;
nodes = (
(59,-461,o),
(142,-247,o),
(181,-66,cs),
(485,1368,l),
(473,1364,l),
(805,0,l),
(1087,0,l),
(1400,1475,l),
(1234,1475,l),
(942,99,l),
(955,103,l),
(621,1475,l),
(342,1475,l),
(15,-66,ls),
(-12,-193,o),
(-85,-338,o),
(-267,-340,c),
(-293,-465,l)
);
}
);
width = 1341;
},
{
anchors = (
{
name = bottom;
pos = (696,0);
},
{
name = top;
pos = (1010,1475);
}
);
layerId = "3FDD6C00-F7FD-4E85-84B0-0136AF7D7529";
shapes = (
{
closed = 1;
nodes = (
(206,-467,o),
(326,-301,o),
(383,-33,cs),
(686,1391,l),
(647,1395,l),
(654,0,l),
(1335,0,l),
(1649,1475,l),
(1256,1475,l),
(954,56,l),
(993,52,l),
(987,1475,l),
(311,1475,l),
(-4,-5,ls),
(-27,-120,o),
(-89,-187,o),
(-219,-187,c),
(-275,-467,l)
);
}
);
width = 1558;
}
);
metricRight = N;
unicode = 413;
},
{
glyphname = Eng;
kernLeft = H;
kernRight = H;
lastChange = "2022-02-09 18:02:24 +0000";
layers = (
{
layerId = "A1A0948C-E637-4A65-8CCC-05505AD98C44";
shapes = (
{
closed = 1;
nodes = (
(1028,-457,o),
(1064,-255,o),
(1064,-96,cs),
(1064,1475,l),
(1034,1475,l),
(1034,17,l),
(1041,19,l),
(223,1475,l),
(175,1475,l),
(175,0,l),
(205,0,l),
(205,1459,l),
(198,1457,l),
(1014,0,l),
(1033,0,l),
(1033,-96,ls),
(1033,-224,o),
(1010,-429,o),
(778,-429,cs),
(737,-429,o),
(698,-422,o),
(680,-416,c),
(680,-444,l),
(696,-450,o),
(733,-457,o),
(778,-457,cs)
);
}
);
width = 1239;
},
{
layerId = "584F9D0D-8480-40C6-ABEA-8DD6EE64252D";
shapes = (
{
closed = 1;
nodes = (
(1244,-456,o),
(1448,-363,o),
(1448,-19,cs),
(1448,1475,l),
(1055,1475,l),
(1055,183,l),
(1104,190,l),
(746,1475,l),
(110,1475,l),
(110,0,l),
(503,0,l),
(503,1270,l),
(454,1263,l),
(807,0,l),
(1050,0,l),
(1050,-28,ls),
(1050,-146,o),
(931,-169,o),
(814,-169,cs),
(775,-169,o),
(714,-162,o),
(696,-156,c),
(696,-446,l),
(711,-449,o),
(767,-456,o),
(811,-456,cs)
);
}
);
width = 1558;
},
{
layerId = "F6BDCC95-B00C-46EE-8A70-124DE74BF6E5";
shapes = (
{
closed = 1;
nodes = (
(1100,-457,o),
(1199,-296,o),
(1199,-67,cs),
(1199,1475,l),
(1033,1475,l),
(1033,109,l),
(1055,113,l),
(410,1475,l),
(141,1475,l),
(141,0,l),
(307,0,l),
(307,1358,l),
(295,1354,l),
(937,0,l),
(1030,0,l),
(1030,-71,ls),
(1030,-195,o),
(971,-332,o),
(782,-332,cs),
(742,-332,o),
(695,-325,o),
(677,-319,c),
(677,-445,l),
(692,-450,o),
(736,-457,o),
(781,-457,cs)
);
}
);
width = 1340;
},
{
layerId = "2503C51C-5A6C-4B2C-A968-78FEA18C2585";
shapes = (
{
closed = 1;
nodes = (
(822,-457,o),
(897,-255,o),
(931,-96,cs),
(1265,1475,l),
(1235,1475,l),
(923,8,l),
(931,9,l),
(424,1475,l),
(376,1475,l),
(62,0,l),
(92,0,l),
(404,1465,l),
(396,1464,l),
(901,0,l),
(921,0,l),
(900,-96,ls),
(872,-224,o),
(806,-429,o),
(574,-429,cs),
(533,-429,o),
(496,-422,o),
(479,-416,c),
(473,-444,l),
(488,-450,o),
(527,-457,o),
(572,-457,cs)
);
}
);
width = 1239;
},
{
layerId = "BEF1FBB1-ACEC-4AC1-9895-C09886024D55";
shapes = (
{
closed = 1;
nodes = (
(891,-457,o),
(1024,-296,o),
(1073,-67,cs),
(1400,1475,l),
(1234,1475,l),
(944,109,l),
(967,113,l),
(611,1475,l),
(342,1475,l),
(29,0,l),
(195,0,l),
(483,1358,l),
(476,1354,l),
(830,0,l),
(918,0,l),
(903,-71,ls),
(877,-195,o),
(788,-332,o),
(599,-332,cs),
(559,-332,o),
(514,-325,o),
(497,-319,c),
(470,-445,l),
(484,-450,o),
(527,-457,o),
(572,-457,cs)
);
}
);
width = 1341;
},
{
layerId = "3FDD6C00-F7FD-4E85-84B0-0136AF7D7529";
shapes = (
{
closed = 1;
nodes = (
(1044,-456,o),
(1259,-363,o),
(1332,-19,cs),
(1649,1475,l),
(1256,1475,l),
(954,56,l),
(993,52,l),
(987,1475,l),
(311,1475,l),
(-3,0,l),
(390,0,l),
(686,1391,l),
(647,1395,l),
(654,0,l),
(937,0,l),
(931,-28,ls),
(906,-146,o),
(782,-169,o),
(665,-169,cs),
(626,-169,o),
(567,-162,o),
(550,-156,c),
(488,-446,l),
(503,-449,o),
(567,-456,o),
(611,-456,cs)
);
}
);
width = 1559;
}
);
metricLeft = H;
metricRight = H;
unicode = 330;
},
{
glyphname = O;
kernLeft = O;
kernRight = O;
lastChange = "2022-02-09 18:02:24 +0000";
layers = (
{
anchors = (
{
name = bottom;
pos = (664,0);
},
{
name = center;
pos = (664,738);
},
{
name = ogonek;
pos = (851,37);
},
{
name = top;
pos = (664,1475);
},
{
name = topleft;
pos = (88,1475);
},
{
name = topright;
pos = (1001,1338);
}
);
layerId = "A1A0948C-E637-4A65-8CCC-05505AD98C44";
shapes = (
{
closed = 1;
nodes = (
(984,-17,o),
(1213,271,o),
(1213,739,cs),
(1213,1208,o),
(982,1488,o),
(664,1488,cs),
(347,1488,o),
(115,1208,o),
(115,739,cs),
(115,271,o),
(343,-17,o),
(664,-17,cs)
);
},
{
closed = 1;
nodes = (
(363,11,o),
(146,299,o),
(146,739,cs),
(146,1179,o),
(363,1460,o),
(664,1460,cs),
(965,1460,o),
(1182,1179,o),
(1182,739,cs),
(1182,300,o),
(968,11,o),
(664,11,cs)
);
}
);
width = 1328;
},
{
anchors = (
{
name = bottom;
pos = (782,0);
},
{
name = center;
pos = (782,738);
},
{
name = ogonek;
pos = (1024,47);
},
{
name = top;
pos = (782,1475);
},
{
name = topleft;
pos = (80,1475);
},
{
name = topright;
pos = (1160,1392);
}
);
layerId = "584F9D0D-8480-40C6-ABEA-8DD6EE64252D";
shapes = (
{
closed = 1;
nodes = (
(1161,-26,o),
(1494,239,o),
(1494,739,cs),
(1494,1239,o),
(1169,1500,o),
(782,1500,cs),
(396,1500,o),
(70,1239,o),
(70,739,cs),
(70,239,o),
(401,-26,o),
(782,-26,cs)
);
},
{
closed = 1;
nodes = (
(635,286,o),
(480,389,o),
(480,739,cs),
(480,1089,o),
(635,1188,o),
(782,1188,cs),
(929,1188,o),
(1084,1089,o),
(1084,739,cs),
(1084,390,o),
(930,286,o),
(782,286,cs)
);
}
);
width = 1564;
},
{
anchors = (
{
name = bottom;
pos = (691,0);
},
{
name = center;
pos = (691,738);
},
{
name = ogonek;
pos = (899,41);
},
{
name = top;
pos = (691,1475);
},
{
name = topleft;
pos = (68,1475);
},
{
name = topright;
pos = (1044,1358);
}
);
layerId = "F6BDCC95-B00C-46EE-8A70-124DE74BF6E5";
shapes = (
{
closed = 1;
nodes = (
(1034,-20,o),
(1282,259,o),
(1282,739,cs),
(1282,1220,o),
(1035,1493,o),
(691,1493,cs),
(349,1493,o),
(101,1220,o),
(101,739,cs),
(101,259,o),
(348,-20,o),
(691,-20,cs)
);
},
{
closed = 1;
nodes = (
(448,134,o),
(274,333,o),
(274,739,cs),
(274,1145,o),
(448,1338,o),
(691,1338,cs),
(935,1338,o),
(1108,1145,o),
(1108,739,cs),
(1108,334,o),
(937,134,o),
(691,134,cs)
);
}
);
width = 1383;
},
{
anchors = (
{
name = bottom;
pos = (554,0);
},
{
name = center;
pos = (706,738);
},
{
name = ogonek;
pos = (757,37);
},
{
name = top;
pos = (864,1475);
},
{
name = topleft;
pos = (287,1475);
},
{
name = topright;
pos = (1164,1338);
}
);
layerId = "2503C51C-5A6C-4B2C-A968-78FEA18C2585";
shapes = (
{
closed = 1;
nodes = (
(996,-17,o),
(1276,483,o),
(1276,977,cs),
(1276,1294,o),
(1123,1488,o),
(862,1488,cs),
(419,1488,o),
(139,992,o),
(139,499,cs),
(139,183,o),
(291,-17,o),
(554,-17,cs)
);
},
{
closed = 1;
nodes = (
(310,11,o),
(171,209,o),
(171,505,cs),
(171,971,o),
(442,1460,o),
(862,1460,cs),
(1106,1460,o),
(1245,1268,o),
(1245,972,cs),
(1245,505,o),
(974,11,o),
(554,11,cs)
);
}
);
width = 1328;
},
{
anchors = (
{
name = bottom;
pos = (579,0);
},
{
name = center;
pos = (733,738);
},
{
name = ogonek;
pos = (816,41);
},
{
name = top;
pos = (889,1475);
},
{
name = topleft;
pos = (267,1475);
},
{
name = topright;
pos = (1202,1358);
}
);
layerId = "BEF1FBB1-ACEC-4AC1-9895-C09886024D55";
shapes = (
{
closed = 1;
nodes = (
(1052,-20,o),
(1363,446,o),
(1363,942,cs),
(1363,1296,o),
(1175,1493,o),
(883,1493,cs),
(416,1493,o),
(106,1033,o),
(106,536,cs),
(106,181,o),
(295,-20,o),
(586,-20,cs)
);
},
{
closed = 1;
nodes = (
(407,134,o),
(276,266,o),
(276,535,cs),
(276,923,o),
(489,1338,o),
(861,1338,cs),
(1060,1338,o),
(1192,1209,o),
(1192,941,cs),
(1192,553,o),
(977,134,o),
(605,134,cs)
);
}
);
width = 1386;
},
{
anchors = (
{
name = bottom;
pos = (691,0);
},
{
name = center;
pos = (823,738);
},
{
name = ogonek;
pos = (959,47);
},
{
name = top;
pos = (964,1475);
},
{
name = topleft;
pos = (278,1475);
},
{
name = topright;
pos = (1310,1392);
}
);
layerId = "3FDD6C00-F7FD-4E85-84B0-0136AF7D7529";
shapes = (
{
closed = 1;
nodes = (
(1209,-26,o),
(1555,380,o),
(1555,897,cs),
(1555,1294,o),
(1297,1500,o),
(962,1500,cs),
(448,1500,o),
(106,1103,o),
(106,584,cs),
(106,184,o),
(367,-26,o),
(698,-26,cs)
);
},
{
closed = 1;
nodes = (
(611,286,o),
(516,358,o),
(516,585,cs),
(516,880,o),
(634,1188,o),
(926,1188,cs),
(1047,1188,o),
(1146,1121,o),
(1146,901,cs),
(1146,614,o),
(1023,286,o),
(734,286,cs)
);
}
);
width = 1572;
}
);
note = O;
unicode = 79;
},
{
glyphname = Ohorn;
kernLeft = O;
kernRight = Ohorn;
lastChange = "2022-02-09 18:02:24 +0000";
layers = (
{
anchors = (
{
name = bottom;
pos = (664,0);
},
{
name = center;
pos = (664,738);
},
{
name = ogonek;
pos = (851,37);
},
{
name = top;
pos = (664,1475);
},
{
name = topleft;
pos = (88,1475);
},
{
name = topright;
pos = (1001,1338);
}
);
layerId = "A1A0948C-E637-4A65-8CCC-05505AD98C44";
shapes = (
{
closed = 1;
nodes = (
(1001,1310,l),
(1144,1310,o),
(1239,1406,o),
(1239,1591,c),
(1207,1591,l),
(1207,1420,o),
(1125,1338,o),
(1001,1338,c)
);
},
{
closed = 1;
nodes = (
(984,-17,o),
(1213,271,o),
(1213,739,cs),
(1213,1208,o),
(982,1488,o),
(664,1488,cs),
(347,1488,o),
(115,1208,o),
(115,739,cs),
(115,271,o),
(343,-17,o),
(664,-17,cs)
);
},
{
closed = 1;
nodes = (
(363,11,o),
(146,299,o),
(146,739,cs),
(146,1179,o),
(363,1460,o),
(664,1460,cs),
(965,1460,o),
(1182,1179,o),
(1182,739,cs),
(1182,300,o),
(968,11,o),
(664,11,cs)
);
}
);
width = 1328;
},
{
anchors = (
{
name = bottom;
pos = (782,0);
},
{
name = center;
pos = (782,738);
},
{
name = ogonek;
pos = (1024,47);
},
{
name = top;
pos = (782,1475);
},
{
name = topleft;
pos = (80,1475);
},
{
name = topright;
pos = (1160,1392);
}
);
layerId = "584F9D0D-8480-40C6-ABEA-8DD6EE64252D";
shapes = (
{
closed = 1;
nodes = (
(1160,1202,l),
(1397,1202,o),
(1541,1339,o),
(1541,1653,c),
(1297,1653,l),
(1297,1482,o),
(1262,1392,o),
(1160,1392,c)
);
},
{
closed = 1;
nodes = (
(1161,-26,o),
(1494,239,o),
(1494,739,cs),
(1494,1239,o),
(1169,1500,o),
(782,1500,cs),
(396,1500,o),
(70,1239,o),
(70,739,cs),
(70,239,o),
(401,-26,o),
(782,-26,cs)
);
},
{
closed = 1;
nodes = (
(635,286,o),
(480,389,o),
(480,739,cs),
(480,1089,o),
(635,1188,o),
(782,1188,cs),
(929,1188,o),
(1084,1089,o),
(1084,739,cs),
(1084,390,o),
(930,286,o),
(782,286,cs)
);
}
);
width = 1584;
},
{
anchors = (
{
name = bottom;
pos = (692,0);
},
{
name = center;
pos = (691,738);
},
{
name = ogonek;
pos = (899,41);
},
{
name = top;
pos = (692,1475);
},
{
name = topleft;
pos = (68,1475);
},
{
name = topright;
pos = (1044,1358);
}
);
layerId = "F6BDCC95-B00C-46EE-8A70-124DE74BF6E5";
shapes = (
{
closed = 1;
nodes = (
(1044,1269,l),
(1223,1269,o),
(1336,1381,o),
(1336,1614,c),
(1224,1614,l),
(1224,1443,o),
(1160,1358,o),
(1044,1358,c)
);
},
{
closed = 1;
nodes = (
(1034,-20,o),
(1282,259,o),
(1282,739,cs),
(1282,1220,o),
(1035,1493,o),
(691,1493,cs),
(349,1493,o),
(101,1220,o),
(101,739,cs),
(101,259,o),
(348,-20,o),
(691,-20,cs)
);
},
{
closed = 1;
nodes = (
(448,134,o),
(274,333,o),
(274,739,cs),
(274,1145,o),
(448,1338,o),
(691,1338,cs),
(935,1338,o),
(1108,1145,o),
(1108,739,cs),
(1108,334,o),
(937,134,o),
(691,134,cs)
);
}
);
width = 1383;
},
{
anchors = (
{
name = bottom;
pos = (551,0);
},
{
name = center;
pos = (706,738);
},
{
name = ogonek;
pos = (757,37);
},
{
name = top;
pos = (865,1475);
},
{
name = topleft;
pos = (287,1475);
},
{
name = topright;
pos = (1164,1338);
}
);
layerId = "2503C51C-5A6C-4B2C-A968-78FEA18C2585";
shapes = (
{
closed = 1;
nodes = (
(1158,1310,l),
(1311,1310,o),
(1409,1406,o),
(1429,1591,c),
(1397,1591,l),
(1379,1420,o),
(1288,1338,o),
(1164,1338,c)
);
},
{
closed = 1;
nodes = (
(996,-17,o),
(1276,483,o),
(1276,977,cs),
(1276,1294,o),
(1123,1488,o),
(862,1488,cs),
(419,1488,o),
(139,992,o),
(139,499,cs),
(139,183,o),
(291,-17,o),
(554,-17,cs)
);
},
{
closed = 1;
nodes = (
(310,11,o),
(171,209,o),
(171,505,cs),
(171,971,o),
(442,1460,o),
(862,1460,cs),
(1106,1460,o),
(1245,1268,o),
(1245,972,cs),
(1245,505,o),
(974,11,o),
(554,11,cs)
);
}
);
width = 1328;
},
{
anchors = (
{
name = bottom;
pos = (580,0);
},
{
name = center;
pos = (733,738);
},
{
name = ogonek;
pos = (816,41);
},
{
name = top;
pos = (894,1475);
},
{
name = topleft;
pos = (267,1475);
},
{
name = topright;
pos = (1202,1358);
}
);
layerId = "BEF1FBB1-ACEC-4AC1-9895-C09886024D55";
shapes = (
{
closed = 1;
nodes = (
(1183,1269,l),
(1379,1269,o),
(1496,1381,o),
(1521,1614,c),
(1409,1614,l),
(1391,1443,o),
(1318,1358,o),
(1202,1358,c)
);
},
{
closed = 1;
nodes = (
(1052,-20,o),
(1363,446,o),
(1363,942,cs),
(1363,1296,o),
(1175,1493,o),
(883,1493,cs),
(416,1493,o),
(106,1033,o),
(106,536,cs),
(106,181,o),
(295,-20,o),
(586,-20,cs)
);
},
{
closed = 1;
nodes = (
(407,134,o),
(276,266,o),
(276,535,cs),
(276,923,o),
(489,1338,o),
(861,1338,cs),
(1060,1338,o),
(1192,1209,o),
(1192,941,cs),
(1192,553,o),
(977,134,o),
(605,134,cs)
);
}
);
width = 1366;
},
{
anchors = (
{
name = bottom;
pos = (673,0);
},
{
name = center;
pos = (823,738);
},
{
name = ogonek;
pos = (959,47);
},
{
name = top;
pos = (987,1475);
},
{
name = topleft;
pos = (278,1475);
},
{
name = topright;
pos = (1310,1392);
}
);
layerId = "3FDD6C00-F7FD-4E85-84B0-0136AF7D7529";
shapes = (
{
closed = 1;
nodes = (
(1270,1202,l),
(1537,1202,o),
(1685,1339,o),
(1718,1653,c),
(1474,1653,l),
(1456,1482,o),
(1412,1392,o),
(1310,1392,c)
);
},
{
closed = 1;
nodes = (
(1209,-26,o),
(1555,380,o),
(1555,897,cs),
(1555,1294,o),
(1297,1500,o),
(962,1500,cs),
(448,1500,o),
(106,1103,o),
(106,584,cs),
(106,184,o),
(367,-26,o),
(698,-26,cs)
);
},
{
closed = 1;
nodes = (
(611,286,o),
(516,358,o),
(516,585,cs),
(516,880,o),
(634,1188,o),
(926,1188,cs),
(1047,1188,o),
(1146,1121,o),
(1146,901,cs),
(1146,614,o),
(1023,286,o),
(734,286,cs)
);
}
);
width = 1572;
}
);
unicode = 416;
},
{
glyphname = Oogonek;
kernLeft = O;
kernRight = O;
lastChange = "2022-02-09 18:02:24 +0000";
layers = (
{
layerId = "A1A0948C-E637-4A65-8CCC-05505AD98C44";
shapes = (
{
closed = 1;
nodes = (
(848,-324,o),
(811,-328,o),
(783,-328,cs),
(715,-328,o),
(676,-293,o),
(676,-226,cs),
(676,-142,o),
(786,-38,o),
(871,37,c),
(843,37,l),
(746,-36,o),
(640,-135,o),
(640,-228,cs),
(640,-320,o),
(701,-359,o),
(779,-359,cs),
(810,-359,o),
(847,-355,o),
(871,-350,c),
(871,-319,l)
);
},
{
ref = O;
}
);
width = 1328;
},
{
layerId = "584F9D0D-8480-40C6-ABEA-8DD6EE64252D";
shapes = (
{
closed = 1;
nodes = (
(1032,-226,o),
(1006,-229,o),
(982,-229,cs),
(934,-229,o),
(889,-220,o),
(889,-175,cs),
(889,-114,o),
(1004,7,o),
(1054,47,c),
(866,47,l),
(807,8,o),
(658,-107,o),
(658,-241,cs),
(658,-372,o),
(808,-415,o),
(960,-415,cs),
(994,-415,o),
(1026,-413,o),
(1054,-410,c),
(1054,-223,l)
);
},
{
ref = O;
}
);
width = 1564;
},
{
layerId = "F6BDCC95-B00C-46EE-8A70-124DE74BF6E5";
shapes = (
{
closed = 1;
nodes = (
(906,-298,o),
(873,-302,o),
(847,-302,cs),
(786,-302,o),
(745,-277,o),
(745,-218,cs),
(745,-143,o),
(857,-23,o),
(929,41,c),
(831,41,l),
(748,-22,o),
(643,-139,o),
(643,-240,cs),
(643,-347,o),
(730,-391,o),
(836,-391,cs),
(868,-391,o),
(903,-388,o),
(929,-384,c),
(929,-294,l)
);
},
{
ref = O;
}
);
width = 1383;
},
{
layerId = "2503C51C-5A6C-4B2C-A968-78FEA18C2585";
shapes = (
{
closed = 1;
nodes = (
(716,-324,o),
(678,-328,o),
(650,-328,cs),
(588,-328,o),
(553,-299,o),
(553,-242,cs),
(553,-146,o),
(686,-37,o),
(777,37,c),
(739,37,l),
(636,-35,o),
(517,-139,o),
(517,-248,cs),
(517,-326,o),
(571,-359,o),
(643,-359,cs),
(674,-359,o),
(712,-355,o),
(736,-350,c),
(739,-319,l)
);
},
{
ref = O;
}
);
width = 1328;
},
{
layerId = "BEF1FBB1-ACEC-4AC1-9895-C09886024D55";
shapes = (
{
closed = 1;
nodes = (
(787,-298,o),
(754,-302,o),
(728,-302,cs),
(667,-302,o),
(634,-281,o),
(634,-228,cs),
(634,-147,o),
(776,-23,o),
(856,41,c),
(748,41,l),
(658,-22,o),
(530,-132,o),
(530,-240,cs),
(530,-338,o),
(601,-391,o),
(707,-391,cs),
(739,-391,o),
(775,-388,o),
(801,-384,c),
(810,-294,l)
);
},
{
ref = O;
}
);
width = 1386;
},
{
layerId = "3FDD6C00-F7FD-4E85-84B0-0136AF7D7529";
shapes = (
{
closed = 1;
nodes = (
(959,-226,o),
(932,-229,o),
(908,-229,cs),
(860,-229,o),
(821,-220,o),
(821,-175,cs),
(821,-114,o),
(955,7,o),
(1009,47,c),
(821,47,l),
(737,-5,o),
(583,-127,o),
(583,-261,cs),
(583,-377,o),
(723,-415,o),
(867,-415,cs),
(901,-415,o),
(933,-413,o),
(961,-410,c),
(981,-223,l)
);
},
{
ref = O;
}
);
width = 1572;
}
);
unicode = 490;
},
{
glyphname = Oslash;
kernLeft = O;
kernRight = O;
lastChange = "2022-02-09 18:02:24 +0000";
layers = (
{
anchors = (
{
name = bottom;
pos = (664,0);
},
{
name = top;
pos = (664,1475);
}
);
layerId = "A1A0948C-E637-4A65-8CCC-05505AD98C44";
shapes = (
{
closed = 1;
nodes = (
(1108,1527,l),
(191,-38,l),
(218,-52,l),
(1137,1514,l)
);
},
{
ref = O;
}
);
width = 1328;
},
{
anchors = (
{
name = bottom;
pos = (762,0);
},
{
name = top;
pos = (762,1475);
}
);
layerId = "584F9D0D-8480-40C6-ABEA-8DD6EE64252D";
shapes = (
{
closed = 1;
nodes = (
(1170,1601,l),
(189,-8,l),
(392,-125,l),
(1375,1484,l)
);
},
{
ref = O;
}
);
width = 1564;
},
{
anchors = (
{
name = bottom;
pos = (691,0);
},
{
name = top;
pos = (691,1475);
}
);
layerId = "F6BDCC95-B00C-46EE-8A70-124DE74BF6E5";
shapes = (
{
closed = 1;
nodes = (
(1114,1555,l),
(173,-27,l),
(266,-79,l),
(1209,1503,l)
);
},
{
ref = O;
}
);
width = 1383;
},
{
anchors = (
{
name = bottom;
pos = (551,0);
},
{
name = top;
pos = (865,1475);
}
);
layerId = "2503C51C-5A6C-4B2C-A968-78FEA18C2585";
shapes = (
{
closed = 1;
nodes = (
(1276,1531,l),
(26,-34,l),
(50,-55,l),
(1302,1511,l)
);
},
{
ref = O;
}
);
width = 1328;
},
{
anchors = (
{
name = bottom;
pos = (580,0);
},
{
name = top;
pos = (894,1475);
}
);
layerId = "BEF1FBB1-ACEC-4AC1-9895-C09886024D55";
shapes = (
{
closed = 1;
nodes = (
(1285,1557,l),
(7,-25,l),
(90,-82,l),
(1369,1501,l)
);
},
{
ref = O;
}
);
width = 1386;
},
{
anchors = (
{
name = bottom;
pos = (673,0);
},
{
name = top;
pos = (987,1475);
}
);
layerId = "3FDD6C00-F7FD-4E85-84B0-0136AF7D7529";
shapes = (
{
closed = 1;
nodes = (
(1353,1601,l),
(30,-8,l),
(209,-125,l),
(1534,1484,l)
);
},
{
ref = O;
}
);
width = 1572;
}
);
unicode = 216;
},
{
glyphname = OE;
kernLeft = O;
kernRight = E;
lastChange = "2022-02-09 18:02:24 +0000";
layers = (
{
anchors = (
{
name = bottom;
pos = (1006,0);
},
{
name = top;
pos = (1006,1475);
}
);
layerId = "A1A0948C-E637-4A65-8CCC-05505AD98C44";
shapes = (
{
closed = 1;
nodes = (
(894,-17,o),
(1076,159,o),
(1144,459,c),
(1144,0,l),
(1859,0,l),
(1859,28,l),
(1160,28,l),
(1174,14,l),
(1174,740,l),
(1160,726,l),
(1748,726,l),
(1748,754,l),
(1160,754,l),
(1174,740,l),
(1174,1461,l),
(1160,1447,l),
(1859,1447,l),
(1859,1475,l),
(1144,1475,l),
(1144,1018,l),
(1076,1317,o),
(893,1488,o),
(644,1488,cs),
(327,1488,o),
(115,1208,o),
(115,739,cs),
(115,271,o),
(323,-17,o),
(644,-17,cs)
);
},
{
closed = 1;
nodes = (
(343,11,o),
(146,299,o),
(146,739,cs),
(146,1179,o),
(343,1460,o),
(644,1460,cs),
(945,1460,o),
(1142,1179,o),
(1142,739,cs),
(1142,300,o),
(948,11,o),
(644,11,cs)
);
}
);
width = 2034;
},
{
anchors = (
{
name = bottom;
pos = (1077,0);
},
{
name = top;
pos = (1077,1475);
}
);
layerId = "584F9D0D-8480-40C6-ABEA-8DD6EE64252D";
shapes = (
{
closed = 1;
nodes = (
(863,-26,o),
(979,3,o),
(1046,40,c),
(1046,0,l),
(2003,0,l),
(2003,300,l),
(1250,300,l),
(1432,118,l),
(1432,687,l),
(1335,590,l),
(1892,590,l),
(1892,890,l),
(1338,890,l),
(1432,796,l),
(1432,1357,l),
(1250,1175,l),
(2003,1175,l),
(2003,1475,l),
(1046,1475,l),
(1046,1436,l),
(980,1472,o),
(864,1500,o),
(762,1500,cs),
(376,1500,o),
(70,1239,o),
(70,739,cs),
(70,239,o),
(381,-26,o),
(762,-26,cs)
);
},
{
closed = 1;
nodes = (
(615,286,o),
(480,389,o),
(480,739,cs),
(480,1089,o),
(615,1188,o),
(762,1188,cs),
(909,1188,o),
(1044,1089,o),
(1044,739,cs),
(1044,390,o),
(910,286,o),
(762,286,cs)
);
}
);
width = 2113;
},
{
anchors = (
{
name = bottom;
pos = (1036,0);
},
{
name = top;
pos = (1036,1475);
}
);
layerId = "F6BDCC95-B00C-46EE-8A70-124DE74BF6E5";
shapes = (
{
closed = 1;
nodes = (
(896,-20,o),
(1043,83,o),
(1110,213,c),
(1110,0,l),
(1916,0,l),
(1916,150,l),
(1197,150,l),
(1274,53,l),
(1274,720,l),
(1229,665,l),
(1845,665,l),
(1845,815,l),
(1230,815,l),
(1274,761,l),
(1274,1422,l),
(1197,1325,l),
(1916,1325,l),
(1916,1475,l),
(1110,1475,l),
(1110,1279,l),
(1043,1400,o),
(895,1493,o),
(681,1493,cs),
(339,1493,o),
(101,1220,o),
(101,739,cs),
(101,259,o),
(338,-20,o),
(681,-20,cs)
);
},
{
closed = 1;
nodes = (
(438,134,o),
(274,333,o),
(274,739,cs),
(274,1145,o),
(438,1338,o),
(681,1338,cs),
(925,1338,o),
(1108,1145,o),
(1108,739,cs),
(1108,334,o),
(927,134,o),
(681,134,cs)
);
}
);
width = 2057;
},
{
anchors = (
{
name = bottom;
pos = (893,0);
},
{
name = top;
pos = (1207,1475);
}
);
layerId = "2503C51C-5A6C-4B2C-A968-78FEA18C2585";
shapes = (
{
closed = 1;
nodes = (
(802,-17,o),
(1004,171,o),
(1120,429,c),
(1029,0,l),
(1744,0,l),
(1750,28,l),
(1052,28,l),
(1063,14,l),
(1218,740,l),
(1201,726,l),
(1788,726,l),
(1794,754,l),
(1207,754,l),
(1218,740,l),
(1371,1461,l),
(1354,1447,l),
(2052,1447,l),
(2058,1475,l),
(1343,1475,l),
(1236,972,l),
(1236,1312,o),
(1102,1488,o),
(842,1488,cs),
(399,1488,o),
(139,982,o),
(139,489,cs),
(139,173,o),
(271,-17,o),
(534,-17,cs)
);
},
{
closed = 1;
nodes = (
(290,11,o),
(171,199,o),
(171,495,cs),
(171,961,o),
(422,1460,o),
(842,1460,cs),
(1086,1460,o),
(1205,1278,o),
(1205,982,cs),
(1205,515,o),
(954,11,o),
(534,11,cs)
);
}
);
width = 2032;
},
{
anchors = (
{
name = bottom;
pos = (904,0);
},
{
name = top;
pos = (1218,1475);
}
);
layerId = "BEF1FBB1-ACEC-4AC1-9895-C09886024D55";
shapes = (
{
closed = 1;
nodes = (
(768,-20,o),
(940,67,o),
(1015,187,c),
(976,0,l),
(1782,0,l),
(1814,150,l),
(1095,150,l),
(1152,53,l),
(1293,720,l),
(1237,665,l),
(1853,665,l),
(1885,815,l),
(1270,815,l),
(1302,761,l),
(1443,1422,l),
(1345,1325,l),
(2064,1325,l),
(2096,1475,l),
(1290,1475,l),
(1243,1246,l),
(1220,1378,o),
(1069,1493,o),
(855,1493,cs),
(387,1493,o),
(103,1007,o),
(103,508,cs),
(103,171,o),
(269,-20,o),
(553,-20,cs)
);
},
{
closed = 1;
nodes = (
(384,134,o),
(274,258,o),
(274,510,cs),
(274,904,o),
(465,1338,o),
(832,1338,cs),
(1028,1338,o),
(1149,1213,o),
(1149,953,cs),
(1149,561,o),
(946,134,o),
(576,134,cs)
);
}
);
width = 2036;
},
{
anchors = (
{
name = bottom;
pos = (968,0);
},
{
name = top;
pos = (1282,1475);
}
);
layerId = "3FDD6C00-F7FD-4E85-84B0-0136AF7D7529";
shapes = (
{
closed = 1;
nodes = (
(776,-26,o),
(890,-2,o),
(951,35,c),
(942,0,l),
(1899,0,l),
(1963,300,l),
(1210,300,l),
(1355,122,l),
(1474,692,l),
(1351,590,l),
(1914,590,l),
(1977,890,l),
(1413,890,l),
(1496,792,l),
(1616,1353,l),
(1396,1175,l),
(2149,1175,l),
(2213,1475,l),
(1256,1475,l),
(1245,1418,l),
(1179,1466,o),
(1057,1500,o),
(941,1500,cs),
(431,1500,o),
(106,1095,o),
(106,578,cs),
(106,191,o),
(344,-26,o),
(681,-26,cs)
);
},
{
closed = 1;
nodes = (
(596,286,o),
(514,354,o),
(514,565,cs),
(514,854,o),
(619,1188,o),
(907,1188,cs),
(1026,1188,o),
(1108,1123,o),
(1108,913,cs),
(1108,626,o),
(1000,286,o),
(715,286,cs)
);
}
);
width = 2122;
}
);
metricLeft = O;
metricRight = E;
unicode = 338;
},
{
glyphname = P;
kernLeft = H;
kernRight = P;
lastChange = "2022-02-09 18:02:24 +0000";
layers = (
{
anchors = (
{
name = bottom;
pos = (575,0);
},
{
name = top;
pos = (575,1475);
}
);
layerId = "A1A0948C-E637-4A65-8CCC-05505AD98C44";
shapes = (
{
closed = 1;
nodes = (
(205,574,l),
(498,574,ls),
(831,574,o),
(978,780,o),
(978,1025,cs),
(978,1270,o),
(842,1475,o),
(498,1475,cs),
(175,1475,l),
(175,0,l),
(205,0,l)
);
},
{
closed = 1;
nodes = (
(205,1461,l),
(191,1447,l),
(489,1447,ls),
(824,1447,o),
(947,1259,o),
(947,1025,cs),
(947,791,o),
(813,602,o),
(489,602,cs),
(191,602,l),
(205,588,l)
);
}
);
width = 1073;
},
{
anchors = (
{
name = bottom;
pos = (651,0);
},
{
name = top;
pos = (651,1475);
}
);
layerId = "584F9D0D-8480-40C6-ABEA-8DD6EE64252D";
shapes = (
{
closed = 1;
nodes = (
(514,444,l),
(675,444,ls),
(1010,444,o),
(1231,677,o),
(1231,967,cs),
(1231,1257,o),
(1010,1475,o),
(675,1475,cs),
(110,1475,l),
(110,0,l),
(514,0,l)
);
},
{
closed = 1;
nodes = (
(514,1357,l),
(332,1175,l),
(634,1175,ls),
(733,1175,o),
(825,1117,o),
(825,967,cs),
(825,817,o),
(733,743,o),
(634,743,cs),
(332,743,l),
(514,561,l)
);
}
);
width = 1295;
},
{
anchors = (
{
name = bottom;
pos = (594,0);
},
{
name = top;
pos = (555,1475);
}
);
layerId = "F6BDCC95-B00C-46EE-8A70-124DE74BF6E5";
shapes = (
{
closed = 1;
nodes = (
(312,515,l),
(555,515,ls),
(889,515,o),
(1064,741,o),
(1064,1003,cs),
(1064,1265,o),
(896,1475,o),
(555,1475,cs),
(141,1475,l),
(141,0,l),
(312,0,l)
);
},
{
closed = 1;
nodes = (
(312,1422,l),
(235,1325,l),
(534,1325,ls),
(781,1325,o),
(892,1206,o),
(892,1003,cs),
(892,801,o),
(774,665,o),
(534,665,cs),
(235,665,l),
(312,578,l)
);
}
);
width = 1150;
},
{
anchors = (
{
name = bottom;
pos = (402,0);
},
{
name = top;
pos = (724,1475);
}
);
layerId = "2503C51C-5A6C-4B2C-A968-78FEA18C2585";
shapes = (
{
closed = 1;
nodes = (
(214,574,l),
(510,574,ls),
(850,574,o),
(1090,807,o),
(1090,1139,cs),
(1090,1321,o),
(991,1475,o),
(692,1475,cs),
(376,1475,l),
(62,0,l),
(92,0,l)
);
},
{
closed = 1;
nodes = (
(403,1461,l),
(386,1447,l),
(684,1447,ls),
(969,1447,o),
(1060,1312,o),
(1060,1145,cs),
(1060,824,o),
(837,602,o),
(504,602,cs),
(206,602,l),
(217,588,l)
);
}
);
width = 1073;
},
{
anchors = (
{
name = bottom;
pos = (479,0);
},
{
name = top;
pos = (675,1475);
}
);
layerId = "BEF1FBB1-ACEC-4AC1-9895-C09886024D55";
shapes = (
{
closed = 1;
nodes = (
(309,515,l),
(562,515,ls),
(921,515,o),
(1170,738,o),
(1170,1089,cs),
(1170,1303,o),
(1047,1475,o),
(746,1475,cs),
(342,1475,l),
(28,0,l),
(199,0,l)
);
},
{
closed = 1;
nodes = (
(501,1422,l),
(404,1325,l),
(703,1325,ls),
(913,1325,o),
(1000,1239,o),
(1000,1088,cs),
(1000,834,o),
(828,665,o),
(563,665,cs),
(264,665,l),
(322,578,l)
);
}
);
width = 1150;
},
{
anchors = (
{
name = bottom;
pos = (535,0);
},
{
name = top;
pos = (849,1475);
}
);
layerId = "3FDD6C00-F7FD-4E85-84B0-0136AF7D7529";
shapes = (
{
closed = 1;
nodes = (
(496,444,l),
(657,444,ls),
(1015,444,o),
(1327,692,o),
(1327,1047,cs),
(1327,1281,o),
(1185,1475,o),
(876,1475,cs),
(311,1475,l),
(-3,0,l),
(401,0,l)
);
},
{
closed = 1;
nodes = (
(689,1353,l),
(469,1175,l),
(771,1175,ls),
(863,1175,o),
(919,1116,o),
(919,1010,cs),
(919,859,o),
(827,743,o),
(679,743,cs),
(377,743,l),
(521,565,l)
);
}
);
width = 1302;
}
);
metricLeft = H;
note = P;
unicode = 80;
},
{
glyphname = Thorn;
kernLeft = H;
kernRight = D;
lastChange = "2022-02-09 18:02:24 +0000";
layers = (
{
layerId = "A1A0948C-E637-4A65-8CCC-05505AD98C44";
shapes = (
{
closed = 1;
nodes = (
(205,0,l),
(205,329,l),
(191,315,l),
(476,315,ls),
(724,315,o),
(915,461,o),
(915,729,cs),
(915,992,o),
(729,1143,o),
(476,1143,cs),
(191,1143,l),
(205,1129,l),
(205,1473,l),
(175,1473,l),
(175,0,l)
);
},
{
closed = 1;
nodes = (
(205,1129,l),
(191,1115,l),
(476,1115,ls),
(706,1115,o),
(885,975,o),
(885,729,cs),
(885,485,o),
(707,343,o),
(476,343,cs),
(191,343,l),
(205,329,l)
);
}
);
width = 1030;
},
{
layerId = "584F9D0D-8480-40C6-ABEA-8DD6EE64252D";
shapes = (
{
closed = 1;
nodes = (
(513,0,l),
(513,426,l),
(392,305,l),
(680,305,ls),
(977,305,o),
(1180,444,o),
(1180,728,cs),
(1180,1012,o),
(980,1153,o),
(680,1153,cs),
(392,1153,l),
(513,1032,l),
(513,1473,l),
(110,1473,l),
(110,0,l)
);
},
{
closed = 1;
nodes = (
(513,954,l),
(411,852,l),
(638,852,ls),
(722,852,o),
(779,810,o),
(779,729,cs),
(779,651,o),
(724,605,o),
(638,605,cs),
(419,605,l),
(513,511,l)
);
}
);
width = 1250;
},
{
layerId = "F6BDCC95-B00C-46EE-8A70-124DE74BF6E5";
shapes = (
{
closed = 1;
nodes = (
(311,0,l),
(311,365,l),
(257,311,l),
(543,311,ls),
(810,311,o),
(1005,455,o),
(1005,729,cs),
(1005,1000,o),
(814,1147,o),
(543,1147,cs),
(257,1147,l),
(311,1093,l),
(311,1473,l),
(141,1473,l),
(141,0,l)
);
},
{
closed = 1;
nodes = (
(311,1063,l),
(264,996,l),
(527,996,ls),
(703,996,o),
(836,913,o),
(836,729,cs),
(836,547,o),
(704,461,o),
(527,461,cs),
(267,461,l),
(311,397,l)
);
}
);
width = 1106;
},
{
layerId = "2503C51C-5A6C-4B2C-A968-78FEA18C2585";
shapes = (
{
closed = 1;
nodes = (
(92,0,l),
(162,329,l),
(145,315,l),
(433,315,ls),
(728,315,o),
(959,517,o),
(959,818,cs),
(959,1022,o),
(834,1143,o),
(599,1143,cs),
(321,1143,l),
(332,1129,l),
(406,1473,l),
(376,1473,l),
(62,0,l)
);
},
{
closed = 1;
nodes = (
(332,1129,l),
(315,1115,l),
(600,1115,ls),
(811,1115,o),
(930,1005,o),
(930,820,cs),
(930,542,o),
(713,343,o),
(436,343,cs),
(151,343,l),
(162,329,l)
);
}
);
width = 1027;
},
{
layerId = "BEF1FBB1-ACEC-4AC1-9895-C09886024D55";
shapes = (
{
closed = 1;
nodes = (
(198,0,l),
(274,355,l),
(221,311,l),
(498,311,ls),
(810,311,o),
(1051,503,o),
(1051,817,cs),
(1051,1029,o),
(917,1147,o),
(670,1147,cs),
(401,1147,l),
(432,1100,l),
(512,1473,l),
(342,1473,l),
(28,0,l)
);
},
{
closed = 1;
nodes = (
(425,1063,l),
(372,996,l),
(631,996,ls),
(791,996,o),
(881,935,o),
(881,795,cs),
(881,586,o),
(717,461,o),
(508,461,cs),
(251,461,l),
(282,396,l)
);
}
);
width = 1087;
},
{
layerId = "3FDD6C00-F7FD-4E85-84B0-0136AF7D7529";
shapes = (
{
closed = 1;
nodes = (
(400,0,l),
(485,399,l),
(373,305,l),
(632,305,ls),
(972,305,o),
(1229,480,o),
(1229,815,cs),
(1229,1041,o),
(1080,1153,o),
(813,1153,cs),
(559,1153,l),
(624,1052,l),
(714,1473,l),
(311,1473,l),
(-3,0,l)
);
},
{
closed = 1;
nodes = (
(604,954,l),
(492,852,l),
(707,852,ls),
(783,852,o),
(823,818,o),
(823,752,cs),
(823,659,o),
(748,605,o),
(654,605,cs),
(443,605,l),
(508,507,l)
);
}
);
width = 1252;
}
);
metricLeft = H;
metricRight = D;
note = Thorn;
unicode = 222;
},
{
glyphname = Q;
kernLeft = O;
kernRight = O;
lastChange = "2022-02-09 18:02:24 +0000";
layers = (
{
anchors = (
{
name = bottom;
pos = (664,-17);
},
{
name = top;
pos = (662,1487);
}
);
layerId = "A1A0948C-E637-4A65-8CCC-05505AD98C44";
shapes = (
{
closed = 1;
nodes = (
(645,-232,o),
(898,-307,o),
(965,-323,c),
(981,-296,l),
(922,-283,o),
(679,-207,o),
(679,-10,c),
(645,-10,l)
);
},
{
ref = O;
}
);
width = 1328;
},
{
anchors = (
{
name = bottom;
pos = (762,-26);
},
{
name = top;
pos = (762,1500);
}
);
layerId = "584F9D0D-8480-40C6-ABEA-8DD6EE64252D";
shapes = (
{
closed = 1;
nodes = (
(598,-343,o),
(1030,-378,o),
(1076,-378,c),
(1188,-111,l),
(1148,-107,o),
(938,-85,o),
(938,22,c),
(598,22,l)
);
},
{
ref = O;
}
);
width = 1564;
},
{
anchors = (
{
name = bottom;
pos = (691,-20);
},
{
name = top;
pos = (690,1492);
}
);
layerId = "F6BDCC95-B00C-46EE-8A70-124DE74BF6E5";
shapes = (
{
closed = 1;
nodes = (
(618,-274,o),
(938,-334,o),
(997,-344,c),
(1049,-227,l),
(997,-217,o),
(767,-161,o),
(767,2,c),
(618,2,l)
);
},
{
alignment = -1;
ref = O;
}
);
width = 1383;
},
{
anchors = (
{
name = bottom;
pos = (547,-17);
},
{
name = top;
pos = (868,1487);
}
);
layerId = "2503C51C-5A6C-4B2C-A968-78FEA18C2585";
shapes = (
{
closed = 1;
nodes = (
(528,-235,o),
(724,-298,o),
(784,-313,c),
(802,-285,l),
(738,-272,o),
(563,-209,o),
(563,-2,c),
(528,2,l)
);
},
{
ref = O;
}
);
width = 1328;
},
{
anchors = (
{
name = bottom;
pos = (574,-20);
},
{
name = top;
pos = (895,1492);
}
);
layerId = "BEF1FBB1-ACEC-4AC1-9895-C09886024D55";
shapes = (
{
closed = 1;
nodes = (
(501,-282,o),
(752,-328,o),
(810,-337,c),
(881,-220,l),
(826,-210,o),
(650,-162,o),
(650,7,c),
(501,10,l)
);
},
{
alignment = -1;
ref = O;
}
);
width = 1386;
},
{
anchors = (
{
name = bottom;
pos = (645,-25);
},
{
name = top;
pos = (966,1500);
}
);
layerId = "3FDD6C00-F7FD-4E85-84B0-0136AF7D7529";
shapes = (
{
closed = 1;
nodes = (
(480,-360,o),
(824,-378,o),
(877,-378,c),
(1037,-111,l),
(998,-107,o),
(821,-84,o),
(821,22,c),
(480,22,l)
);
},
{
ref = O;
}
);
width = 1572;
}
);
metricLeft = O;
metricRight = O;
note = Q;
unicode = 81;
},
{
glyphname = R;
kernLeft = H;
kernRight = R;
lastChange = "2022-02-09 18:02:24 +0000";
layers = (
{
anchors = (
{
name = bottom;
pos = (567,0);
},
{
name = top;
pos = (567,1475);
}
);
layerId = "A1A0948C-E637-4A65-8CCC-05505AD98C44";
shapes = (
{
closed = 1;
nodes = (
(205,0,l),
(205,714,l),
(191,700,l),
(612,700,ls),
(781,700,o),
(896,636,o),
(896,476,cs),
(896,354,o),
(896,213,o),
(896,91,cs),
(896,40,o),
(907,7,o),
(911,0,c),
(943,0,l),
(939,7,o),
(927,41,o),
(927,91,cs),
(927,216,o),
(927,358,o),
(927,483,cs),
(927,646,o),
(802,707,o),
(708,716,c),
(802,729,o),
(970,862,o),
(970,1106,cs),
(970,1367,o),
(834,1475,o),
(602,1475,cs),
(175,1475,l),
(175,0,l)
);
},
{
closed = 1;
nodes = (
(205,1461,l),
(191,1447,l),
(595,1447,ls),
(820,1447,o),
(939,1347,o),
(939,1106,cs),
(939,872,o),
(786,728,o),
(612,728,cs),
(191,728,l),
(205,714,l)
);
}
);
width = 1135;
},
{
anchors = (
{
name = bottom;
pos = (689,0);
},
{
name = top;
pos = (649,1475);
}
);
layerId = "584F9D0D-8480-40C6-ABEA-8DD6EE64252D";
shapes = (
{
closed = 1;
nodes = (
(504,0,l),
(504,664,l),
(399,541,l),
(667,541,ls),
(785,541,o),
(824,475,o),
(824,368,cs),
(824,295,o),
(824,243,o),
(824,170,cs),
(824,99,o),
(835,33,o),
(857,0,c),
(1261,0,l),
(1237,29,o),
(1226,99,o),
(1226,170,cs),
(1226,255,o),
(1226,329,o),
(1226,414,cs),
(1226,616,o),
(1109,684,o),
(980,692,c),
(1106,702,o),
(1257,829,o),
(1257,1053,cs),
(1257,1318,o),
(1100,1475,o),
(764,1475,cs),
(110,1475,l),
(110,0,l)
);
},
{
closed = 1;
nodes = (
(504,1296,l),
(389,1176,l),
(669,1176,ls),
(776,1176,o),
(842,1101,o),
(842,1015,cs),
(842,908,o),
(773,841,o),
(671,841,cs),
(399,841,l),
(504,700,l)
);
}
);
width = 1331;
},
{
anchors = (
{
name = bottom;
pos = (603,0);
},
{
name = top;
pos = (538,1475);
}
);
layerId = "F6BDCC95-B00C-46EE-8A70-124DE74BF6E5";
shapes = (
{
closed = 1;
nodes = (
(308,0,l),
(308,695,l),
(260,630,l),
(623,630,ls),
(773,630,o),
(860,566,o),
(860,436,cs),
(860,332,o),
(860,224,o),
(860,121,cs),
(860,62,o),
(871,17,o),
(881,0,c),
(1053,0,l),
(1041,15,o),
(1030,63,o),
(1030,121,cs),
(1030,231,o),
(1030,347,o),
(1030,457,cs),
(1030,635,o),
(908,698,o),
(801,707,c),
(907,719,o),
(1068,850,o),
(1068,1086,cs),
(1068,1349,o),
(924,1475,o),
(653,1475,cs),
(141,1475,l),
(141,0,l)
);
},
{
closed = 1;
nodes = (
(308,1399,l),
(256,1325,l),
(613,1325,ls),
(794,1325,o),
(893,1255,o),
(893,1072,cs),
(893,896,o),
(772,780,o),
(625,780,cs),
(260,780,l),
(308,709,l)
);
}
);
width = 1190;
},
{
anchors = (
{
name = bottom;
pos = (431,0);
},
{
name = top;
pos = (716,1475);
}
);
layerId = "2503C51C-5A6C-4B2C-A968-78FEA18C2585";
shapes = (
{
closed = 1;
nodes = (
(92,0,l),
(244,714,l),
(227,700,l),
(648,700,ls),
(795,700,o),
(891,655,o),
(891,535,cs),
(891,454,o),
(796,105,o),
(796,27,cs),
(796,13,o),
(797,3,o),
(798,0,c),
(830,0,l),
(829,4,o),
(827,15,o),
(827,31,cs),
(827,115,o),
(924,463,o),
(924,541,cs),
(924,661,o),
(828,708,o),
(747,716,c),
(949,740,o),
(1098,993,o),
(1098,1200,cs),
(1098,1369,o),
(1000,1475,o),
(796,1475,cs),
(376,1475,l),
(62,0,l)
);
},
{
closed = 1;
nodes = (
(403,1461,l),
(386,1447,l),
(790,1447,ls),
(985,1447,o),
(1067,1349,o),
(1067,1199,cs),
(1067,956,o),
(889,728,o),
(654,728,cs),
(233,728,l),
(244,714,l)
);
}
);
width = 1135;
},
{
anchors = (
{
name = bottom;
pos = (475,0);
},
{
name = top;
pos = (731,1475);
}
);
layerId = "BEF1FBB1-ACEC-4AC1-9895-C09886024D55";
shapes = (
{
closed = 1;
nodes = (
(195,0,l),
(342,689,l),
(254,630,l),
(643,630,ls),
(769,630,o),
(846,587,o),
(846,486,cs),
(846,401,o),
(763,128,o),
(763,40,cs),
(763,22,o),
(765,8,o),
(768,0,c),
(940,0,l),
(936,7,o),
(934,23,o),
(934,43,cs),
(934,137,o),
(1022,436,o),
(1022,526,cs),
(1022,652,o),
(939,699,o),
(848,707,c),
(1051,728,o),
(1193,972,o),
(1193,1184,cs),
(1193,1360,o),
(1078,1475,o),
(840,1475,cs),
(342,1475,l),
(28,0,l)
);
},
{
closed = 1;
nodes = (
(497,1421,l),
(404,1325,l),
(787,1325,ls),
(945,1325,o),
(1012,1251,o),
(1012,1128,cs),
(1012,940,o),
(863,780,o),
(676,780,cs),
(282,780,l),
(349,723,l)
);
}
);
width = 1190;
},
{
anchors = (
{
name = bottom;
pos = (573,0);
},
{
name = top;
pos = (807,1475);
}
);
layerId = "3FDD6C00-F7FD-4E85-84B0-0136AF7D7529";
shapes = (
{
closed = 1;
nodes = (
(391,0,l),
(529,647,l),
(324,541,l),
(659,541,ls),
(751,541,o),
(797,501,o),
(797,432,cs),
(797,340,o),
(734,165,o),
(734,62,cs),
(734,36,o),
(737,15,o),
(744,0,c),
(1148,0,l),
(1140,13,o),
(1136,36,o),
(1136,63,cs),
(1136,174,o),
(1211,391,o),
(1211,500,cs),
(1211,636,o),
(1122,685,o),
(1014,692,c),
(1220,708,o),
(1375,938,o),
(1375,1156,cs),
(1375,1346,o),
(1260,1475,o),
(965,1475,cs),
(311,1475,l),
(-3,0,l)
);
},
{
closed = 1;
nodes = (
(679,1354,l),
(459,1176,l),
(806,1176,ls),
(904,1176,o),
(946,1113,o),
(946,1036,cs),
(946,914,o),
(845,841,o),
(737,841,cs),
(388,841,l),
(548,737,l)
);
}
);
width = 1331;
}
);
metricLeft = H;
note = R;
unicode = 82;
},
{
color = 3;
glyphname = R.ss01;
kernLeft = H;
kernRight = R;
lastChange = "2022-02-09 18:02:24 +0000";
layers = (
{
anchors = (
{
name = bottom;
pos = (543,0);
},
{
name = top;
pos = (532,1475);
}
);
layerId = "A1A0948C-E637-4A65-8CCC-05505AD98C44";
shapes = (
{
closed = 1;
nodes = (
(175,1475,l),
(175,0,l),
(205,0,l),
(205,693,l),
(191,679,l),
(667,679,ls),
(835,679,o),
(1001,821,o),
(1001,1082,cs),
(1001,1343,o),
(844,1475,o),
(612,1475,cs)
);
},
{
closed = 1;
nodes = (
(191,708,l),
(205,694,l),
(205,1461,l),
(191,1447,l),
(595,1447,ls),
(820,1447,o),
(970,1327,o),
(970,1082,cs),
(970,837,o),
(809,708,o),
(667,708,cs)
);
},
{
closed = 1;
nodes = (
(930,0,l),
(964,0,l),
(694,696,l),
(662,696,l)
);
}
);
width = 1166;
},
{
anchors = (
{
name = bottom;
pos = (644,0);
},
{
name = top;
pos = (644,1475);
}
);
layerId = "584F9D0D-8480-40C6-ABEA-8DD6EE64252D";
shapes = (
{
closed = 1;
nodes = (
(110,1475,l),
(110,0,l),
(504,0,l),
(504,685,l),
(391,562,l),
(672,562,ls),
(989,562,o),
(1241,663,o),
(1241,1043,cs),
(1241,1308,o),
(1100,1475,o),
(764,1475,cs)
);
},
{
closed = 1;
nodes = (
(406,852,l),
(504,744,l),
(504,1299,l),
(400,1185,l),
(669,1185,ls),
(776,1185,o),
(825,1113,o),
(825,1027,cs),
(825,920,o),
(775,852,o),
(676,852,cs)
);
},
{
closed = 1;
nodes = (
(830,0,l),
(1242,0,l),
(971,693,l),
(602,693,l)
);
}
);
width = 1312;
},
{
anchors = (
{
name = bottom;
pos = (575,0);
},
{
name = top;
pos = (575,1475);
}
);
layerId = "F6BDCC95-B00C-46EE-8A70-124DE74BF6E5";
shapes = (
{
closed = 1;
nodes = (
(141,1475,l),
(141,0,l),
(308,0,l),
(308,690,l),
(257,635,l),
(660,635,ls),
(883,635,o),
(1082,762,o),
(1082,1067,cs),
(1082,1330,o),
(931,1475,o),
(660,1475,cs)
);
},
{
closed = 1;
nodes = (
(262,782,l),
(308,713,l),
(308,1400,l),
(260,1329,l),
(613,1329,ls),
(794,1329,o),
(906,1247,o),
(906,1061,cs),
(906,868,o),
(787,782,o),
(661,782,cs)
);
},
{
closed = 1;
nodes = (
(883,0,l),
(1059,0,l),
(789,695,l),
(620,695,l)
);
}
);
width = 1204;
},
{
anchors = (
{
name = bottom;
pos = (424,0);
},
{
name = top;
pos = (738,1475);
}
);
layerId = "2503C51C-5A6C-4B2C-A968-78FEA18C2585";
shapes = (
{
closed = 1;
nodes = (
(376,1475,l),
(62,0,l),
(93,0,l),
(241,693,l),
(224,679,l),
(703,679,l),
(948,679,o),
(1124,920,o),
(1124,1177,cs),
(1124,1370,o),
(1013,1475,o),
(806,1475,cs)
);
},
{
closed = 1;
nodes = (
(230,708,l),
(241,694,l),
(404,1461,l),
(387,1447,l),
(791,1447,ls),
(991,1447,o),
(1093,1352,o),
(1093,1174,cs),
(1093,943,o),
(931,708,o),
(706,708,cs)
);
},
{
closed = 1;
nodes = (
(818,0,l),
(850,0,l),
(728,696,l),
(698,696,l)
);
}
);
width = 1168;
},
{
anchors = (
{
name = bottom;
pos = (446,0);
},
{
name = top;
pos = (760,1475);
}
);
layerId = "BEF1FBB1-ACEC-4AC1-9895-C09886024D55";
shapes = (
{
closed = 1;
nodes = (
(342,1475,l),
(28,0,l),
(195,0,l),
(340,679,l),
(299,635,l),
(696,635,l),
(999,635,o),
(1203,858,o),
(1203,1165,cs),
(1203,1360,o),
(1083,1475,o),
(845,1475,cs)
);
},
{
closed = 1;
nodes = (
(326,782,l),
(348,718,l),
(493,1397,l),
(452,1329,l),
(788,1329,ls),
(946,1329,o),
(1025,1271,o),
(1025,1135,cs),
(1025,948,o),
(895,782,o),
(711,782,cs)
);
},
{
closed = 1;
nodes = (
(771,0,l),
(945,0,l),
(823,695,l),
(656,695,l)
);
}
);
width = 1207;
},
{
anchors = (
{
name = bottom;
pos = (514,0);
},
{
name = top;
pos = (828,1475);
}
);
layerId = "3FDD6C00-F7FD-4E85-84B0-0136AF7D7529";
shapes = (
{
closed = 1;
nodes = (
(311,1475,l),
(-3,0,l),
(391,0,l),
(531,656,l),
(448,562,l),
(709,562,ls),
(1110,562,o),
(1360,755,o),
(1360,1145,cs),
(1360,1344,o),
(1224,1475,o),
(935,1475,cs)
);
},
{
closed = 1;
nodes = (
(510,852,l),
(552,758,l),
(666,1291,l),
(586,1185,l),
(808,1185,ls),
(897,1185,o),
(936,1135,o),
(936,1069,cs),
(936,957,o),
(860,852,o),
(744,852,cs)
);
},
{
closed = 1;
nodes = (
(717,0,l),
(1129,0,l),
(1006,693,l),
(637,693,l)
);
}
);
width = 1317;
}
);
metricLeft = H;
metricRight = R;
note = R;
},
{
glyphname = S;
kernLeft = S;
kernRight = S;
lastChange = "2022-02-09 18:02:24 +0000";
layers = (
{
anchors = (
{
name = bottom;
pos = (547,0);
},
{
name = top;
pos = (542,1475);
}
);
layerId = "A1A0948C-E637-4A65-8CCC-05505AD98C44";
shapes = (
{
closed = 1;
nodes = (
(829,-17,o),
(974,120,o),
(974,347,cs),
(974,579,o),
(829,674,o),
(570,761,cs),
(334,840,o),
(159,934,o),
(159,1155,cs),
(159,1353,o),
(296,1460,o),
(534,1460,cs),
(785,1460,o),
(932,1350,o),
(932,1091,cs),
(932,1054,o),
(932,1037,o),
(932,1000,c),
(963,1000,l),
(963,1037,o),
(963,1054,o),
(963,1091,cs),
(963,1364,o),
(808,1488,o),
(533,1488,cs),
(277,1488,o),
(127,1375,o),
(127,1155,cs),
(127,923,o),
(297,823,o),
(565,731,cs),
(797,651,o),
(942,565,o),
(942,345,cs),
(942,133,o),
(810,11,o),
(542,11,cs),
(287,11,o),
(146,135,o),
(146,405,cs),
(146,438,o),
(146,451,o),
(146,484,c),
(115,484,l),
(115,451,o),
(115,438,o),
(115,405,cs),
(115,122,o),
(255,-17,o),
(547,-17,cs)
);
}
);
width = 1089;
},
{
anchors = (
{
name = bottom;
pos = (647,0);
},
{
name = top;
pos = (649,1475);
}
);
layerId = "584F9D0D-8480-40C6-ABEA-8DD6EE64252D";
shapes = (
{
closed = 1;
nodes = (
(981,-26,o),
(1226,127,o),
(1226,406,cs),
(1226,672,o),
(1044,775,o),
(777,869,cs),
(598,932,o),
(467,979,o),
(467,1065,cs),
(467,1146,o),
(533,1190,o),
(650,1190,cs),
(768,1190,o),
(812,1121,o),
(812,1035,cs),
(812,1028,o),
(812,1011,o),
(812,1004,c),
(1215,1004,l),
(1215,1021,o),
(1215,1037,o),
(1215,1054,cs),
(1215,1345,o),
(970,1500,o),
(645,1500,cs),
(330,1500,o),
(79,1337,o),
(79,1064,cs),
(79,798,o),
(280,672,o),
(488,607,cs),
(680,547,o),
(834,480,o),
(834,394,cs),
(834,317,o),
(764,285,o),
(649,285,cs),
(530,285,o),
(473,355,o),
(473,449,cs),
(473,464,o),
(473,478,o),
(473,493,c),
(70,493,l),
(70,476,o),
(70,458,o),
(70,441,cs),
(70,132,o),
(317,-26,o),
(645,-26,c)
);
}
);
width = 1296;
},
{
anchors = (
{
name = bottom;
pos = (588,0);
},
{
name = top;
pos = (585,1475);
}
);
layerId = "F6BDCC95-B00C-46EE-8A70-124DE74BF6E5";
shapes = (
{
closed = 1;
nodes = (
(889,-20,o),
(1072,123,o),
(1072,369,cs),
(1072,614,o),
(913,720,o),
(651,806,cs),
(435,877,o),
(278,947,o),
(278,1121,cs),
(278,1275,o),
(388,1339,o),
(581,1339,cs),
(782,1339,o),
(890,1264,o),
(890,1070,cs),
(890,1044,o),
(890,1027,o),
(890,1002,c),
(1061,1002,l),
(1061,1031,o),
(1061,1048,o),
(1061,1077,cs),
(1061,1357,o),
(872,1493,o),
(578,1493,cs),
(300,1493,o),
(112,1361,o),
(112,1121,cs),
(112,876,o),
(292,749,o),
(539,673,cs),
(756,606,o),
(905,533,o),
(905,363,cs),
(905,202,o),
(796,134,o),
(585,134,cs),
(381,134,o),
(272,218,o),
(272,422,cs),
(272,448,o),
(272,461,o),
(272,487,c),
(101,487,l),
(101,460,o),
(101,446,o),
(101,419,cs),
(101,126,o),
(281,-20,o),
(587,-20,c)
);
}
);
width = 1173;
},
{
anchors = (
{
name = bottom;
pos = (434,0);
},
{
name = top;
pos = (734,1475);
}
);
layerId = "2503C51C-5A6C-4B2C-A968-78FEA18C2585";
shapes = (
{
closed = 1;
nodes = (
(732,-17,o),
(943,142,o),
(943,419,cs),
(943,586,o),
(830,686,o),
(620,761,cs),
(420,832,o),
(290,924,o),
(290,1099,cs),
(290,1334,o),
(478,1460,o),
(734,1460,cs),
(945,1460,o),
(1066,1383,o),
(1066,1203,cs),
(1066,1145,o),
(1057,1091,o),
(1037,1000,c),
(1068,1000,l),
(1088,1088,o),
(1097,1146,o),
(1097,1207,cs),
(1097,1400,o),
(966,1488,o),
(734,1488,cs),
(458,1488,o),
(258,1354,o),
(258,1094,cs),
(258,910,o),
(389,813,o),
(612,731,cs),
(801,662,o),
(911,571,o),
(911,415,cs),
(911,158,o),
(714,11,o),
(434,11,cs),
(222,11,o),
(107,97,o),
(107,281,cs),
(107,343,o),
(116,392,o),
(138,484,c),
(107,484,l),
(86,394,o),
(75,341,o),
(75,275,cs),
(75,80,o),
(199,-17,o),
(438,-17,c)
);
}
);
width = 1095;
},
{
anchors = (
{
name = bottom;
pos = (458,0);
},
{
name = top;
pos = (756,1475);
}
);
layerId = "BEF1FBB1-ACEC-4AC1-9895-C09886024D55";
shapes = (
{
closed = 1;
nodes = (
(779,-20,o),
(1023,147,o),
(1023,442,cs),
(1023,624,o),
(892,732,o),
(679,806,cs),
(496,870,o),
(378,938,o),
(378,1078,cs),
(378,1261,o),
(527,1339,o),
(732,1339,cs),
(900,1339,o),
(992,1293,o),
(992,1157,cs),
(992,1109,o),
(984,1063,o),
(970,1002,c),
(1141,1002,l),
(1156,1066,o),
(1166,1123,o),
(1166,1182,cs),
(1166,1385,o),
(1004,1493,o),
(750,1493,cs),
(447,1493,o),
(209,1332,o),
(209,1047,cs),
(209,856,o),
(361,740,o),
(564,673,cs),
(741,615,o),
(852,540,o),
(852,413,cs),
(852,219,o),
(692,134,o),
(476,134,cs),
(306,134,o),
(216,186,o),
(216,328,cs),
(216,375,o),
(223,418,o),
(240,487,c),
(70,487,l),
(52,415,o),
(42,367,o),
(42,302,cs),
(42,90,o),
(204,-20,o),
(459,-20,c)
);
}
);
width = 1137;
},
{
anchors = (
{
name = bottom;
pos = (554,0);
},
{
name = top;
pos = (842,1475);
}
);
layerId = "3FDD6C00-F7FD-4E85-84B0-0136AF7D7529";
shapes = (
{
closed = 1;
nodes = (
(912,-26,o),
(1212,154,o),
(1212,481,cs),
(1212,688,o),
(1046,779,o),
(837,865,cs),
(685,928,o),
(579,974,o),
(579,1046,cs),
(579,1143,o),
(665,1190,o),
(783,1190,cs),
(880,1190,o),
(925,1144,o),
(925,1080,cs),
(925,1050,o),
(917,1016,o),
(914,1004,c),
(1317,1004,l),
(1325,1029,o),
(1336,1085,o),
(1336,1139,cs),
(1336,1361,o),
(1122,1500,o),
(832,1500,cs),
(485,1500,o),
(183,1294,o),
(183,969,cs),
(183,765,o),
(368,672,o),
(533,607,cs),
(691,545,o),
(808,487,o),
(808,409,cs),
(808,321,o),
(710,285,o),
(600,285,cs),
(500,285,o),
(452,335,o),
(452,406,cs),
(452,428,o),
(457,460,o),
(466,493,c),
(63,493,l),
(51,449,o),
(42,409,o),
(42,346,cs),
(42,107,o),
(267,-26,o),
(548,-26,c)
);
}
);
width = 1304;
}
);
metricLeft = O;
metricRight = O;
note = S;
unicode = 83;
},
{
glyphname = Scedilla;
kernLeft = S;
kernRight = S;
lastChange = "2022-02-09 18:02:24 +0000";
layers = (
{
layerId = "A1A0948C-E637-4A65-8CCC-05505AD98C44";
shapes = (
{
closed = 1;
nodes = (
(555,-143,o),
(507,-160,o),
(496,-185,c),
(497,-195,l),
(561,0,l),
(531,0,l),
(465,-199,l),
(494,-212,l),
(515,-188,o),
(560,-171,o),
(596,-171,cs),
(653,-171,o),
(690,-201,o),
(690,-273,cs),
(690,-357,o),
(620,-406,o),
(535,-406,cs),
(470,-406,o),
(434,-387,o),
(423,-379,c),
(409,-407,l),
(419,-415,o),
(465,-434,o),
(531,-434,cs),
(633,-434,o),
(720,-378,o),
(720,-273,cs),
(720,-178,o),
(666,-143,o),
(601,-143,cs)
);
},
{
ref = S;
}
);
width = 1089;
},
{
layerId = "584F9D0D-8480-40C6-ABEA-8DD6EE64252D";
shapes = (
{
closed = 1;
nodes = (
(707,-56,o),
(669,-75,o),
(656,-107,c),
(666,-107,l),
(724,0,l),
(558,0,l),
(484,-143,l),
(630,-182,l),
(644,-160,o),
(678,-150,o),
(709,-150,cs),
(740,-150,o),
(766,-165,o),
(766,-199,cs),
(766,-243,o),
(714,-265,o),
(643,-265,cs),
(572,-265,o),
(489,-230,o),
(459,-212,c),
(383,-353,l),
(426,-382,o),
(541,-410,o),
(630,-410,cs),
(782,-410,o),
(937,-350,o),
(937,-207,cs),
(937,-95,o),
(844,-56,o),
(772,-56,cs)
);
},
{
ref = S;
}
);
width = 1296;
},
{
layerId = "F6BDCC95-B00C-46EE-8A70-124DE74BF6E5";
shapes = (
{
closed = 1;
nodes = (
(616,-100,o),
(562,-128,o),
(550,-156,c),
(564,-162,l),
(626,0,l),
(545,0,l),
(476,-178,l),
(549,-201,l),
(567,-178,o),
(608,-163,o),
(642,-163,cs),
(689,-163,o),
(722,-188,o),
(722,-245,cs),
(722,-314,o),
(659,-353,o),
(579,-353,cs),
(512,-353,o),
(458,-328,o),
(440,-316,c),
(403,-387,l),
(425,-403,o),
(497,-425,o),
(572,-425,cs),
(693,-425,o),
(805,-368,o),
(805,-248,cs),
(805,-147,o),
(737,-100,o),
(669,-100,cs)
);
},
{
ref = S;
}
);
width = 1173;
},
{
layerId = "2503C51C-5A6C-4B2C-A968-78FEA18C2585";
shapes = (
{
closed = 1;
nodes = (
(421,-156,o),
(375,-173,o),
(360,-198,c),
(360,-208,l),
(451,-13,l),
(421,-13,l),
(328,-212,l),
(355,-225,l),
(379,-201,o),
(426,-184,o),
(462,-184,cs),
(512,-184,o),
(544,-207,o),
(544,-262,cs),
(544,-361,o),
(461,-419,o),
(368,-419,cs),
(303,-419,o),
(270,-400,o),
(260,-392,c),
(242,-420,l),
(251,-428,o),
(298,-447,o),
(364,-447,cs),
(474,-447,o),
(574,-381,o),
(574,-259,cs),
(574,-184,o),
(525,-156,o),
(467,-156,cs)
);
},
{
ref = S;
}
);
width = 1095;
},
{
layerId = "BEF1FBB1-ACEC-4AC1-9895-C09886024D55";
shapes = (
{
closed = 1;
nodes = (
(470,-115,o),
(416,-143,o),
(400,-171,c),
(414,-177,l),
(498,-15,l),
(417,-15,l),
(324,-193,l),
(393,-216,l),
(414,-193,o),
(457,-178,o),
(491,-178,cs),
(533,-178,o),
(562,-197,o),
(562,-242,cs),
(562,-323,o),
(488,-368,o),
(402,-368,cs),
(335,-368,o),
(284,-343,o),
(268,-331,c),
(221,-402,l),
(241,-418,o),
(316,-440,o),
(390,-440,cs),
(521,-440,o),
(645,-371,o),
(645,-237,cs),
(645,-155,o),
(584,-115,o),
(523,-115,cs)
);
},
{
ref = S;
}
);
width = 1137;
},
{
layerId = "3FDD6C00-F7FD-4E85-84B0-0136AF7D7529";
shapes = (
{
closed = 1;
nodes = (
(608,-74,o),
(567,-93,o),
(550,-125,c),
(560,-125,l),
(633,-18,l),
(467,-18,l),
(373,-161,l),
(513,-200,l),
(530,-178,o),
(566,-168,o),
(597,-168,cs),
(625,-168,o),
(648,-180,o),
(648,-208,cs),
(648,-258,o),
(590,-283,o),
(515,-283,cs),
(444,-283,o),
(365,-248,o),
(338,-230,c),
(242,-371,l),
(281,-400,o),
(402,-428,o),
(491,-428,cs),
(657,-428,o),
(819,-354,o),
(819,-200,cs),
(819,-107,o),
(739,-74,o),
(673,-74,cs)
);
},
{
ref = S;
}
);
width = 1304;
}
);
unicode = 350;
},
{
glyphname = Germandbls;
kernLeft = H;
kernRight = S;
lastChange = "2022-02-09 18:02:24 +0000";
layers = (
{
layerId = "A1A0948C-E637-4A65-8CCC-05505AD98C44";
shapes = (
{
closed = 1;
nodes = (
(205,0,l),
(205,1133,ls),
(205,1340,o),
(306,1447,o),
(502,1447,cs),
(885,1447,l),
(462,894,l),
(495,863,l),
(523,869,o),
(552,872,o),
(581,872,cs),
(781,872,o),
(969,720,o),
(969,449,cs),
(969,139,o),
(786,15,o),
(555,15,cs),
(488,15,o),
(413,36,o),
(389,47,c),
(375,17,l),
(404,5,o),
(477,-13,o),
(557,-13,cs),
(816,-13,o),
(1001,129,o),
(1001,449,cs),
(1001,732,o),
(809,900,o),
(585,900,cs),
(556,900,o),
(527,897,o),
(497,891,c),
(920,1445,l),
(920,1475,l),
(501,1475,ls),
(284,1475,o),
(175,1353,o),
(175,1128,cs),
(175,0,l)
);
}
);
width = 1116;
},
{
layerId = "584F9D0D-8480-40C6-ABEA-8DD6EE64252D";
shapes = (
{
closed = 1;
nodes = (
(514,0,l),
(514,1061,ls),
(514,1129,o),
(538,1175,o),
(608,1175,cs),
(853,1175,l),
(543,869,l),
(732,623,l),
(743,631,o),
(776,653,o),
(826,653,cs),
(910,653,o),
(965,600,o),
(965,476,cs),
(965,352,o),
(897,287,o),
(814,287,cs),
(727,287,o),
(628,310,o),
(604,321,c),
(604,17,l),
(633,5,o),
(706,-13,o),
(806,-13,cs),
(1120,-13,o),
(1371,109,o),
(1371,459,cs),
(1371,793,o),
(1195,891,o),
(1024,891,cs),
(1004,891,o),
(974,889,o),
(955,885,c),
(1259,1157,l),
(1259,1475,l),
(555,1475,ls),
(313,1475,o),
(110,1365,o),
(110,1097,cs),
(110,0,l)
);
}
);
width = 1441;
},
{
layerId = "F6BDCC95-B00C-46EE-8A70-124DE74BF6E5";
shapes = (
{
closed = 1;
nodes = (
(312,0,l),
(312,1086,ls),
(312,1241,o),
(384,1325,o),
(532,1325,cs),
(834,1325,l),
(453,885,l),
(575,763,l),
(596,770,o),
(627,780,o),
(664,780,cs),
(820,780,o),
(958,695,o),
(958,459,cs),
(958,229,o),
(818,137,o),
(643,137,cs),
(558,137,o),
(474,161,o),
(450,172,c),
(442,19,l),
(471,6,o),
(544,-13,o),
(641,-13,cs),
(921,-13,o),
(1130,132,o),
(1130,453,cs),
(1130,755,o),
(954,912,o),
(750,912,cs),
(715,912,o),
(685,906,o),
(669,899,c),
(1038,1317,l),
(1038,1475,l),
(512,1475,ls),
(286,1475,o),
(141,1358,o),
(141,1116,cs),
(141,0,l)
);
}
);
width = 1231;
},
{
layerId = "2503C51C-5A6C-4B2C-A968-78FEA18C2585";
shapes = (
{
closed = 1;
nodes = (
(93,0,l),
(333,1133,l),
(377,1340,o),
(501,1447,o),
(697,1447,c),
(1076,1447,l),
(536,894,l),
(566,863,l),
(595,869,o),
(635,872,o),
(664,872,cs),
(834,872,o),
(964,762,o),
(964,561,cs),
(964,254,o),
(755,15,o),
(442,15,cs),
(375,15,o),
(308,36,o),
(287,47,c),
(266,17,l),
(293,5,o),
(362,-13,o),
(442,-13,cs),
(773,-13,o),
(995,232,o),
(995,561,cs),
(995,776,o),
(857,900,o),
(664,900,cs),
(635,900,o),
(605,897,o),
(574,891,c),
(1115,1445,l),
(1121,1475,l),
(702,1475,l),
(485,1475,o),
(350,1353,o),
(302,1128,c),
(63,0,l)
);
}
);
width = 1121;
},
{
layerId = "BEF1FBB1-ACEC-4AC1-9895-C09886024D55";
shapes = (
{
closed = 1;
nodes = (
(199,0,l),
(429,1086,l),
(462,1241,o),
(552,1325,o),
(700,1325,c),
(1002,1325,l),
(528,885,l),
(624,763,l),
(646,770,o),
(679,780,o),
(716,780,cs),
(848,780,o),
(953,720,o),
(953,559,cs),
(953,321,o),
(802,137,o),
(559,137,cs),
(474,137,o),
(395,161,o),
(373,172,c),
(333,19,l),
(359,6,o),
(428,-13,o),
(525,-13,cs),
(882,-13,o),
(1122,210,o),
(1122,563,cs),
(1122,787,o),
(998,912,o),
(830,912,cs),
(795,912,o),
(764,906,o),
(747,899,c),
(1205,1317,l),
(1238,1475,l),
(712,1475,l),
(486,1475,o),
(316,1358,o),
(265,1116,c),
(28,0,l)
);
}
);
width = 1215;
},
{
layerId = "3FDD6C00-F7FD-4E85-84B0-0136AF7D7529";
shapes = (
{
closed = 1;
nodes = (
(401,0,l),
(626,1061,l),
(641,1130,o),
(674,1175,o),
(744,1175,c),
(979,1175,l),
(614,869,l),
(751,623,l),
(764,631,o),
(801,653,o),
(851,653,cs),
(922,653,o),
(957,609,o),
(957,533,cs),
(957,406,o),
(882,287,o),
(762,287,cs),
(675,287,o),
(581,310,o),
(559,321,c),
(494,17,l),
(521,5,o),
(633,-13,o),
(733,-13,cs),
(1130,-13,o),
(1364,187,o),
(1364,575,cs),
(1364,816,o),
(1233,891,o),
(1110,891,cs),
(1090,891,o),
(1060,889,o),
(1040,885,c),
(1392,1157,l),
(1459,1475,l),
(755,1475,l),
(513,1475,o),
(287,1365,o),
(230,1097,c),
(-3,0,l)
);
}
);
width = 1444;
}
);
metricLeft = H;
metricRight = S;
unicode = 7838;
},
{
glyphname = T;
kernLeft = T;
kernRight = T;
lastChange = "2022-02-09 18:02:24 +0000";
layers = (
{
anchors = (
{
name = bottom;
pos = (543,0);
},
{
name = center;
pos = (541,738);
},
{
name = top;
pos = (541,1475);
}
);
layerId = "A1A0948C-E637-4A65-8CCC-05505AD98C44";
shapes = (
{
closed = 1;
nodes = (
(968,1475,l),
(115,1475,l),
(115,1447,l),
(540,1447,l),
(526,1461,l),
(526,0,l),
(557,0,l),
(557,1461,l),
(543,1447,l),
(968,1447,l)
);
}
);
width = 1083;
},
{
anchors = (
{
name = bottom;
pos = (608,0);
},
{
name = center;
pos = (608,738);
},
{
name = top;
pos = (608,1475);
}
);
layerId = "584F9D0D-8480-40C6-ABEA-8DD6EE64252D";
shapes = (
{
closed = 1;
nodes = (
(1154,1475,l),
(60,1475,l),
(60,1175,l),
(587,1175,l),
(405,1357,l),
(405,0,l),
(808,0,l),
(808,1357,l),
(626,1175,l),
(1154,1175,l)
);
}
);
width = 1214;
},
{
anchors = (
{
name = bottom;
pos = (551,0);
},
{
name = center;
pos = (549,738);
},
{
name = top;
pos = (549,1475);
}
);
layerId = "F6BDCC95-B00C-46EE-8A70-124DE74BF6E5";
shapes = (
{
closed = 1;
nodes = (
(1021,1475,l),
(78,1475,l),
(78,1325,l),
(512,1325,l),
(464,1422,l),
(464,0,l),
(634,0,l),
(634,1422,l),
(595,1325,l),
(1021,1325,l)
);
}
);
width = 1099;
},
{
anchors = (
{
name = bottom;
pos = (430,0);
},
{
name = center;
pos = (586,738);
},
{
name = top;
pos = (743,1475);
}
);
layerId = "2503C51C-5A6C-4B2C-A968-78FEA18C2585";
shapes = (
{
closed = 1;
nodes = (
(1171,1475,l),
(316,1475,l),
(311,1447,l),
(736,1447,l),
(725,1461,l),
(415,0,l),
(447,0,l),
(756,1461,l),
(739,1447,l),
(1164,1447,l)
);
}
);
width = 1085;
},
{
anchors = (
{
name = bottom;
pos = (440,0);
},
{
name = center;
pos = (592,738);
},
{
name = top;
pos = (749,1475);
}
);
layerId = "BEF1FBB1-ACEC-4AC1-9895-C09886024D55";
shapes = (
{
closed = 1;
nodes = (
(1223,1475,l),
(280,1475,l),
(248,1325,l),
(711,1325,l),
(654,1422,l),
(352,0,l),
(522,0,l),
(824,1422,l),
(727,1325,l),
(1191,1325,l)
);
}
);
width = 1100;
},
{
anchors = (
{
name = bottom;
pos = (501,0);
},
{
name = center;
pos = (648,738);
},
{
name = top;
pos = (805,1475);
}
);
layerId = "3FDD6C00-F7FD-4E85-84B0-0136AF7D7529";
shapes = (
{
closed = 1;
nodes = (
(1356,1475,l),
(262,1475,l),
(198,1175,l),
(725,1175,l),
(581,1353,l),
(293,0,l),
(696,0,l),
(984,1353,l),
(764,1175,l),
(1292,1175,l)
);
}
);
width = 1214;
}
);
note = T;
unicode = 84;
},
{
glyphname = Tbar;
kernLeft = T;
kernRight = T;
lastChange = "2022-02-09 18:02:24 +0000";
layers = (
{
layerId = "A1A0948C-E637-4A65-8CCC-05505AD98C44";
shapes = (
{
closed = 1;
nodes = (
(873,725,l),
(873,751,l),
(209,751,l),
(209,725,l)
);
},
{
ref = T;
}
);
width = 1083;
},
{
layerId = "584F9D0D-8480-40C6-ABEA-8DD6EE64252D";
shapes = (
{
closed = 1;
nodes = (
(983,648,l),
(983,827,l),
(233,827,l),
(233,648,l)
);
},
{
ref = T;
}
);
width = 1214;
},
{
layerId = "F6BDCC95-B00C-46EE-8A70-124DE74BF6E5";
shapes = (
{
closed = 1;
nodes = (
(897,697,l),
(897,780,l),
(201,780,l),
(201,697,l)
);
},
{
ref = T;
}
);
width = 1099;
},
{
layerId = "2503C51C-5A6C-4B2C-A968-78FEA18C2585";
shapes = (
{
closed = 1;
nodes = (
(915,725,l),
(920,751,l),
(258,751,l),
(251,725,l)
);
},
{
ref = T;
}
);
width = 1085;
},
{
layerId = "BEF1FBB1-ACEC-4AC1-9895-C09886024D55";
shapes = (
{
closed = 1;
nodes = (
(931,697,l),
(948,780,l),
(253,780,l),
(234,697,l)
);
},
{
ref = T;
}
);
width = 1100;
},
{
layerId = "3FDD6C00-F7FD-4E85-84B0-0136AF7D7529";
shapes = (
{
closed = 1;
nodes = (
(1004,648,l),
(1042,827,l),
(292,827,l),
(254,648,l)
);
},
{
ref = T;
}
);
width = 1214;
}
);
unicode = 358;
},
{
glyphname = U;
kernLeft = U;
kernRight = U;
lastChange = "2022-02-09 18:02:24 +0000";
layers = (
{
anchors = (
{
name = bottom;
pos = (635,0);
},
{
name = ogonek;
pos = (826,17);
},
{
name = top;
pos = (634,1475);
},
{
name = topright;
pos = (1085,1475);
}
);
layerId = "A1A0948C-E637-4A65-8CCC-05505AD98C44";
shapes = (
{
closed = 1;
nodes = (
(1095,1475,l),
(1065,1475,l),
(1065,566,ls),
(1065,182,o),
(906,11,o),
(635,11,cs),
(364,11,o),
(205,182,o),
(205,566,cs),
(205,631,o),
(205,707,o),
(205,794,cs),
(205,1475,l),
(175,1475,l),
(175,781,ls),
(175,695,o),
(175,620,o),
(175,555,cs),
(175,162,o),
(343,-17,o),
(635,-17,cs),
(927,-17,o),
(1095,162,o),
(1095,555,cs)
);
}
);
width = 1270;
},
{
anchors = (
{
name = bottom;
pos = (693,0);
},
{
name = ogonek;
pos = (989,30);
},
{
name = top;
pos = (694,1475);
},
{
name = topright;
pos = (1111,1475);
}
);
layerId = "584F9D0D-8480-40C6-ABEA-8DD6EE64252D";
shapes = (
{
closed = 1;
nodes = (
(1278,1475,l),
(874,1475,l),
(874,515,ls),
(874,366,o),
(829,285,o),
(693,285,cs),
(557,285,o),
(514,366,o),
(514,515,cs),
(514,544,o),
(514,577,o),
(514,615,cs),
(514,1475,l),
(110,1475,l),
(110,678,ls),
(110,623,o),
(110,572,o),
(110,525,cs),
(110,158,o),
(333,-26,o),
(693,-26,cs),
(1053,-26,o),
(1278,158,o),
(1278,525,cs)
);
}
);
width = 1388;
},
{
anchors = (
{
name = bottom;
pos = (647,0);
},
{
name = ogonek;
pos = (869,20);
},
{
name = top;
pos = (647,1475);
},
{
name = topright;
pos = (1085,1475);
}
);
layerId = "F6BDCC95-B00C-46EE-8A70-124DE74BF6E5";
shapes = (
{
closed = 1;
nodes = (
(1154,1475,l),
(984,1475,l),
(984,547,ls),
(984,251,o),
(868,134,o),
(647,134,cs),
(427,134,o),
(312,251,o),
(312,547,cs),
(312,598,o),
(312,658,o),
(312,727,cs),
(312,1475,l),
(141,1475,l),
(141,742,ls),
(141,668,o),
(141,602,o),
(141,544,cs),
(141,161,o),
(330,-20,o),
(647,-20,cs),
(965,-20,o),
(1154,161,o),
(1154,544,cs)
);
}
);
width = 1295;
},
{
anchors = (
{
name = bottom;
pos = (527,0);
},
{
name = ogonek;
pos = (724,17);
},
{
name = top;
pos = (846,1475);
},
{
name = topright;
pos = (1284,1475);
}
);
layerId = "2503C51C-5A6C-4B2C-A968-78FEA18C2585";
shapes = (
{
closed = 1;
nodes = (
(1297,1475,l),
(1267,1475,l),
(1074,566,ls),
(992,182,o),
(798,11,o),
(527,11,cs),
(311,11,o),
(193,117,o),
(193,354,cs),
(193,474,o),
(214,573,o),
(261,794,cs),
(407,1475,l),
(377,1475,l),
(228,781,ls),
(184,574,o),
(162,464,o),
(162,348,cs),
(162,98,o),
(285,-17,o),
(527,-17,cs),
(812,-17,o),
(1019,162,o),
(1102,555,cs)
);
}
);
width = 1272;
},
{
anchors = (
{
name = bottom;
pos = (557,0);
},
{
name = ogonek;
pos = (776,20);
},
{
name = top;
pos = (861,1475);
},
{
name = topright;
pos = (1296,1475);
}
);
layerId = "BEF1FBB1-ACEC-4AC1-9895-C09886024D55";
shapes = (
{
closed = 1;
nodes = (
(1358,1475,l),
(1188,1475,l),
(991,547,ls),
(928,251,o),
(783,134,o),
(563,134,cs),
(390,134,o),
(301,197,o),
(301,378,cs),
(301,473,o),
(317,552,o),
(355,728,cs),
(516,1475,l),
(345,1475,l),
(186,743,ls),
(147,562,o),
(129,465,o),
(129,360,cs),
(129,104,o),
(278,-20,o),
(553,-20,cs),
(858,-20,o),
(1080,161,o),
(1161,544,cs)
);
}
);
width = 1299;
},
{
anchors = (
{
name = bottom;
pos = (612,0);
},
{
name = ogonek;
pos = (906,30);
},
{
name = top;
pos = (909,1475);
},
{
name = topright;
pos = (1339,1475);
}
);
layerId = "3FDD6C00-F7FD-4E85-84B0-0136AF7D7529";
shapes = (
{
closed = 1;
nodes = (
(1483,1475,l),
(1079,1475,l),
(875,515,ls),
(843,366,o),
(781,285,o),
(645,285,cs),
(543,285,o),
(503,331,o),
(503,417,cs),
(503,472,o),
(511,516,o),
(533,617,cs),
(719,1475,l),
(315,1475,l),
(142,680,ls),
(112,541,o),
(97,467,o),
(97,381,cs),
(97,113,o),
(283,-26,o),
(612,-26,cs),
(952,-26,o),
(1203,158,o),
(1281,525,cs)
);
}
);
width = 1392;
}
);
metricLeft = H;
metricRight = H;
note = U;
unicode = 85;
},
{
glyphname = Uhorn;
kernLeft = U;
kernRight = Uhorn;
lastChange = "2022-02-09 18:02:24 +0000";
layers = (
{
anchors = (
{
name = bottom;
pos = (635,-17);
},
{
name = ogonek;
pos = (826,17);
},
{
name = top;
pos = (634,1475);
},
{
name = topright;
pos = (1085,1475);
}
);
layerId = "A1A0948C-E637-4A65-8CCC-05505AD98C44";
shapes = (
{
closed = 1;
nodes = (
(1085,1447,l),
(1228,1447,o),
(1323,1543,o),
(1323,1728,c),
(1291,1728,l),
(1291,1557,o),
(1209,1475,o),
(1085,1475,c)
);
},
{
closed = 1;
nodes = (
(1095,1475,l),
(1065,1475,l),
(1065,566,ls),
(1065,182,o),
(906,11,o),
(635,11,cs),
(364,11,o),
(205,182,o),
(205,566,cs),
(205,631,o),
(205,707,o),
(205,794,cs),
(205,1475,l),
(175,1475,l),
(175,781,ls),
(175,695,o),
(175,620,o),
(175,555,cs),
(175,162,o),
(343,-17,o),
(635,-17,cs),
(927,-17,o),
(1095,162,o),
(1095,555,cs)
);
}
);
width = 1338;
},
{
anchors = (
{
name = bottom;
pos = (693,-26);
},
{
name = ogonek;
pos = (989,30);
},
{
name = top;
pos = (694,1475);
},
{
name = topright;
pos = (1111,1475);
}
);
layerId = "584F9D0D-8480-40C6-ABEA-8DD6EE64252D";
shapes = (
{
closed = 1;
nodes = (
(1111,1285,l),
(1348,1285,o),
(1492,1422,o),
(1492,1736,c),
(1248,1736,l),
(1248,1565,o),
(1213,1475,o),
(1111,1475,c)
);
},
{
closed = 1;
nodes = (
(1278,1475,l),
(874,1475,l),
(874,515,ls),
(874,366,o),
(829,285,o),
(693,285,cs),
(557,285,o),
(514,366,o),
(514,515,cs),
(514,544,o),
(514,577,o),
(514,615,cs),
(514,1475,l),
(110,1475,l),
(110,678,ls),
(110,623,o),
(110,572,o),
(110,525,cs),
(110,158,o),
(333,-26,o),
(693,-26,cs),
(1053,-26,o),
(1278,158,o),
(1278,525,cs)
);
}
);
width = 1472;
},
{
anchors = (
{
name = bottom;
pos = (647,-20);
},
{
name = ogonek;
pos = (869,20);
},
{
name = top;
pos = (647,1475);
},
{
name = topright;
pos = (1085,1475);
}
);
layerId = "F6BDCC95-B00C-46EE-8A70-124DE74BF6E5";
shapes = (
{
closed = 1;
nodes = (
(1085,1386,l),
(1264,1386,o),
(1377,1498,o),
(1377,1731,c),
(1265,1731,l),
(1265,1560,o),
(1201,1475,o),
(1085,1475,c)
);
},
{
closed = 1;
nodes = (
(1154,1475,l),
(984,1475,l),
(984,547,ls),
(984,251,o),
(868,134,o),
(647,134,cs),
(427,134,o),
(312,251,o),
(312,547,cs),
(312,598,o),
(312,658,o),
(312,727,cs),
(312,1475,l),
(141,1475,l),
(141,742,ls),
(141,668,o),
(141,602,o),
(141,544,cs),
(141,161,o),
(330,-20,o),
(647,-20,cs),
(965,-20,o),
(1154,161,o),
(1154,544,cs)
);
}
);
width = 1377;
},
{
anchors = (
{
name = bottom;
pos = (528,-17);
},
{
name = ogonek;
pos = (724,17);
},
{
name = top;
pos = (846,1475);
},
{
name = topright;
pos = (1284,1475);
}
);
layerId = "2503C51C-5A6C-4B2C-A968-78FEA18C2585";
shapes = (
{
closed = 1;
nodes = (
(1278,1447,l),
(1431,1447,o),
(1529,1543,o),
(1549,1728,c),
(1517,1728,l),
(1499,1557,o),
(1408,1475,o),
(1284,1475,c)
);
},
{
closed = 1;
nodes = (
(1297,1475,l),
(1267,1475,l),
(1074,566,ls),
(992,182,o),
(798,11,o),
(527,11,cs),
(311,11,o),
(193,117,o),
(193,354,cs),
(193,474,o),
(214,573,o),
(261,794,cs),
(407,1475,l),
(377,1475,l),
(228,781,ls),
(184,574,o),
(162,464,o),
(162,348,cs),
(162,98,o),
(285,-17,o),
(527,-17,cs),
(812,-17,o),
(1019,162,o),
(1102,555,cs)
);
}
);
width = 1288;
},
{
anchors = (
{
name = bottom;
pos = (551,-20);
},
{
name = ogonek;
pos = (776,20);
},
{
name = top;
pos = (861,1475);
},
{
name = topright;
pos = (1296,1475);
}
);
layerId = "BEF1FBB1-ACEC-4AC1-9895-C09886024D55";
shapes = (
{
closed = 1;
nodes = (
(1276,1386,l),
(1472,1386,o),
(1589,1498,o),
(1614,1731,c),
(1502,1731,l),
(1484,1560,o),
(1411,1475,o),
(1295,1475,c)
);
},
{
closed = 1;
nodes = (
(1358,1475,l),
(1188,1475,l),
(991,547,ls),
(928,251,o),
(783,134,o),
(563,134,cs),
(390,134,o),
(301,197,o),
(301,378,cs),
(301,473,o),
(317,552,o),
(355,728,cs),
(516,1475,l),
(345,1475,l),
(186,743,ls),
(147,562,o),
(129,465,o),
(129,360,cs),
(129,104,o),
(278,-20,o),
(553,-20,cs),
(858,-20,o),
(1080,161,o),
(1161,544,cs)
);
}
);
width = 1307;
},
{
anchors = (
{
name = bottom;
pos = (612,-26);
},
{
name = ogonek;
pos = (906,30);
},
{
name = top;
pos = (909,1475);
},
{
name = topright;
pos = (1339,1475);
}
);
layerId = "3FDD6C00-F7FD-4E85-84B0-0136AF7D7529";
shapes = (
{
closed = 1;
nodes = (
(1299,1285,l),
(1566,1285,o),
(1714,1422,o),
(1747,1736,c),
(1503,1736,l),
(1485,1565,o),
(1441,1475,o),
(1339,1475,c)
);
},
{
closed = 1;
nodes = (
(1483,1475,l),
(1079,1475,l),
(875,515,ls),
(843,366,o),
(781,285,o),
(645,285,cs),
(543,285,o),
(503,331,o),
(503,417,cs),
(503,472,o),
(511,516,o),
(533,617,cs),
(719,1475,l),
(315,1475,l),
(142,680,ls),
(112,541,o),
(97,467,o),
(97,381,cs),
(97,113,o),
(283,-26,o),
(612,-26,cs),
(952,-26,o),
(1203,158,o),
(1281,525,cs)
);
}
);
width = 1472;
}
);
unicode = 431;
},
{
glyphname = Uogonek;
kernLeft = U;
kernRight = U;
lastChange = "2022-02-09 18:02:24 +0000";
layers = (
{
layerId = "A1A0948C-E637-4A65-8CCC-05505AD98C44";
shapes = (
{
closed = 1;
nodes = (
(803,-344,o),
(766,-348,o),
(738,-348,cs),
(670,-348,o),
(631,-313,o),
(631,-246,cs),
(631,-162,o),
(741,-58,o),
(826,17,c),
(798,17,l),
(701,-56,o),
(595,-155,o),
(595,-248,cs),
(595,-340,o),
(656,-379,o),
(734,-379,cs),
(765,-379,o),
(802,-375,o),
(826,-370,c),
(826,-339,l)
);
},
{
ref = U;
}
);
width = 1270;
},
{
layerId = "584F9D0D-8480-40C6-ABEA-8DD6EE64252D";
shapes = (
{
closed = 1;
nodes = (
(967,-243,o),
(941,-246,o),
(917,-246,cs),
(869,-246,o),
(824,-237,o),
(824,-192,cs),
(824,-131,o),
(939,-10,o),
(989,30,c),
(801,30,l),
(742,-9,o),
(593,-124,o),
(593,-258,cs),
(593,-389,o),
(743,-432,o),
(895,-432,cs),
(929,-432,o),
(961,-430,o),
(989,-427,c),
(989,-240,l)
);
},
{
ref = U;
}
);
width = 1388;
},
{
layerId = "F6BDCC95-B00C-46EE-8A70-124DE74BF6E5";
shapes = (
{
closed = 1;
nodes = (
(846,-319,o),
(813,-323,o),
(787,-323,cs),
(726,-323,o),
(685,-298,o),
(685,-239,cs),
(685,-164,o),
(797,-44,o),
(869,20,c),
(771,20,l),
(688,-43,o),
(583,-160,o),
(583,-261,cs),
(583,-368,o),
(670,-412,o),
(776,-412,cs),
(808,-412,o),
(843,-409,o),
(869,-405,c),
(869,-315,l)
);
},
{
ref = U;
}
);
width = 1295;
},
{
layerId = "2503C51C-5A6C-4B2C-A968-78FEA18C2585";
shapes = (
{
closed = 1;
nodes = (
(663,-344,o),
(625,-348,o),
(597,-348,cs),
(535,-348,o),
(500,-319,o),
(500,-262,cs),
(500,-166,o),
(633,-57,o),
(724,17,c),
(696,17,l),
(593,-55,o),
(464,-159,o),
(464,-268,cs),
(464,-346,o),
(518,-379,o),
(590,-379,cs),
(621,-379,o),
(659,-375,o),
(683,-370,c),
(686,-339,l)
);
},
{
ref = U;
}
);
width = 1272;
},
{
layerId = "BEF1FBB1-ACEC-4AC1-9895-C09886024D55";
shapes = (
{
closed = 1;
nodes = (
(717,-319,o),
(684,-323,o),
(658,-323,cs),
(597,-323,o),
(564,-302,o),
(564,-249,cs),
(564,-168,o),
(697,-44,o),
(776,20,c),
(678,20,l),
(588,-43,o),
(460,-153,o),
(460,-261,cs),
(460,-359,o),
(531,-412,o),
(637,-412,cs),
(669,-412,o),
(705,-409,o),
(731,-405,c),
(740,-315,l)
);
},
{
ref = U;
}
);
width = 1299;
},
{
layerId = "3FDD6C00-F7FD-4E85-84B0-0136AF7D7529";
shapes = (
{
closed = 1;
nodes = (
(856,-243,o),
(829,-246,o),
(805,-246,cs),
(757,-246,o),
(718,-237,o),
(718,-192,cs),
(718,-131,o),
(852,-10,o),
(906,30,c),
(718,30,l),
(634,-22,o),
(480,-144,o),
(480,-278,cs),
(480,-394,o),
(620,-432,o),
(764,-432,cs),
(798,-432,o),
(830,-430,o),
(858,-427,c),
(878,-240,l)
);
},
{
ref = U;
}
);
width = 1392;
}
);
unicode = 370;
},
{
glyphname = V;
kernLeft = V;
kernRight = V;
lastChange = "2022-02-09 18:02:24 +0000";
layers = (
{
anchors = (
{
name = bottom;
pos = (566,0);
},
{
name = top;
pos = (566,1475);
}
);
layerId = "A1A0948C-E637-4A65-8CCC-05505AD98C44";
shapes = (
{
closed = 1;
nodes = (
(587,-13,l),
(1019,1475,l),
(987,1475,l),
(565,15,l),
(574,15,l),
(147,1475,l),
(115,1475,l),
(553,-13,l)
);
}
);
width = 1134;
},
{
anchors = (
{
name = bottom;
pos = (686,0);
},
{
name = top;
pos = (686,1475);
}
);
layerId = "584F9D0D-8480-40C6-ABEA-8DD6EE64252D";
shapes = (
{
closed = 1;
nodes = (
(988,0,l),
(1326,1475,l),
(879,1475,l),
(676,231,l),
(691,231,l),
(487,1475,l),
(40,1475,l),
(380,0,l)
);
}
);
width = 1366;
},
{
anchors = (
{
name = bottom;
pos = (602,0);
},
{
name = top;
pos = (602,1475);
}
);
layerId = "F6BDCC95-B00C-46EE-8A70-124DE74BF6E5";
shapes = (
{
closed = 1;
nodes = (
(728,-8,l),
(1125,1475,l),
(937,1475,l),
(597,126,l),
(609,126,l),
(265,1475,l),
(78,1475,l),
(479,-8,l)
);
}
);
width = 1203;
},
{
anchors = (
{
name = bottom;
pos = (458,0);
},
{
name = top;
pos = (772,1475);
}
);
layerId = "2503C51C-5A6C-4B2C-A968-78FEA18C2585";
shapes = (
{
closed = 1;
nodes = (
(472,-13,l),
(1220,1475,l),
(1186,1475,l),
(455,12,l),
(464,12,l),
(348,1475,l),
(316,1475,l),
(438,-13,l)
);
}
);
width = 1134;
},
{
anchors = (
{
name = bottom;
pos = (487,0);
},
{
name = top;
pos = (801,1475);
}
);
layerId = "BEF1FBB1-ACEC-4AC1-9895-C09886024D55";
shapes = (
{
closed = 1;
nodes = (
(614,-8,l),
(1326,1475,l),
(1134,1475,l),
(510,125,l),
(521,125,l),
(463,1475,l),
(279,1475,l),
(365,-8,l)
);
}
);
width = 1202;
},
{
anchors = (
{
name = bottom;
pos = (560,0);
},
{
name = top;
pos = (874,1475);
}
);
layerId = "3FDD6C00-F7FD-4E85-84B0-0136AF7D7529";
shapes = (
{
closed = 1;
nodes = (
(876,0,l),
(1528,1475,l),
(1071,1475,l),
(613,231,l),
(628,231,l),
(679,1475,l),
(242,1475,l),
(268,0,l)
);
}
);
width = 1366;
}
);
metricLeft = A;
metricRight = A;
note = V;
unicode = 86;
},
{
glyphname = W;
kernLeft = V;
kernRight = V;
lastChange = "2022-02-09 18:02:24 +0000";
layers = (
{
anchors = (
{
name = bottom;
pos = (798,0);
},
{
name = top;
pos = (800,1475);
}
);
layerId = "A1A0948C-E637-4A65-8CCC-05505AD98C44";
shapes = (
{
closed = 1;
nodes = (
(440,0,l),
(798,1434,l),
(790,1434,l),
(1147,0,l),
(1182,0,l),
(1474,1475,l),
(1441,1475,l),
(1161,31,l),
(1168,31,l),
(811,1475,l),
(777,1475,l),
(419,31,l),
(427,31,l),
(148,1475,l),
(115,1475,l),
(405,0,l)
);
}
);
width = 1589;
},
{
anchors = (
{
name = bottom;
pos = (1002,0);
},
{
name = top;
pos = (1002,1475);
}
);
layerId = "584F9D0D-8480-40C6-ABEA-8DD6EE64252D";
shapes = (
{
closed = 1;
nodes = (
(882,0,l),
(1020,1213,l),
(980,1213,l),
(1117,0,l),
(1734,0,l),
(1938,1475,l),
(1523,1475,l),
(1395,63,l),
(1452,66,l),
(1246,1475,l),
(753,1475,l),
(546,66,l),
(603,63,l),
(475,1475,l),
(60,1475,l),
(264,0,l)
);
}
);
width = 1998;
},
{
anchors = (
{
name = bottom;
pos = (865,0);
},
{
name = top;
pos = (866,1475);
}
);
layerId = "F6BDCC95-B00C-46EE-8A70-124DE74BF6E5";
shapes = (
{
closed = 1;
nodes = (
(583,0,l),
(872,1331,l),
(852,1331,l),
(1140,0,l),
(1403,0,l),
(1639,1475,l),
(1462,1475,l),
(1263,73,l),
(1289,74,l),
(975,1475,l),
(749,1475,l),
(434,74,l),
(460,73,l),
(261,1475,l),
(85,1475,l),
(319,0,l)
);
}
);
width = 1724;
},
{
anchors = (
{
name = bottom;
pos = (676,0);
},
{
name = top;
pos = (990,1475);
}
);
layerId = "2503C51C-5A6C-4B2C-A968-78FEA18C2585";
shapes = (
{
closed = 1;
nodes = (
(327,0,l),
(993,1434,l),
(983,1434,l),
(1032,0,l),
(1069,0,l),
(1675,1475,l),
(1641,1475,l),
(1052,31,l),
(1060,31,l),
(1012,1475,l),
(976,1475,l),
(311,31,l),
(321,31,l),
(349,1475,l),
(316,1475,l),
(292,0,l)
);
}
);
width = 1589;
},
{
anchors = (
{
name = bottom;
pos = (747,0);
},
{
name = top;
pos = (1061,1475);
}
);
layerId = "BEF1FBB1-ACEC-4AC1-9895-C09886024D55";
shapes = (
{
closed = 1;
nodes = (
(466,0,l),
(1038,1331,l),
(1018,1331,l),
(1023,0,l),
(1286,0,l),
(1836,1475,l),
(1653,1475,l),
(1156,73,l),
(1182,74,l),
(1166,1475,l),
(940,1475,l),
(327,74,l),
(353,73,l),
(452,1475,l),
(282,1475,l),
(202,0,l)
);
}
);
width = 1724;
},
{
anchors = (
{
name = bottom;
pos = (891,0);
},
{
name = top;
pos = (1205,1475);
}
);
layerId = "3FDD6C00-F7FD-4E85-84B0-0136AF7D7529";
shapes = (
{
closed = 1;
nodes = (
(769,0,l),
(1165,1213,l),
(1125,1213,l),
(1004,0,l),
(1621,0,l),
(2139,1475,l),
(1724,1475,l),
(1296,63,l),
(1344,66,l),
(1438,1475,l),
(945,1475,l),
(438,66,l),
(504,63,l),
(676,1475,l),
(261,1475,l),
(151,0,l)
);
}
);
width = 1998;
}
);
note = W;
unicode = 87;
},
{
glyphname = X;
kernLeft = X;
kernRight = X;
lastChange = "2022-02-09 18:02:24 +0000";
layers = (
{
anchors = (
{
name = bottom;
pos = (541,0);
},
{
name = top;
pos = (541,1475);
}
);
layerId = "A1A0948C-E637-4A65-8CCC-05505AD98C44";
shapes = (
{
closed = 1;
nodes = (
(85,0,l),
(119,0,l),
(546,717,l),
(533,717,l),
(960,0,l),
(994,0,l),
(552,743,l),
(552,717,l),
(979,1475,l),
(945,1475,l),
(533,743,l),
(546,743,l),
(131,1475,l),
(97,1475,l),
(527,717,l),
(527,743,l)
);
}
);
width = 1079;
},
{
anchors = (
{
name = bottom;
pos = (708,0);
},
{
name = top;
pos = (708,1475);
}
);
layerId = "584F9D0D-8480-40C6-ABEA-8DD6EE64252D";
shapes = (
{
closed = 1;
nodes = (
(36,0,l),
(489,0,l),
(778,625,l),
(638,625,l),
(927,0,l),
(1381,0,l),
(886,892,l),
(889,566,l),
(1367,1475,l),
(913,1475,l),
(645,833,l),
(772,833,l),
(501,1475,l),
(48,1475,l),
(530,566,l),
(534,892,l)
);
}
);
width = 1418;
},
{
anchors = (
{
name = bottom;
pos = (594,0);
},
{
name = top;
pos = (594,1475);
}
);
layerId = "F6BDCC95-B00C-46EE-8A70-124DE74BF6E5";
shapes = (
{
closed = 1;
nodes = (
(57,0,l),
(248,0,l),
(654,683,l),
(533,683,l),
(938,0,l),
(1130,0,l),
(648,799,l),
(649,660,l),
(1115,1475,l),
(924,1475,l),
(536,777,l),
(651,777,l),
(260,1475,l),
(69,1475,l),
(539,660,l),
(540,799,l)
);
}
);
width = 1187;
},
{
anchors = (
{
name = bottom;
pos = (424,0);
},
{
name = top;
pos = (738,1475);
}
);
layerId = "2503C51C-5A6C-4B2C-A968-78FEA18C2585";
shapes = (
{
closed = 1;
nodes = (
(-19,0,l),
(22,0,l),
(589,717,l),
(574,717,l),
(842,0,l),
(872,0,l),
(597,743,l),
(594,717,l),
(1174,1475,l),
(1136,1475,l),
(578,743,l),
(594,743,l),
(342,1475,l),
(308,1475,l),
(571,717,l),
(574,745,l)
);
}
);
width = 1079;
},
{
anchors = (
{
name = bottom;
pos = (479,0);
},
{
name = top;
pos = (793,1475);
}
);
layerId = "BEF1FBB1-ACEC-4AC1-9895-C09886024D55";
shapes = (
{
closed = 1;
nodes = (
(-50,0,l),
(151,0,l),
(702,683,l),
(591,693,l),
(841,0,l),
(1023,0,l),
(721,809,l),
(693,660,l),
(1332,1475,l),
(1131,1475,l),
(594,777,l),
(719,787,l),
(467,1475,l),
(286,1475,l),
(593,670,l),
(603,799,l)
);
}
);
width = 1187;
},
{
anchors = (
{
name = bottom;
pos = (595,0);
},
{
name = top;
pos = (909,1475);
}
);
layerId = "3FDD6C00-F7FD-4E85-84B0-0136AF7D7529";
shapes = (
{
closed = 1;
nodes = (
(-69,0,l),
(392,0,l),
(829,625,l),
(667,625,l),
(814,0,l),
(1261,0,l),
(961,892,l),
(908,566,l),
(1569,1475,l),
(1108,1475,l),
(687,833,l),
(835,833,l),
(712,1475,l),
(265,1475,l),
(549,566,l),
(608,892,l)
);
}
);
width = 1418;
}
);
note = X;
unicode = 88;
},
{
glyphname = Y;
kernLeft = Y;
kernRight = Y;
lastChange = "2022-02-09 18:02:24 +0000";
layers = (
{
anchors = (
{
name = bottom;
pos = (516,0);
},
{
name = top;
pos = (516,1475);
},
{
name = topleft;
pos = (70,1475);
}
);
layerId = "A1A0948C-E637-4A65-8CCC-05505AD98C44";
shapes = (
{
closed = 1;
nodes = (
(885,1475,l),
(510,544,l),
(523,544,l),
(148,1475,l),
(115,1475,l),
(501,517,l),
(501,0,l),
(532,0,l),
(532,517,l),
(918,1475,l)
);
}
);
width = 1033;
},
{
anchors = (
{
name = bottom;
pos = (679,0);
},
{
name = top;
pos = (679,1475);
},
{
name = topleft;
pos = (16,1475);
}
);
layerId = "584F9D0D-8480-40C6-ABEA-8DD6EE64252D";
shapes = (
{
closed = 1;
nodes = (
(887,1475,l),
(598,692,l),
(756,692,l),
(467,1475,l),
(40,1475,l),
(475,505,l),
(475,0,l),
(877,0,l),
(877,505,l),
(1315,1475,l)
);
}
);
width = 1355;
},
{
anchors = (
{
name = bottom;
pos = (575,0);
},
{
name = top;
pos = (575,1475);
},
{
name = topleft;
pos = (48,1475);
}
);
layerId = "F6BDCC95-B00C-46EE-8A70-124DE74BF6E5";
shapes = (
{
closed = 1;
nodes = (
(891,1475,l),
(539,620,l),
(611,620,l),
(258,1475,l),
(78,1475,l),
(489,513,l),
(489,0,l),
(660,0,l),
(660,513,l),
(1073,1475,l)
);
}
);
width = 1151;
},
{
anchors = (
{
name = bottom;
pos = (401,0);
},
{
name = top;
pos = (715,1475);
},
{
name = topleft;
pos = (226,1475);
}
);
layerId = "2503C51C-5A6C-4B2C-A968-78FEA18C2585";
shapes = (
{
closed = 1;
nodes = (
(1085,1475,l),
(512,544,l),
(525,544,l),
(347,1475,l),
(316,1475,l),
(498,517,l),
(388,0,l),
(419,0,l),
(529,517,l),
(1119,1475,l)
);
}
);
width = 1033;
},
{
anchors = (
{
name = bottom;
pos = (466,0);
},
{
name = top;
pos = (780,1475);
},
{
name = topleft;
pos = (222,1475);
}
);
layerId = "BEF1FBB1-ACEC-4AC1-9895-C09886024D55";
shapes = (
{
closed = 1;
nodes = (
(1088,1475,l),
(552,620,l),
(627,620,l),
(455,1475,l),
(279,1475,l),
(486,513,l),
(377,0,l),
(547,0,l),
(657,513,l),
(1274,1475,l)
);
}
);
width = 1150;
},
{
anchors = (
{
name = bottom;
pos = (580,0);
},
{
name = top;
pos = (894,1475);
},
{
name = topleft;
pos = (221,1475);
}
);
layerId = "3FDD6C00-F7FD-4E85-84B0-0136AF7D7529";
shapes = (
{
closed = 1;
nodes = (
(1079,1475,l),
(620,692,l),
(778,692,l),
(659,1475,l),
(242,1475,l),
(471,505,l),
(363,0,l),
(765,0,l),
(874,505,l),
(1517,1475,l)
);
}
);
width = 1355;
}
);
metricLeft = V;
metricRight = V;
note = Y;
unicode = 89;
},
{
glyphname = Z;
kernLeft = Z;
kernRight = Z;
lastChange = "2022-02-09 18:02:24 +0000";
layers = (
{
anchors = (
{
name = bottom;
pos = (531,11);
},
{
name = center;
pos = (531,738);
},
{
name = top;
pos = (531,1475);
}
);
layerId = "A1A0948C-E637-4A65-8CCC-05505AD98C44";
shapes = (
{
closed = 1;
nodes = (
(172,31,l),
(932,1449,l),
(932,1475,l),
(181,1475,l),
(181,1447,l),
(899,1447,l),
(898,1448,l),
(135,28,l),
(135,0,l),
(922,0,l),
(922,28,l),
(172,28,l)
);
}
);
width = 1067;
},
{
anchors = (
{
name = bottom;
pos = (613,0);
},
{
name = center;
pos = (613,738);
},
{
name = top;
pos = (613,1475);
}
);
layerId = "584F9D0D-8480-40C6-ABEA-8DD6EE64252D";
shapes = (
{
closed = 1;
nodes = (
(528,303,l),
(1135,1221,l),
(1135,1475,l),
(122,1475,l),
(122,1175,l),
(688,1175,l),
(686,1177,l),
(77,257,l),
(77,0,l),
(1126,0,l),
(1126,301,l),
(528,301,l)
);
}
);
width = 1212;
},
{
anchors = (
{
name = bottom;
pos = (552,7);
},
{
name = center;
pos = (552,738);
},
{
name = top;
pos = (552,1475);
}
);
layerId = "F6BDCC95-B00C-46EE-8A70-124DE74BF6E5";
shapes = (
{
closed = 1;
nodes = (
(296,153,l),
(999,1344,l),
(999,1475,l),
(150,1475,l),
(150,1325,l),
(811,1325,l),
(809,1326,l),
(104,134,l),
(104,0,l),
(989,0,l),
(989,150,l),
(296,150,l)
);
}
);
width = 1103;
},
{
anchors = (
{
name = bottom;
pos = (432,0);
},
{
name = center;
pos = (589,738);
},
{
name = top;
pos = (746,1475);
}
);
layerId = "2503C51C-5A6C-4B2C-A968-78FEA18C2585";
shapes = (
{
closed = 1;
nodes = (
(65,27,l),
(1127,1449,l),
(1133,1475,l),
(382,1475,l),
(376,1447,l),
(1094,1447,l),
(1091,1448,l),
(28,28,l),
(22,0,l),
(809,0,l),
(815,28,l),
(65,28,l)
);
}
);
width = 1067;
},
{
anchors = (
{
name = bottom;
pos = (450,0);
},
{
name = center;
pos = (607,738);
},
{
name = top;
pos = (764,1475);
}
);
layerId = "BEF1FBB1-ACEC-4AC1-9895-C09886024D55";
shapes = (
{
closed = 1;
nodes = (
(224,153,l),
(1170,1344,l),
(1198,1475,l),
(349,1475,l),
(317,1325,l),
(968,1325,l),
(966,1326,l),
(18,134,l),
(-11,0,l),
(874,0,l),
(906,150,l),
(223,150,l)
);
}
);
width = 1103;
},
{
anchors = (
{
name = bottom;
pos = (505,0);
},
{
name = center;
pos = (662,738);
},
{
name = top;
pos = (819,1475);
}
);
layerId = "3FDD6C00-F7FD-4E85-84B0-0136AF7D7529";
shapes = (
{
closed = 1;
nodes = (
(490,303,l),
(1282,1221,l),
(1336,1475,l),
(323,1475,l),
(259,1175,l),
(815,1175,l),
(813,1177,l),
(19,257,l),
(-36,0,l),
(1013,0,l),
(1077,301,l),
(489,301,l)
);
}
);
width = 1212;
}
);
note = Z;
unicode = 90;
},
{
glyphname = a;
kernLeft = o;
kernRight = n;
lastChange = "2022-02-09 18:13:20 +0000";
layers = (
{
anchors = (
{
name = bottom;
pos = (597,0);
},
{
name = ogonek;
pos = (1058,0);
},
{
name = top;
pos = (602,1062);
}
);
layerId = "A1A0948C-E637-4A65-8CCC-05505AD98C44";
shapes = (
{
closed = 1;
nodes = (
(756,-17,o),
(928,74,o),
(992,213,c),
(988,220,l),
(988,133,o),
(989,100,o),
(1002,55,cs),
(1011,24,o),
(1022,4,o),
(1027,0,c),
(1058,0,l),
(1052,7,o),
(1042,24,o),
(1031,58,cs),
(1023,84,o),
(1019,123,o),
(1019,164,cs),
(1019,681,ls),
(1019,708,o),
(1019,736,o),
(1019,763,cs),
(1019,958,o),
(841,1075,o),
(602,1075,cs),
(333,1075,o),
(167,939,o),
(167,721,c),
(198,721,l),
(198,921,o),
(350,1047,o),
(602,1047,cs),
(845,1047,o),
(988,929,o),
(988,763,cs),
(988,751,o),
(988,738,o),
(988,726,cs),
(988,653,o),
(861,626,o),
(572,597,cs),
(300,570,o),
(153,481,o),
(153,290,cs),
(153,89,o),
(305,-17,o),
(558,-17,cs)
);
},
{
closed = 1;
nodes = (
(322,11,o),
(184,113,o),
(184,288,cs),
(184,467,o),
(326,543,o),
(584,568,cs),
(774,586,o),
(932,611,o),
(992,661,c),
(988,672,l),
(988,348,ls),
(988,149,o),
(796,11,o),
(561,11,cs)
);
}
);
width = 1193;
},
{
anchors = (
{
name = bottom;
pos = (608,0);
},
{
name = ogonek;
pos = (1263,0);
},
{
name = top;
pos = (647,1062);
}
);
background = {
shapes = (
{
closed = 1;
nodes = (
(1248,13,o),
(1220,50,o),
(1205,100,cs),
(1191,146,o),
(1191,202,o),
(1191,261,cs),
(1191,590,ls),
(1191,620,o),
(1191,648,o),
(1191,674,cs),
(1191,956,o),
(920,1084,o),
(627,1084,cs),
(317,1084,o),
(69,943,o),
(69,675,c),
(466,675,l),
(466,749,o),
(517,790,o),
(624,790,cs),
(723,790,o),
(787,749,o),
(787,700,cs),
(787,695,o),
(787,689,o),
(787,684,cs),
(787,249,ls),
(787,210,o),
(799,131,o),
(815,88,cs),
(830,47,o),
(857,12,o),
(869,0,c),
(1263,0,l)
);
},
{
closed = 1;
nodes = (
(690,-24,o),
(903,83,o),
(903,325,c),
(794,508,l),
(794,323,o),
(676,262,o),
(573,262,cs),
(501,262,o),
(459,283,o),
(459,328,cs),
(459,373,o),
(503,389,o),
(595,400,cs),
(752,418,o),
(955,454,o),
(1000,545,c),
(787,699,l),
(787,662,o),
(728,654,o),
(514,634,cs),
(288,613,o),
(55,523,o),
(55,288,cs),
(55,88,o),
(225,-24,o),
(453,-24,cs)
);
}
);
};
layerId = "584F9D0D-8480-40C6-ABEA-8DD6EE64252D";
shapes = (
{
closed = 1;
nodes = (
(639,-24,o),
(820,61,o),
(875,208,c),
(787,269,l),
(787,193,o),
(795,148,o),
(815,88,cs),
(829,47,o),
(857,12,o),
(869,0,c),
(1263,0,l),
(1248,13,o),
(1220,50,o),
(1205,100,cs),
(1191,146,o),
(1191,202,o),
(1191,261,cs),
(1191,590,ls),
(1191,618,o),
(1191,646,o),
(1191,674,cs),
(1191,956,o),
(920,1084,o),
(627,1084,cs),
(317,1084,o),
(69,943,o),
(69,675,c),
(466,675,l),
(466,749,o),
(517,790,o),
(624,790,cs),
(723,790,o),
(787,749,o),
(787,700,cs),
(787,700,o),
(787,699,o),
(787,699,cs),
(787,662,o),
(728,654,o),
(514,634,cs),
(288,613,o),
(55,523,o),
(55,288,cs),
(55,88,o),
(225,-24,o),
(453,-24,cs)
);
},
{
closed = 1;
nodes = (
(501,262,o),
(459,283,o),
(459,328,cs),
(459,373,o),
(503,390,o),
(595,400,cs),
(694,411,o),
(809,431,o),
(897,462,c),
(794,545,l),
(794,507,ls),
(794,323,o),
(676,262,o),
(573,262,cs)
);
}
);
width = 1281;
},
{
anchors = (
{
name = bottom;
pos = (607,0);
},
{
name = ogonek;
pos = (1140,0);
},
{
name = top;
pos = (637,1062);
}
);
layerId = "F6BDCC95-B00C-46EE-8A70-124DE74BF6E5";
shapes = (
{
closed = 1;
nodes = (
(735,-20,o),
(886,54,o),
(948,162,c),
(920,181,l),
(920,137,o),
(925,94,o),
(935,67,cs),
(947,34,o),
(962,7,o),
(969,0,c),
(1140,0,l),
(1131,9,o),
(1114,34,o),
(1102,74,cs),
(1092,107,o),
(1089,153,o),
(1089,200,cs),
(1089,647,ls),
(1089,675,o),
(1089,702,o),
(1089,730,cs),
(1089,957,o),
(886,1078,o),
(627,1078,cs),
(343,1078,o),
(146,941,o),
(146,704,c),
(314,704,l),
(314,857,o),
(428,922,o),
(626,922,cs),
(815,922,o),
(918,862,o),
(918,739,cs),
(918,738,o),
(918,737,o),
(918,736,cs),
(918,677,o),
(817,659,o),
(556,633,cs),
(295,607,o),
(122,507,o),
(122,299,cs),
(122,99,o),
(281,-20,o),
(524,-20,cs)
);
},
{
closed = 1;
nodes = (
(375,133,o),
(293,193,o),
(293,309,cs),
(293,432,o),
(395,474,o),
(597,493,cs),
(735,506,o),
(870,525,o),
(956,559,c),
(918,623,l),
(918,412,ls),
(918,228,o),
(757,133,o),
(551,133,cs)
);
}
);
width = 1218;
},
{
anchors = (
{
name = bottom;
pos = (527,0);
},
{
name = ogonek;
pos = (954,0);
},
{
name = top;
pos = (740,1062);
}
);
layerId = "2503C51C-5A6C-4B2C-A968-78FEA18C2585";
shapes = (
{
closed = 1;
nodes = (
(651,-17,o),
(839,73,o),
(932,212,c),
(930,219,l),
(910,124,o),
(905,98,o),
(905,63,cs),
(905,32,o),
(918,4,o),
(923,0,c),
(954,0,l),
(949,7,o),
(936,36,o),
(936,71,cs),
(936,97,o),
(940,123,o),
(949,164,cs),
(1059,681,ls),
(1075,758,o),
(1080,785,o),
(1080,828,cs),
(1080,983,o),
(930,1075,o),
(719,1075,cs),
(450,1075,o),
(252,939,o),
(206,721,c),
(237,721,l),
(279,921,o),
(468,1047,o),
(720,1047,cs),
(931,1047,o),
(1049,957,o),
(1049,825,cs),
(1049,796,o),
(1046,766,o),
(1037,724,cs),
(1022,656,o),
(879,624,o),
(594,597,cs),
(322,571,o),
(108,497,o),
(108,242,cs),
(108,78,o),
(216,-17,o),
(456,-17,cs)
);
},
{
closed = 1;
nodes = (
(234,11,o),
(139,102,o),
(139,242,cs),
(139,481,o),
(338,544,o),
(600,568,cs),
(794,586,o),
(959,611,o),
(1027,661,c),
(1026,672,l),
(951,319,l),
(894,136,o),
(683,11,o),
(459,11,cs)
);
}
);
width = 1262;
},
{
anchors = (
{
name = bottom;
pos = (546,0);
},
{
name = ogonek;
pos = (1029,0);
},
{
name = top;
pos = (757,1062);
}
);
layerId = "BEF1FBB1-ACEC-4AC1-9895-C09886024D55";
shapes = (
{
closed = 1;
nodes = (
(626,-20,o),
(799,48,o),
(865,152,c),
(843,151,l),
(841,140,o),
(837,115,o),
(837,94,cs),
(837,49,o),
(850,9,o),
(858,0,c),
(1029,0,l),
(1020,10,o),
(1005,41,o),
(1005,91,cs),
(1005,122,o),
(1011,160,o),
(1020,200,cs),
(1117,647,ls),
(1132,716,o),
(1140,754,o),
(1140,796,cs),
(1140,980,o),
(968,1078,o),
(735,1078,cs),
(451,1078,o),
(235,941,o),
(184,704,c),
(352,704,l),
(385,857,o),
(516,921,o),
(714,921,cs),
(883,921,o),
(968,876,o),
(968,776,cs),
(968,767,o),
(968,757,o),
(964,747,cs),
(945,692,o),
(834,656,o),
(579,633,cs),
(301,608,o),
(70,504,o),
(70,247,cs),
(70,80,o),
(197,-20,o),
(418,-20,cs)
);
},
{
closed = 1;
nodes = (
(311,135,o),
(243,178,o),
(243,276,cs),
(243,435,o),
(387,474,o),
(590,493,cs),
(732,506,o),
(872,529,o),
(963,564,c),
(941,626,l),
(891,394,l),
(839,229,o),
(661,135,o),
(466,135,cs)
);
}
);
width = 1279;
},
{
anchors = (
{
name = bottom;
pos = (503,0);
},
{
name = ogonek;
pos = (1150,0);
},
{
name = top;
pos = (733,1062);
}
);
layerId = "3FDD6C00-F7FD-4E85-84B0-0136AF7D7529";
shapes = (
{
closed = 1;
nodes = (
(529,-24,o),
(740,62,o),
(819,193,c),
(741,262,l),
(731,232,o),
(727,199,o),
(727,167,cs),
(727,95,o),
(744,27,o),
(756,0,c),
(1150,0,l),
(1137,24,o),
(1121,77,o),
(1121,148,cs),
(1121,182,o),
(1125,220,o),
(1134,261,cs),
(1222,674,ls),
(1228,704,o),
(1231,732,o),
(1231,758,cs),
(1231,980,o),
(985,1084,o),
(723,1084,cs),
(413,1084,o),
(147,943,o),
(90,675,c),
(487,675,l),
(503,749,o),
(572,790,o),
(679,790,cs),
(767,790,o),
(825,757,o),
(825,716,cs),
(825,714,o),
(825,711,o),
(824,708,cs),
(810,667,o),
(683,647,o),
(501,629,cs),
(215,600,o),
(4,504,o),
(4,249,cs),
(4,106,o),
(119,-24,o),
(357,-24,cs)
);
},
{
closed = 1;
nodes = (
(453,262,o),
(416,279,o),
(416,319,cs),
(416,374,o),
(483,391,o),
(567,400,cs),
(657,410,o),
(787,428,o),
(889,465,c),
(791,505,l),
(765,428,ls),
(722,300,o),
(604,262,o),
(518,262,cs)
);
}
);
width = 1353;
}
);
metricLeft = "=o+10";
note = a;
unicode = 97;
},
{
color = 3;
glyphname = a.ss01;
kernLeft = o;
kernRight = i;
lastChange = "2022-02-09 18:13:20 +0000";
layers = (
{
anchors = (
{
name = bottom;
pos = (651,0);
},
{
name = ogonek;
pos = (1077,0);
},
{
name = top;
pos = (657,1062);
}
);
layerId = "A1A0948C-E637-4A65-8CCC-05505AD98C44";
shapes = (
{
closed = 1;
nodes = (
(897,-17,o),
(1075,166,o),
(1075,383,c),
(1046,383,l),
(1046,186,o),
(880,11,o),
(641,11,cs),
(399,11,o),
(174,204,o),
(174,534,cs),
(174,862,o),
(399,1047,o),
(641,1047,cs),
(880,1047,o),
(1046,872,o),
(1046,675,cs),
(1046,669,o),
(1046,661,o),
(1046,655,c),
(1075,655,l),
(1075,661,o),
(1075,669,o),
(1075,675,cs),
(1075,892,o),
(897,1075,o),
(641,1075,cs),
(381,1075,o),
(143,881,o),
(143,534,cs),
(143,177,o),
(382,-17,o),
(641,-17,cs)
);
},
{
closed = 1;
nodes = (
(1077,1062,l),
(1046,1062,l),
(1046,0,l),
(1077,0,l)
);
}
);
width = 1272;
},
{
anchors = (
{
name = bottom;
pos = (676,0);
},
{
name = ogonek;
pos = (1274,0);
},
{
name = top;
pos = (673,1062);
}
);
layerId = "584F9D0D-8480-40C6-ABEA-8DD6EE64252D";
shapes = (
{
closed = 1;
nodes = (
(792,-26,o),
(1013,164,o),
(1013,479,c),
(871,499,l),
(871,366,o),
(772,308,o),
(676,308,cs),
(575,308,o),
(471,377,o),
(471,534,cs),
(471,691,o),
(575,751,o),
(676,751,cs),
(770,751,o),
(871,698,o),
(871,565,cs),
(871,561,o),
(871,558,o),
(871,554,c),
(1013,552,l),
(1013,560,o),
(1013,567,o),
(1013,575,cs),
(1013,877,o),
(792,1084,o),
(547,1084,cs),
(290,1084,o),
(45,891,o),
(45,539,cs),
(45,167,o),
(280,-26,o),
(547,-26,cs)
);
},
{
closed = 1;
nodes = (
(1274,1062,l),
(871,1062,l),
(871,0,l),
(1274,0,l)
);
}
);
width = 1364;
},
{
anchors = (
{
name = bottom;
pos = (654,0);
},
{
name = ogonek;
pos = (1149,0);
},
{
name = top;
pos = (651,1062);
}
);
layerId = "F6BDCC95-B00C-46EE-8A70-124DE74BF6E5";
shapes = (
{
closed = 1;
nodes = (
(882,-20,o),
(1088,137,o),
(1088,461,c),
(978,468,l),
(978,255,o),
(825,134,o),
(652,134,cs),
(463,134,o),
(291,251,o),
(291,536,cs),
(291,820,o),
(463,924,o),
(652,924,cs),
(824,924,o),
(978,809,o),
(978,596,cs),
(978,592,o),
(978,589,o),
(978,585,c),
(1088,585,l),
(1088,589,o),
(1088,595,o),
(1088,599,cs),
(1088,918,o),
(882,1078,o),
(633,1078,cs),
(374,1078,o),
(112,905,o),
(112,536,cs),
(112,153,o),
(371,-20,o),
(633,-20,cs)
);
},
{
closed = 1;
nodes = (
(1149,1062,l),
(978,1062,l),
(978,0,l),
(1149,0,l)
);
}
);
width = 1292;
},
{
anchors = (
{
name = bottom;
pos = (546,0);
},
{
name = ogonek;
pos = (974,0);
},
{
name = top;
pos = (769,1062);
}
);
layerId = "2503C51C-5A6C-4B2C-A968-78FEA18C2585";
shapes = (
{
closed = 1;
nodes = (
(811,-17,o),
(1009,163,o),
(1054,383,c),
(1025,383,l),
(983,186,o),
(797,11,o),
(540,11,cs),
(329,11,o),
(174,165,o),
(174,417,cs),
(174,762,o),
(422,1047,o),
(760,1047,cs),
(969,1047,o),
(1095,913,o),
(1095,748,cs),
(1095,706,o),
(1091,690,o),
(1082,655,c),
(1112,655,l),
(1120,689,o),
(1124,708,o),
(1124,752,cs),
(1124,934,o),
(982,1075,o),
(760,1075,cs),
(402,1075,o),
(142,781,o),
(142,411,cs),
(142,139,o),
(313,-17,o),
(540,-17,cs)
);
},
{
closed = 1;
nodes = (
(1199,1062,l),
(1168,1062,l),
(943,0,l),
(974,0,l)
);
}
);
width = 1282;
},
{
anchors = (
{
name = bottom;
pos = (521,0);
},
{
name = ogonek;
pos = (1038,0);
},
{
name = top;
pos = (755,1062);
}
);
layerId = "BEF1FBB1-ACEC-4AC1-9895-C09886024D55";
shapes = (
{
closed = 1;
nodes = (
(776,-20,o),
(1013,137,o),
(1082,461,c),
(967,468,l),
(922,255,o),
(742,134,o),
(569,134,cs),
(406,134,o),
(283,221,o),
(283,428,cs),
(283,709,o),
(450,924,o),
(737,924,cs),
(885,924,o),
(1003,838,o),
(1003,678,cs),
(1003,654,o),
(998,608,o),
(992,585,c),
(1092,585,l),
(1102,623,o),
(1109,687,o),
(1109,726,cs),
(1109,960,o),
(954,1078,o),
(741,1078,cs),
(373,1078,o),
(104,790,o),
(104,412,cs),
(104,115,o),
(295,-20,o),
(527,-20,cs)
);
},
{
closed = 1;
nodes = (
(1263,1062,l),
(1092,1062,l),
(867,0,l),
(1038,0,l)
);
}
);
width = 1288;
},
{
anchors = (
{
name = bottom;
pos = (526,0);
},
{
name = ogonek;
pos = (1160,0);
},
{
name = top;
pos = (753,1062);
}
);
layerId = "3FDD6C00-F7FD-4E85-84B0-0136AF7D7529";
shapes = (
{
closed = 1;
nodes = (
(703,-26,o),
(936,174,o),
(1003,489,c),
(866,508,l),
(838,375,o),
(733,308,o),
(627,308,cs),
(534,308,o),
(469,373,o),
(469,493,cs),
(469,648,o),
(578,751,o),
(712,751,cs),
(795,751,o),
(880,702,o),
(880,600,cs),
(880,582,o),
(877,562,o),
(873,544,c),
(1016,552,l),
(1026,590,o),
(1033,647,o),
(1033,685,cs),
(1033,923,o),
(855,1084,o),
(641,1084,cs),
(291,1084,o),
(41,795,o),
(41,434,cs),
(41,135,o),
(213,-26,o),
(458,-26,cs)
);
},
{
closed = 1;
nodes = (
(1385,1062,l),
(982,1062,l),
(757,0,l),
(1160,0,l)
);
}
);
width = 1363;
}
);
metricLeft = o;
metricRight = u;
},
{
glyphname = ae;
kernLeft = a;
kernRight = e;
lastChange = "2022-02-09 18:13:20 +0000";
layers = (
{
anchors = (
{
name = bottom;
pos = (1095,0);
},
{
name = top;
pos = (1095,1062);
}
);
layerId = "A1A0948C-E637-4A65-8CCC-05505AD98C44";
shapes = (
{
closed = 1;
nodes = (
(805,-16,o),
(1024,85,o),
(1070,391,c),
(1066,389,l),
(1120,143,o),
(1313,-17,o),
(1555,-17,cs),
(1854,-17,o),
(2003,202,o),
(2014,332,c),
(1983,332,l),
(1971,220,o),
(1839,11,o),
(1555,11,cs),
(1290,11,o),
(1088,227,o),
(1082,514,cs),
(1082,517,o),
(1082,519,o),
(1082,522,c),
(1068,512,l),
(2030,512,l),
(2030,523,o),
(2030,533,o),
(2030,544,cs),
(2030,828,o),
(1845,1075,o),
(1556,1075,cs),
(1327,1075,o),
(1143,931,o),
(1077,711,c),
(1080,709,l),
(1080,712,o),
(1080,715,o),
(1080,717,cs),
(1073,964,o),
(900,1075,o),
(662,1075,cs),
(393,1075,o),
(197,942,o),
(197,721,c),
(230,721,l),
(230,921,o),
(412,1047,o),
(662,1047,cs),
(905,1047,o),
(1048,923,o),
(1048,703,cs),
(1048,693,o),
(1048,682,o),
(1048,672,cs),
(1048,599,o),
(973,597,o),
(612,597,cs),
(328,597,o),
(153,521,o),
(153,310,cs),
(153,109,o),
(322,-16,o),
(568,-16,cs)
);
},
{
closed = 1;
nodes = (
(339,12,o),
(186,131,o),
(186,308,cs),
(186,507,o),
(355,569,o),
(624,569,cs),
(858,569,o),
(996,570,o),
(1052,605,c),
(1048,617,l),
(1048,592,o),
(1048,567,o),
(1048,542,cs),
(1048,114,o),
(813,12,o),
(571,12,cs)
);
},
{
closed = 1;
nodes = (
(1088,819,o),
(1285,1047,o),
(1556,1047,cs),
(1827,1047,o),
(1999,806,o),
(1999,554,cs),
(1999,549,o),
(1999,545,o),
(1999,540,c),
(1082,540,l)
);
}
);
width = 2173;
},
{
anchors = (
{
name = bottom;
pos = (1028,0);
},
{
name = top;
pos = (1075,1062);
}
);
layerId = "584F9D0D-8480-40C6-ABEA-8DD6EE64252D";
shapes = (
{
closed = 1;
nodes = (
(778,-26,o),
(1015,41,o),
(1079,234,c),
(953,215,l),
(1053,66,o),
(1234,-26,o),
(1471,-26,cs),
(1832,-26,o),
(2046,148,o),
(2066,336,c),
(1668,336,l),
(1663,303,o),
(1611,262,o),
(1482,262,cs),
(1323,262,o),
(1267,345,o),
(1253,477,cs),
(1250,503,o),
(1249,531,o),
(1249,560,c),
(1080,421,l),
(2076,421,l),
(2078,438,o),
(2080,466,o),
(2080,506,cs),
(2080,861,o),
(1847,1084,o),
(1471,1084,cs),
(1266,1084,o),
(1100,1014,o),
(993,894,c),
(1151,890,l),
(1132,915,o),
(1110,937,o),
(1085,958,cs),
(982,1042,o),
(835,1084,o),
(677,1084,cs),
(367,1084,o),
(79,953,o),
(79,685,c),
(476,685,l),
(476,759,o),
(567,790,o),
(674,790,cs),
(773,790,o),
(847,749,o),
(847,700,cs),
(847,697,o),
(847,693,o),
(847,690,cs),
(847,643,o),
(802,639,o),
(564,639,cs),
(308,639,o),
(55,573,o),
(55,338,cs),
(55,127,o),
(239,-26,o),
(576,-26,cs)
);
},
{
closed = 1;
nodes = (
(501,272,o),
(459,298,o),
(459,343,cs),
(459,388,o),
(502,420,o),
(611,420,cs),
(707,420,o),
(850,425,o),
(969,445,c),
(855,555,l),
(855,543,o),
(855,532,o),
(855,520,cs),
(855,334,o),
(696,272,o),
(593,272,cs)
);
},
{
closed = 1;
nodes = (
(1296,748,o),
(1369,800,o),
(1476,800,cs),
(1602,800,o),
(1659,733,o),
(1672,671,cs),
(1674,664,o),
(1675,657,o),
(1675,651,c),
(1266,651,l)
);
}
);
width = 2125;
},
{
anchors = (
{
name = bottom;
pos = (1086,0);
},
{
name = top;
pos = (1086,1062);
}
);
layerId = "F6BDCC95-B00C-46EE-8A70-124DE74BF6E5";
shapes = (
{
closed = 1;
nodes = (
(774,-20,o),
(995,51,o),
(1076,264,c),
(1028,257,l),
(1116,86,o),
(1291,-21,o),
(1510,-21,cs),
(1833,-21,o),
(2006,182,o),
(2020,334,c),
(1852,334,l),
(1842,251,o),
(1740,125,o),
(1515,125,cs),
(1294,125,o),
(1152,264,o),
(1134,483,cs),
(1133,495,o),
(1132,509,o),
(1132,522,c),
(1059,463,l),
(2034,463,l),
(2035,475,o),
(2036,509,o),
(2036,530,cs),
(2036,840,o),
(1833,1078,o),
(1511,1078,cs),
(1307,1078,o),
(1141,984,o),
(1047,832,c),
(1095,828,l),
(1090,840,o),
(1085,852,o),
(1080,863,cs),
(1007,1008,o),
(842,1078,o),
(651,1078,cs),
(366,1078,o),
(146,942,o),
(146,704,c),
(315,704,l),
(315,857,o),
(453,931,o),
(650,931,cs),
(839,931,o),
(966,858,o),
(966,702,cs),
(966,691,o),
(966,680,o),
(966,669,cs),
(966,606,o),
(879,605,o),
(587,605,cs),
(314,605,o),
(122,517,o),
(122,307,cs),
(122,102,o),
(300,-20,o),
(570,-20,cs)
);
},
{
closed = 1;
nodes = (
(420,130,o),
(294,188,o),
(294,315,cs),
(294,446,o),
(412,466,o),
(621,466,cs),
(778,466,o),
(917,471,o),
(1003,495,c),
(969,569,l),
(969,558,o),
(969,546,o),
(969,535,cs),
(969,197,o),
(762,130,o),
(582,130,cs)
);
},
{
closed = 1;
nodes = (
(1169,808,o),
(1314,934,o),
(1513,934,cs),
(1713,934,o),
(1836,803,o),
(1860,647,cs),
(1862,634,o),
(1863,621,o),
(1863,615,c),
(1139,615,l)
);
}
);
width = 2148;
},
{
anchors = (
{
name = bottom;
pos = (983,0);
},
{
name = top;
pos = (1209,1062);
}
);
layerId = "2503C51C-5A6C-4B2C-A968-78FEA18C2585";
shapes = (
{
closed = 1;
nodes = (
(709,-16,o),
(929,84,o),
(1036,405,c),
(1032,403,l),
(1035,160,o),
(1174,-17,o),
(1429,-17,cs),
(1728,-17,o),
(1919,202,o),
(1958,332,c),
(1927,332,l),
(1891,220,o),
(1712,11,o),
(1431,11,cs),
(1180,11,o),
(1063,190,o),
(1063,416,cs),
(1063,451,o),
(1065,487,o),
(1072,521,c),
(1056,512,l),
(2012,512,l),
(2024,564,o),
(2030,613,o),
(2030,664,cs),
(2030,894,o),
(1901,1075,o),
(1654,1075,cs),
(1415,1075,o),
(1209,930,o),
(1105,722,c),
(1106,716,l),
(1114,755,o),
(1118,783,o),
(1118,797,cs),
(1118,988,o),
(970,1075,o),
(763,1075,cs),
(494,1075,o),
(275,942,o),
(228,721,c),
(261,721,l),
(303,921,o),
(512,1047,o),
(762,1047,cs),
(970,1047,o),
(1085,957,o),
(1085,793,cs),
(1085,769,o),
(1079,721,o),
(1066,664,cs),
(1051,599,o),
(964,597,o),
(616,597,cs),
(348,597,o),
(109,505,o),
(109,256,cs),
(109,72,o),
(234,-16,o),
(470,-16,cs)
);
},
{
closed = 1;
nodes = (
(247,12,o),
(143,97,o),
(143,260,cs),
(143,476,o),
(346,569,o),
(622,569,cs),
(857,569,o),
(996,570,o),
(1058,606,c),
(1056,613,l),
(1051,590,o),
(1046,566,o),
(1041,542,cs),
(950,114,o),
(713,12,o),
(471,12,cs)
);
},
{
closed = 1;
nodes = (
(1130,821,o),
(1366,1047,o),
(1652,1047,cs),
(1886,1047,o),
(1999,869,o),
(1999,661,cs),
(1999,634,o),
(1994,571,o),
(1987,540,c),
(1075,540,l)
);
}
);
width = 2166;
},
{
anchors = (
{
name = bottom;
pos = (983,0);
},
{
name = top;
pos = (1209,1062);
}
);
layerId = "BEF1FBB1-ACEC-4AC1-9895-C09886024D55";
shapes = (
{
closed = 1;
nodes = (
(676,-20,o),
(898,51,o),
(1021,263,c),
(973,262,l),
(1025,87,o),
(1183,-21,o),
(1403,-21,cs),
(1726,-21,o),
(1932,182,o),
(1979,334,c),
(1811,334,l),
(1783,251,o),
(1654,125,o),
(1429,125,cs),
(1231,125,o),
(1120,238,o),
(1120,418,cs),
(1120,450,o),
(1121,482,o),
(1124,514,c),
(1045,463,l),
(2020,463,l),
(2035,509,o),
(2051,603,o),
(2051,662,cs),
(2051,905,o),
(1892,1078,o),
(1618,1078,cs),
(1416,1078,o),
(1235,983,o),
(1113,836,c),
(1159,826,l),
(1157,838,o),
(1155,849,o),
(1151,859,cs),
(1108,1007,o),
(951,1078,o),
(758,1078,cs),
(473,1078,o),
(234,942,o),
(183,704,c),
(352,704,l),
(385,857,o),
(539,931,o),
(736,931,cs),
(903,931,o),
(1009,874,o),
(1009,754,cs),
(1009,734,o),
(1005,703,o),
(997,665,cs),
(984,606,o),
(889,605,o),
(603,605,cs),
(327,605,o),
(73,518,o),
(73,266,cs),
(73,86,o),
(222,-20,o),
(473,-20,cs)
);
},
{
closed = 1;
nodes = (
(347,130,o),
(247,180,o),
(247,289,cs),
(247,453,o),
(410,466,o),
(608,466,cs),
(763,466,o),
(902,471,o),
(995,494,c),
(974,563,l),
(972,552,o),
(970,542,o),
(968,532,cs),
(897,196,o),
(677,130,o),
(497,130,cs)
);
},
{
closed = 1;
nodes = (
(1226,799,o),
(1391,934,o),
(1599,934,cs),
(1790,934,o),
(1885,815,o),
(1885,667,cs),
(1885,644,o),
(1885,628,o),
(1883,615,c),
(1156,615,l)
);
}
);
width = 2150;
},
{
anchors = (
{
name = bottom;
pos = (955,0);
},
{
name = top;
pos = (1181,1062);
}
);
layerId = "3FDD6C00-F7FD-4E85-84B0-0136AF7D7529";
shapes = (
{
closed = 1;
nodes = (
(681,-27,o),
(918,40,o),
(1019,236,c),
(892,226,l),
(962,68,o),
(1130,-27,o),
(1373,-27,cs),
(1734,-27,o),
(1965,147,o),
(2025,335,c),
(1627,335,l),
(1615,302,o),
(1554,261,o),
(1425,261,cs),
(1287,261,o),
(1240,323,o),
(1240,426,cs),
(1240,468,o),
(1248,516,o),
(1260,569,c),
(1058,420,l),
(2053,420,l),
(2073,477,o),
(2091,577,o),
(2091,645,cs),
(2091,918,o),
(1893,1083,o),
(1569,1083,cs),
(1372,1083,o),
(1196,1016,o),
(1067,900,c),
(1226,889,l),
(1218,903,o),
(1208,917,o),
(1197,929,cs),
(1112,1032,o),
(958,1083,o),
(785,1083,cs),
(475,1083,o),
(169,952,o),
(112,684,c),
(509,684,l),
(525,758,o),
(622,789,o),
(729,789,cs),
(821,789,o),
(884,754,o),
(884,710,cs),
(884,707,o),
(883,698,o),
(881,687,cs),
(871,642,o),
(821,638,o),
(587,638,cs),
(300,638,o),
(10,557,o),
(10,283,cs),
(10,100,o),
(171,-27,o),
(478,-27,cs)
);
},
{
closed = 1;
nodes = (
(452,271,o),
(419,294,o),
(419,333,cs),
(419,383,o),
(472,419,o),
(588,419,cs),
(684,419,o),
(827,424,o),
(949,444,c),
(859,585,l),
(858,561,o),
(856,538,o),
(851,517,cs),
(812,332,o),
(640,271,o),
(538,271,cs)
);
},
{
closed = 1;
nodes = (
(1340,739,o),
(1422,799,o),
(1534,799,cs),
(1659,799,o),
(1702,733,o),
(1702,671,cs),
(1702,665,o),
(1701,658,o),
(1700,650,c),
(1292,650,l)
);
}
);
width = 2126;
}
);
metricLeft = a;
metricRight = e;
unicode = 230;
},
{
glyphname = b;
kernLeft = h;
kernRight = o;
lastChange = "2022-02-09 18:02:24 +0000";
layers = (
{
anchors = (
{
name = bottom;
pos = (639,0);
},
{
name = top;
pos = (630,1563);
}
);
layerId = "A1A0948C-E637-4A65-8CCC-05505AD98C44";
shapes = (
{
closed = 1;
nodes = (
(895,-17,o),
(1070,181,o),
(1070,529,cs),
(1070,877,o),
(895,1075,o),
(636,1075,cs),
(396,1075,o),
(206,886,o),
(206,675,c),
(236,675,l),
(236,872,o),
(420,1047,o),
(636,1047,cs),
(876,1047,o),
(1039,858,o),
(1039,529,cs),
(1039,200,o),
(876,11,o),
(636,11,cs),
(420,11,o),
(236,186,o),
(236,383,cs),
(236,385,o),
(236,388,o),
(236,390,c),
(206,390,l),
(206,388,o),
(206,385,o),
(206,383,cs),
(206,172,o),
(396,-17,o),
(636,-17,cs)
);
},
{
closed = 1;
nodes = (
(236,0,l),
(236,1563,l),
(205,1563,l),
(205,0,l)
);
}
);
width = 1213;
},
{
anchors = (
{
name = bottom;
pos = (689,0);
},
{
name = top;
pos = (689,1563);
}
);
layerId = "584F9D0D-8480-40C6-ABEA-8DD6EE64252D";
shapes = (
{
closed = 1;
nodes = (
(1085,-25,o),
(1320,166,o),
(1320,538,cs),
(1320,890,o),
(1075,1083,o),
(818,1083,cs),
(563,1083,o),
(362,866,o),
(362,571,c),
(504,561,l),
(504,694,o),
(608,757,o),
(702,757,cs),
(804,757,o),
(904,695,o),
(904,538,cs),
(904,381,o),
(803,314,o),
(702,314,cs),
(606,314,o),
(504,382,o),
(504,515,cs),
(504,519,o),
(504,524,o),
(504,528,c),
(362,525,l),
(362,518,o),
(362,512,o),
(362,505,cs),
(362,210,o),
(563,-25,o),
(818,-25,cs)
);
},
{
closed = 1;
nodes = (
(504,0,l),
(504,1563,l),
(100,1563,l),
(100,0,l)
);
}
);
width = 1365;
},
{
anchors = (
{
name = bottom;
pos = (645,0);
},
{
name = top;
pos = (640,1563);
}
);
layerId = "F6BDCC95-B00C-46EE-8A70-124DE74BF6E5";
shapes = (
{
closed = 1;
nodes = (
(934,-20,o),
(1151,175,o),
(1151,532,cs),
(1151,882,o),
(930,1078,o),
(672,1078,cs),
(426,1078,o),
(202,889,o),
(202,616,c),
(324,612,l),
(324,785,o),
(478,922,o),
(648,922,cs),
(837,922,o),
(976,797,o),
(976,532,cs),
(976,268,o),
(836,141,o),
(648,141,cs),
(477,141,o),
(324,280,o),
(324,453,cs),
(324,455,o),
(324,459,o),
(324,462,c),
(202,459,l),
(202,455,o),
(202,453,o),
(202,449,cs),
(202,176,o),
(426,-20,o),
(672,-20,cs)
);
},
{
closed = 1;
nodes = (
(324,0,l),
(324,1563,l),
(153,1563,l),
(153,0,l)
);
}
);
width = 1263;
},
{
anchors = (
{
name = bottom;
pos = (520,0);
},
{
name = top;
pos = (852,1563);
}
);
layerId = "2503C51C-5A6C-4B2C-A968-78FEA18C2585";
shapes = (
{
closed = 1;
nodes = (
(871,-17,o),
(1076,295,o),
(1076,664,cs),
(1076,920,o),
(974,1075,o),
(746,1075,cs),
(506,1075,o),
(282,886,o),
(237,675,c),
(266,675,l),
(308,872,o),
(530,1047,o),
(746,1047,cs),
(955,1047,o),
(1045,902,o),
(1045,663,cs),
(1045,317,o),
(854,11,o),
(526,11,cs),
(335,11,o),
(198,148,o),
(198,316,cs),
(198,347,o),
(205,386,o),
(206,390,c),
(176,390,l),
(175,387,o),
(167,344,o),
(167,311,cs),
(167,131,o),
(314,-17,o),
(526,-17,cs)
);
},
{
closed = 1;
nodes = (
(123,0,l),
(456,1563,l),
(425,1563,l),
(92,0,l)
);
}
);
width = 1219;
},
{
anchors = (
{
name = bottom;
pos = (574,0);
},
{
name = top;
pos = (884,1563);
}
);
layerId = "BEF1FBB1-ACEC-4AC1-9895-C09886024D55";
shapes = (
{
closed = 1;
nodes = (
(915,-20,o),
(1161,289,o),
(1161,657,cs),
(1161,928,o),
(1004,1078,o),
(778,1078,cs),
(532,1078,o),
(268,889,o),
(210,616,c),
(340,612,l),
(377,785,o),
(561,922,o),
(731,922,cs),
(890,922,o),
(987,834,o),
(987,649,cs),
(987,379,o),
(833,141,o),
(565,141,cs),
(414,141,o),
(300,249,o),
(300,393,cs),
(300,415,o),
(303,441,o),
(308,462,c),
(197,459,l),
(188,422,o),
(183,388,o),
(183,350,cs),
(183,130,o),
(350,-20,o),
(565,-20,cs)
);
},
{
closed = 1;
nodes = (
(211,0,l),
(543,1563,l),
(372,1563,l),
(40,0,l)
);
}
);
width = 1265;
},
{
anchors = (
{
name = bottom;
pos = (697,0);
},
{
name = top;
pos = (971,1563);
}
);
layerId = "3FDD6C00-F7FD-4E85-84B0-0136AF7D7529";
shapes = (
{
closed = 1;
nodes = (
(1087,-25,o),
(1324,252,o),
(1324,628,cs),
(1324,917,o),
(1155,1083,o),
(914,1083,cs),
(659,1083,o),
(434,866,o),
(371,571,c),
(510,561,l),
(538,694,o),
(656,757,o),
(750,757,cs),
(844,757,o),
(907,706,o),
(907,593,cs),
(907,434,o),
(823,314,o),
(656,314,cs),
(572,314,o),
(496,366,o),
(496,467,cs),
(496,482,o),
(499,512,o),
(503,528,c),
(361,525,l),
(352,501,o),
(344,457,o),
(344,386,cs),
(344,151,o),
(503,-25,o),
(722,-25,cs)
);
},
{
closed = 1;
nodes = (
(391,0,l),
(724,1563,l),
(320,1563,l),
(-13,0,l)
);
}
);
width = 1367;
}
);
metricLeft = h;
metricRight = o;
note = b;
unicode = 98;
},
{
glyphname = c;
kernLeft = o;
kernRight = o;
lastChange = "2022-02-09 18:02:24 +0000";
layers = (
{
anchors = (
{
name = bottom;
pos = (648,0);
},
{
name = top;
pos = (633,1062);
}
);
layerId = "A1A0948C-E637-4A65-8CCC-05505AD98C44";
shapes = (
{
closed = 1;
nodes = (
(945,-17,o),
(1092,170,o),
(1092,325,c),
(1061,325,l),
(1061,183,o),
(928,11,o),
(650,11,cs),
(403,11,o),
(174,193,o),
(174,529,cs),
(174,865,o),
(404,1047,o),
(650,1047,cs),
(865,1047,o),
(1035,915,o),
(1060,750,cs),
(1061,743,o),
(1061,734,o),
(1061,727,c),
(1092,727,l),
(1092,729,o),
(1092,731,o),
(1092,733,cs),
(1092,878,o),
(927,1075,o),
(650,1075,cs),
(385,1075,o),
(143,882,o),
(143,529,cs),
(143,176,o),
(385,-17,o),
(650,-17,cs)
);
}
);
width = 1235;
},
{
anchors = (
{
name = bottom;
pos = (652,0);
},
{
name = top;
pos = (637,1062);
}
);
layerId = "584F9D0D-8480-40C6-ABEA-8DD6EE64252D";
shapes = (
{
closed = 1;
nodes = (
(1032,-26,o),
(1227,220,o),
(1227,424,c),
(827,424,l),
(816,344,o),
(771,285,o),
(652,285,cs),
(530,285,o),
(454,389,o),
(454,536,cs),
(454,685,o),
(530,773,o),
(652,773,cs),
(775,773,o),
(809,704,o),
(825,652,cs),
(827,645,o),
(828,639,o),
(828,631,c),
(1227,631,l),
(1227,634,o),
(1227,637,o),
(1227,640,cs),
(1227,844,o),
(1032,1084,o),
(656,1084,cs),
(273,1084,o),
(45,861,o),
(45,536,cs),
(45,211,o),
(273,-26,o),
(656,-26,cs)
);
}
);
width = 1272;
},
{
anchors = (
{
name = bottom;
pos = (655,0);
},
{
name = top;
pos = (640,1062);
}
);
layerId = "F6BDCC95-B00C-46EE-8A70-124DE74BF6E5";
shapes = (
{
closed = 1;
nodes = (
(976,-20,o),
(1148,189,o),
(1148,382,c),
(979,382,l),
(971,251,o),
(872,136,o),
(656,136,cs),
(456,136,o),
(285,270,o),
(285,532,cs),
(285,795,o),
(457,922,o),
(656,922,cs),
(832,922,o),
(959,829,o),
(976,696,cs),
(977,687,o),
(979,678,o),
(979,671,c),
(1148,671,l),
(1148,673,o),
(1148,676,o),
(1148,678,cs),
(1148,865,o),
(965,1078,o),
(657,1078,cs),
(352,1078,o),
(112,874,o),
(112,532,cs),
(112,189,o),
(352,-20,o),
(657,-20,cs)
);
}
);
width = 1260;
},
{
anchors = (
{
name = bottom;
pos = (534,0);
},
{
name = top;
pos = (755,1062);
}
);
layerId = "2503C51C-5A6C-4B2C-A968-78FEA18C2585";
shapes = (
{
closed = 1;
nodes = (
(839,-17,o),
(1020,168,o),
(1053,325,c),
(1022,325,l),
(991,183,o),
(822,11,o),
(544,11,cs),
(322,11,o),
(172,151,o),
(172,415,cs),
(172,760,o),
(426,1047,o),
(764,1047,cs),
(968,1047,o),
(1111,928,o),
(1111,774,cs),
(1111,758,o),
(1110,739,o),
(1107,727,c),
(1137,727,l),
(1139,736,o),
(1141,761,o),
(1141,773,cs),
(1141,913,o),
(1020,1075,o),
(764,1075,cs),
(410,1075,o),
(141,779,o),
(141,413,cs),
(141,133,o),
(305,-17,o),
(544,-17,cs)
);
}
);
width = 1247;
},
{
anchors = (
{
name = bottom;
pos = (539,0);
},
{
name = top;
pos = (758,1062);
}
);
layerId = "BEF1FBB1-ACEC-4AC1-9895-C09886024D55";
shapes = (
{
closed = 1;
nodes = (
(879,-20,o),
(1081,179,o),
(1117,382,c),
(948,382,l),
(912,251,o),
(798,136,o),
(572,136,cs),
(391,136,o),
(277,236,o),
(277,432,cs),
(277,716,o),
(462,922,o),
(740,922,cs),
(916,922,o),
(1010,839,o),
(1010,696,cs),
(1010,687,o),
(1009,678,o),
(1008,671,c),
(1178,671,l),
(1180,681,o),
(1182,698,o),
(1182,725,cs),
(1182,896,o),
(1042,1078,o),
(764,1078,cs),
(393,1078,o),
(105,802,o),
(105,423,cs),
(105,145,o),
(279,-20,o),
(550,-20,cs)
);
}
);
width = 1262;
},
{
anchors = (
{
name = bottom;
pos = (558,0);
},
{
name = top;
pos = (764,1062);
}
);
layerId = "3FDD6C00-F7FD-4E85-84B0-0136AF7D7529";
shapes = (
{
closed = 1;
nodes = (
(938,-26,o),
(1175,210,o),
(1209,424,c),
(809,424,l),
(781,344,o),
(723,285,o),
(604,285,cs),
(505,285,o),
(450,354,o),
(450,459,cs),
(450,619,o),
(548,773,o),
(708,773,cs),
(831,773,o),
(855,701,o),
(855,654,cs),
(855,643,o),
(855,639,o),
(854,631,c),
(1253,631,l),
(1256,643,o),
(1259,668,o),
(1259,692,cs),
(1259,882,o),
(1093,1084,o),
(758,1084,cs),
(335,1084,o),
(43,844,o),
(43,437,cs),
(43,163,o),
(219,-26,o),
(562,-26,cs)
);
}
);
width = 1277;
}
);
metricLeft = o;
metricRight = o;
note = c;
unicode = 99;
},
{
glyphname = ccedilla;
kernLeft = o;
kernRight = c;
lastChange = "2022-02-09 18:02:24 +0000";
layers = (
{
layerId = "A1A0948C-E637-4A65-8CCC-05505AD98C44";
shapes = (
{
closed = 1;
nodes = (
(658,-143,o),
(610,-160,o),
(599,-185,c),
(600,-195,l),
(664,0,l),
(634,0,l),
(568,-199,l),
(597,-212,l),
(618,-188,o),
(663,-171,o),
(699,-171,cs),
(756,-171,o),
(793,-201,o),
(793,-273,cs),
(793,-357,o),
(723,-406,o),
(638,-406,cs),
(573,-406,o),
(537,-387,o),
(526,-379,c),
(512,-407,l),
(522,-415,o),
(568,-434,o),
(634,-434,cs),
(736,-434,o),
(823,-378,o),
(823,-273,cs),
(823,-178,o),
(769,-143,o),
(704,-143,cs)
);
},
{
ref = c;
}
);
width = 1235;
},
{
layerId = "584F9D0D-8480-40C6-ABEA-8DD6EE64252D";
shapes = (
{
closed = 1;
nodes = (
(722,-56,o),
(684,-75,o),
(671,-107,c),
(681,-107,l),
(739,0,l),
(573,0,l),
(499,-143,l),
(645,-182,l),
(659,-160,o),
(693,-150,o),
(724,-150,cs),
(755,-150,o),
(781,-165,o),
(781,-199,cs),
(781,-243,o),
(729,-265,o),
(658,-265,cs),
(587,-265,o),
(504,-230,o),
(474,-212,c),
(398,-353,l),
(441,-382,o),
(556,-410,o),
(645,-410,cs),
(797,-410,o),
(952,-350,o),
(952,-207,cs),
(952,-95,o),
(859,-56,o),
(787,-56,cs)
);
},
{
ref = c;
}
);
width = 1272;
},
{
layerId = "F6BDCC95-B00C-46EE-8A70-124DE74BF6E5";
shapes = (
{
closed = 1;
nodes = (
(678,-100,o),
(614,-128,o),
(602,-156,c),
(630,-162,l),
(692,0,l),
(603,0,l),
(534,-178,l),
(611,-201,l),
(629,-178,o),
(670,-163,o),
(704,-163,cs),
(751,-163,o),
(784,-188,o),
(784,-245,cs),
(784,-314,o),
(721,-353,o),
(641,-353,cs),
(574,-353,o),
(520,-328,o),
(502,-316,c),
(465,-387,l),
(487,-403,o),
(559,-425,o),
(634,-425,cs),
(755,-425,o),
(867,-368,o),
(867,-248,cs),
(867,-147,o),
(799,-100,o),
(731,-100,cs)
);
},
{
ref = c;
}
);
width = 1260;
},
{
layerId = "2503C51C-5A6C-4B2C-A968-78FEA18C2585";
shapes = (
{
closed = 1;
nodes = (
(514,-158,o),
(468,-175,o),
(453,-200,c),
(453,-210,l),
(544,-15,l),
(514,-15,l),
(421,-214,l),
(448,-227,l),
(472,-203,o),
(519,-186,o),
(555,-186,cs),
(605,-186,o),
(637,-209,o),
(637,-264,cs),
(637,-363,o),
(554,-421,o),
(461,-421,cs),
(396,-421,o),
(363,-402,o),
(353,-394,c),
(335,-422,l),
(344,-430,o),
(391,-449,o),
(457,-449,cs),
(567,-449,o),
(667,-383,o),
(667,-261,cs),
(667,-186,o),
(618,-158,o),
(560,-158,cs)
);
},
{
ref = c;
}
);
width = 1247;
},
{
layerId = "BEF1FBB1-ACEC-4AC1-9895-C09886024D55";
shapes = (
{
closed = 1;
nodes = (
(553,-115,o),
(489,-143,o),
(473,-171,c),
(501,-177,l),
(585,-15,l),
(496,-15,l),
(403,-193,l),
(476,-216,l),
(497,-193,o),
(540,-178,o),
(574,-178,cs),
(616,-178,o),
(645,-197,o),
(645,-242,cs),
(645,-323,o),
(571,-368,o),
(485,-368,cs),
(418,-368,o),
(367,-343,o),
(351,-331,c),
(304,-402,l),
(324,-418,o),
(399,-440,o),
(473,-440,cs),
(604,-440,o),
(728,-371,o),
(728,-237,cs),
(728,-155,o),
(667,-115,o),
(606,-115,cs)
);
},
{
ref = c;
}
);
width = 1262;
},
{
layerId = "3FDD6C00-F7FD-4E85-84B0-0136AF7D7529";
shapes = (
{
closed = 1;
nodes = (
(606,-72,o),
(565,-91,o),
(548,-123,c),
(558,-123,l),
(631,-16,l),
(465,-16,l),
(371,-159,l),
(511,-198,l),
(528,-176,o),
(564,-166,o),
(595,-166,cs),
(623,-166,o),
(646,-178,o),
(646,-206,cs),
(646,-256,o),
(588,-281,o),
(513,-281,cs),
(442,-281,o),
(363,-246,o),
(336,-228,c),
(240,-369,l),
(279,-398,o),
(400,-426,o),
(489,-426,cs),
(655,-426,o),
(817,-352,o),
(817,-198,cs),
(817,-105,o),
(737,-72,o),
(671,-72,cs)
);
},
{
ref = c;
}
);
width = 1277;
}
);
metricLeft = c;
metricRight = c;
unicode = 231;
},
{
glyphname = d;
kernLeft = o;
kernRight = l;
lastChange = "2022-02-09 18:02:24 +0000";
layers = (
{
anchors = (
{
name = bottom;
pos = (695,0);
},
{
name = center;
pos = (991,1295);
},
{
name = top;
pos = (597,1563);
},
{
name = topright;
pos = (1094,1053);
}
);
layerId = "A1A0948C-E637-4A65-8CCC-05505AD98C44";
shapes = (
{
closed = 1;
nodes = (
(806,-17,o),
(1007,159,o),
(1007,390,c),
(977,390,l),
(977,179,o),
(789,11,o),
(577,11,cs),
(337,11,o),
(174,200,o),
(174,529,cs),
(174,858,o),
(337,1047,o),
(577,1047,cs),
(793,1047,o),
(977,872,o),
(977,675,cs),
(977,670,o),
(977,666,o),
(977,661,c),
(1007,657,l),
(1007,663,o),
(1007,669,o),
(1007,675,cs),
(1007,886,o),
(817,1075,o),
(577,1075,cs),
(318,1075,o),
(143,877,o),
(143,529,cs),
(143,181,o),
(318,-17,o),
(577,-17,cs)
);
},
{
closed = 1;
nodes = (
(1008,0,l),
(1008,1563,l),
(977,1563,l),
(977,0,l)
);
}
);
width = 1198;
},
{
anchors = (
{
name = bottom;
pos = (741,-19);
},
{
name = center;
pos = (1059,1298);
},
{
name = top;
pos = (624,1563);
},
{
name = topright;
pos = (1340,1062);
}
);
layerId = "584F9D0D-8480-40C6-ABEA-8DD6EE64252D";
shapes = (
{
closed = 1;
nodes = (
(802,-26,o),
(1003,210,o),
(1003,505,c),
(861,515,l),
(861,382,o),
(759,314,o),
(663,314,cs),
(562,314,o),
(461,381,o),
(461,538,cs),
(461,695,o),
(562,757,o),
(663,757,cs),
(757,757,o),
(861,694,o),
(861,561,cs),
(861,557,o),
(861,552,o),
(861,548,c),
(1003,548,l),
(1003,556,o),
(1003,563,o),
(1003,571,cs),
(1003,866,o),
(802,1084,o),
(547,1084,cs),
(290,1084,o),
(45,890,o),
(45,538,cs),
(45,166,o),
(280,-26,o),
(547,-26,cs)
);
},
{
closed = 1;
nodes = (
(1265,0,l),
(1265,1563,l),
(861,1563,l),
(861,0,l)
);
}
);
width = 1361;
},
{
anchors = (
{
name = bottom;
pos = (718,-7);
},
{
name = center;
pos = (1022,1296);
},
{
name = top;
pos = (613,1563);
},
{
name = topright;
pos = (1192,1056);
}
);
layerId = "F6BDCC95-B00C-46EE-8A70-124DE74BF6E5";
shapes = (
{
closed = 1;
nodes = (
(853,-20,o),
(1061,187,o),
(1061,459,c),
(939,462,l),
(939,282,o),
(792,141,o),
(615,141,cs),
(427,141,o),
(287,268,o),
(287,532,cs),
(287,797,o),
(426,922,o),
(615,922,cs),
(785,922,o),
(939,785,o),
(939,612,cs),
(939,608,o),
(939,603,o),
(939,599,c),
(1061,604,l),
(1061,608,o),
(1061,612,o),
(1061,616,cs),
(1061,889,o),
(837,1078,o),
(591,1078,cs),
(333,1078,o),
(112,882,o),
(112,532,cs),
(112,175,o),
(329,-20,o),
(591,-20,cs)
);
},
{
closed = 1;
nodes = (
(1110,0,l),
(1110,1563,l),
(939,1563,l),
(939,0,l)
);
}
);
width = 1256;
},
{
anchors = (
{
name = bottom;
pos = (599,0);
},
{
name = center;
pos = (1166,1295);
},
{
name = top;
pos = (834,1563);
},
{
name = topright;
pos = (1191,1062);
}
);
layerId = "2503C51C-5A6C-4B2C-A968-78FEA18C2585";
shapes = (
{
closed = 1;
nodes = (
(742,-17,o),
(935,172,o),
(980,383,c),
(951,383,l),
(909,186,o),
(718,11,o),
(482,11,cs),
(274,11,o),
(173,163,o),
(173,389,cs),
(173,739,o),
(361,1045,o),
(692,1045,cs),
(883,1045,o),
(1020,910,o),
(1020,742,cs),
(1020,717,o),
(1016,692,o),
(1010,661,c),
(1038,657,l),
(1040,663,o),
(1050,702,o),
(1050,747,cs),
(1050,927,o),
(905,1073,o),
(693,1073,cs),
(343,1073,o),
(141,760,o),
(141,387,cs),
(141,145,o),
(254,-17,o),
(480,-17,cs)
);
},
{
closed = 1;
nodes = (
(899,0,l),
(1232,1563,l),
(1202,1563,l),
(869,0,l)
);
}
);
width = 1202;
},
{
anchors = (
{
name = bottom;
pos = (613,0);
},
{
name = center;
pos = (1189,1296);
},
{
name = top;
pos = (849,1569);
},
{
name = topright;
pos = (1302,1062);
}
);
layerId = "BEF1FBB1-ACEC-4AC1-9895-C09886024D55";
shapes = (
{
closed = 1;
nodes = (
(747,-20,o),
(1000,187,o),
(1058,459,c),
(926,462,l),
(888,282,o),
(710,141,o),
(533,141,cs),
(375,141,o),
(277,231,o),
(277,416,cs),
(277,686,o),
(430,922,o),
(699,922,cs),
(849,922,o),
(964,816,o),
(964,672,cs),
(964,653,o),
(960,619,o),
(955,599,c),
(1068,604,l),
(1076,636,o),
(1082,682,o),
(1082,714,cs),
(1082,933,o),
(913,1078,o),
(698,1078,cs),
(348,1078,o),
(102,767,o),
(102,400,cs),
(102,127,o),
(257,-20,o),
(485,-20,cs)
);
},
{
closed = 1;
nodes = (
(998,0,l),
(1330,1563,l),
(1159,1563,l),
(827,0,l)
);
}
);
width = 1258;
},
{
anchors = (
{
name = bottom;
pos = (621,0);
},
{
name = center;
pos = (1212,1298);
},
{
name = top;
pos = (858,1580);
},
{
name = topright;
pos = (1472,1062);
}
);
layerId = "3FDD6C00-F7FD-4E85-84B0-0136AF7D7529";
shapes = (
{
closed = 1;
nodes = (
(682,-26,o),
(931,210,o),
(994,505,c),
(854,515,l),
(826,382,o),
(709,314,o),
(613,314,cs),
(522,314,o),
(456,375,o),
(456,487,cs),
(456,642,o),
(557,757,o),
(707,757,cs),
(789,757,o),
(869,709,o),
(869,608,cs),
(869,593,o),
(865,564,o),
(861,548,c),
(1003,548,l),
(1014,591,o),
(1022,654,o),
(1022,697,cs),
(1022,923,o),
(876,1084,o),
(659,1084,cs),
(305,1084,o),
(37,778,o),
(37,414,cs),
(37,130,o),
(188,-26,o),
(427,-26,cs)
);
},
{
closed = 1;
nodes = (
(1148,0,l),
(1481,1563,l),
(1077,1563,l),
(744,0,l)
);
}
);
width = 1363;
}
);
metricLeft = o;
note = d;
unicode = 100;
},
{
glyphname = eth;
kernLeft = o;
kernRight = d;
lastChange = "2022-02-09 18:02:24 +0000";
layers = (
{
layerId = "A1A0948C-E637-4A65-8CCC-05505AD98C44";
shapes = (
{
closed = 1;
nodes = (
(719,1339,l),
(940,1509,l),
(913,1530,l),
(692,1360,l)
);
},
{
closed = 1;
nodes = (
(1157,533,l),
(1157,1182,o),
(910,1446,o),
(584,1554,c),
(556,1530,l),
(874,1437,o),
(1126,1173,o),
(1126,533,c)
);
},
{
closed = 1;
nodes = (
(946,-15,o),
(1157,222,o),
(1157,533,cs),
(1157,844,o),
(946,1073,o),
(650,1073,cs),
(354,1073,o),
(143,844,o),
(143,533,cs),
(143,222,o),
(354,-15,o),
(650,-15,cs)
);
},
{
closed = 1;
nodes = (
(373,13,o),
(174,243,o),
(174,533,cs),
(174,823,o),
(373,1045,o),
(650,1045,cs),
(927,1045,o),
(1126,823,o),
(1126,533,cs),
(1126,243,o),
(927,13,o),
(650,13,cs)
);
}
);
width = 1347;
},
{
layerId = "584F9D0D-8480-40C6-ABEA-8DD6EE64252D";
shapes = (
{
closed = 1;
nodes = (
(596,1103,l),
(984,1468,l),
(769,1591,l),
(379,1222,l)
);
},
{
closed = 1;
nodes = (
(1257,530,l),
(1257,1179,o),
(905,1475,o),
(468,1576,c),
(299,1394,l),
(639,1306,o),
(879,1173,o),
(879,530,c)
);
},
{
closed = 1;
nodes = (
(1011,-26,o),
(1257,200,o),
(1257,530,cs),
(1257,860,o),
(1011,1084,o),
(651,1084,cs),
(291,1084,o),
(45,860,o),
(45,530,cs),
(45,200,o),
(291,-26,o),
(651,-26,cs)
);
},
{
closed = 1;
nodes = (
(528,280,o),
(450,378,o),
(450,530,cs),
(450,682,o),
(528,778,o),
(651,778,cs),
(774,778,o),
(852,682,o),
(852,530,cs),
(852,378,o),
(774,280,o),
(651,280,cs)
);
}
);
width = 1353;
},
{
layerId = "F6BDCC95-B00C-46EE-8A70-124DE74BF6E5";
shapes = (
{
closed = 1;
nodes = (
(688,1221,l),
(992,1484,l),
(865,1553,l),
(560,1288,l)
);
},
{
closed = 1;
nodes = (
(1200,532,l),
(1200,1181,o),
(914,1457,o),
(546,1562,c),
(445,1459,l),
(771,1368,o),
(1039,1173,o),
(1039,532,c)
);
},
{
closed = 1;
nodes = (
(976,-19,o),
(1200,214,o),
(1200,532,cs),
(1200,850,o),
(976,1077,o),
(656,1077,cs),
(336,1077,o),
(112,850,o),
(112,532,cs),
(112,214,o),
(336,-19,o),
(656,-19,cs)
);
},
{
closed = 1;
nodes = (
(437,133,o),
(283,294,o),
(283,532,cs),
(283,770,o),
(437,925,o),
(656,925,cs),
(875,925,o),
(1029,770,o),
(1029,532,cs),
(1029,294,o),
(875,133,o),
(656,133,cs)
);
}
);
width = 1346;
},
{
layerId = "2503C51C-5A6C-4B2C-A968-78FEA18C2585";
shapes = (
{
closed = 1;
nodes = (
(846,1339,l),
(1067,1509,l),
(1040,1530,l),
(819,1360,l)
);
},
{
closed = 1;
nodes = (
(1167,657,l),
(1167,1154,o),
(993,1479,o),
(747,1554,c),
(724,1531,l),
(969,1456,o),
(1136,1133,o),
(1136,651,c)
);
},
{
closed = 1;
nodes = (
(887,-17,o),
(1167,262,o),
(1167,657,cs),
(1167,893,o),
(1021,1075,o),
(763,1075,cs),
(407,1075,o),
(140,777,o),
(140,406,cs),
(140,154,o),
(289,-17,o),
(543,-17,cs)
);
},
{
closed = 1;
nodes = (
(303,11,o),
(172,176,o),
(172,412,cs),
(172,760,o),
(426,1047,o),
(763,1047,cs),
(1003,1047,o),
(1135,879,o),
(1135,652,cs),
(1135,274,o),
(865,11,o),
(543,11,cs)
);
}
);
width = 1347;
},
{
layerId = "BEF1FBB1-ACEC-4AC1-9895-C09886024D55";
shapes = (
{
closed = 1;
nodes = (
(757,1221,l),
(1090,1484,l),
(953,1553,l),
(618,1288,l)
);
},
{
closed = 1;
nodes = (
(1207,646,l),
(1207,1168,o),
(974,1478,o),
(657,1562,c),
(549,1460,l),
(830,1380,o),
(1040,1148,o),
(1040,648,c)
);
},
{
closed = 1;
nodes = (
(915,-20,o),
(1207,254,o),
(1207,646,cs),
(1207,896,o),
(1038,1078,o),
(756,1078,cs),
(388,1078,o),
(104,793,o),
(104,416,cs),
(104,156,o),
(275,-20,o),
(554,-20,cs)
);
},
{
closed = 1;
nodes = (
(378,132,o),
(277,241,o),
(277,431,cs),
(277,713,o),
(473,926,o),
(744,926,cs),
(933,926,o),
(1034,816,o),
(1034,632,cs),
(1034,332,o),
(828,132,o),
(567,132,cs)
);
}
);
width = 1346;
},
{
layerId = "3FDD6C00-F7FD-4E85-84B0-0136AF7D7529";
shapes = (
{
closed = 1;
nodes = (
(629,1103,l),
(1017,1468,l),
(802,1591,l),
(412,1222,l)
);
},
{
closed = 1;
nodes = (
(1268,627,l),
(1268,1192,o),
(938,1475,o),
(501,1576,c),
(332,1394,l),
(672,1306,o),
(874,1172,o),
(874,643,c)
);
},
{
closed = 1;
nodes = (
(957,-26,o),
(1268,241,o),
(1268,627,cs),
(1268,901,o),
(1062,1084,o),
(740,1084,cs),
(350,1084,o),
(40,819,o),
(40,433,cs),
(40,159,o),
(246,-26,o),
(568,-26,cs)
);
},
{
closed = 1;
nodes = (
(497,280,o),
(448,349,o),
(448,462,cs),
(448,634,o),
(547,778,o),
(707,778,cs),
(810,778,o),
(861,710,o),
(861,599,cs),
(861,428,o),
(760,280,o),
(601,280,cs)
);
}
);
width = 1364;
}
);
metricLeft = o;
metricRight = d;
unicode = 240;
},
{
glyphname = dcroat;
kernLeft = o;
kernRight = l;
lastChange = "2022-02-09 18:02:24 +0000";
layers = (
{
layerId = "A1A0948C-E637-4A65-8CCC-05505AD98C44";
shapes = (
{
closed = 1;
nodes = (
(1121,1362,l),
(1121,1388,l),
(633,1388,l),
(633,1362,l)
);
},
{
ref = d;
}
);
width = 1198;
},
{
layerId = "584F9D0D-8480-40C6-ABEA-8DD6EE64252D";
shapes = (
{
closed = 1;
nodes = (
(1383,1220,l),
(1383,1399,l),
(482,1399,l),
(482,1220,l)
);
},
{
ref = d;
}
);
width = 1378;
},
{
layerId = "F6BDCC95-B00C-46EE-8A70-124DE74BF6E5";
shapes = (
{
closed = 1;
nodes = (
(1217,1275,l),
(1217,1405,l),
(575,1405,l),
(575,1275,l)
);
},
{
alignment = -1;
ref = d;
}
);
width = 1256;
},
{
layerId = "2503C51C-5A6C-4B2C-A968-78FEA18C2585";
shapes = (
{
closed = 1;
nodes = (
(1305,1362,l),
(1311,1388,l),
(823,1388,l),
(817,1362,l)
);
},
{
ref = d;
}
);
width = 1198;
},
{
layerId = "BEF1FBB1-ACEC-4AC1-9895-C09886024D55";
shapes = (
{
closed = 1;
nodes = (
(1373,1275,l),
(1401,1405,l),
(759,1405,l),
(731,1275,l)
);
},
{
alignment = -1;
ref = d;
}
);
width = 1252;
},
{
layerId = "3FDD6C00-F7FD-4E85-84B0-0136AF7D7529";
shapes = (
{
closed = 1;
nodes = (
(1517,1220,l),
(1555,1399,l),
(654,1399,l),
(616,1220,l)
);
},
{
ref = d;
}
);
width = 1353;
}
);
metricLeft = o;
unicode = 273;
},
